<svg width="182" height="51" viewBox="0 0 182 51" fill="none" xmlns="http://www.w3.org/2000/svg">
<circle cx="25.6665" cy="25.2109" r="25" fill="white"/>
<g clip-path="url(#clip0_464_77)">
<path d="M26.4116 8.21094C28.2077 10.0086 29.7858 12.1049 30.549 14.5615C31.5145 17.3844 31.0545 20.5856 29.5498 23.1338C28.7132 24.6806 27.4563 25.9289 26.4254 27.3363C25.0912 29.2156 24.0861 31.509 24.3438 33.8641C24.4667 35.5423 25.3965 37.1071 26.7228 38.1144C28.0887 39.1556 29.8571 39.6294 31.5601 39.4582C32.698 39.3248 33.7765 38.8908 34.7657 38.3215C33.6833 39.5677 32.1925 40.4595 30.5649 40.7522C28.2315 41.1663 25.7098 40.8497 23.6718 39.5856C20.5513 37.762 18.7513 34.0791 18.8603 30.4997C18.8246 28.3716 19.3757 26.2673 20.2282 24.3303C18.5669 26.4684 17.5856 29.1639 17.6787 31.8912C17.7997 35.1561 19.2905 38.3891 21.8102 40.4834C22.6686 41.2001 23.6559 41.7297 24.663 42.2035C21.838 41.9148 19.0526 40.7442 17.08 38.6559C14.5226 36.0101 13.2499 32.1859 13.6444 28.5288C13.9794 25.4909 15.6368 22.7715 17.7065 20.5995C19.0467 19.1443 20.6465 17.9638 22.0065 16.5284C23.4934 14.9617 24.8494 13.2237 25.682 11.213C26.0686 10.2555 26.4433 9.26206 26.4116 8.21094Z" fill="#0B3311"/>
<path d="M32.7296 18.751C32.8921 17.4908 32.6324 16.2367 32.5809 14.9805C34.7576 18.317 36.7104 21.9183 37.3904 25.8959C37.9157 28.6989 38.0644 31.8224 36.5518 34.3587C35.0828 36.9925 31.6769 38.2785 28.8379 37.3289C27.1806 36.7556 25.999 35.0575 26.0387 33.2976C25.9455 30.7853 27.4918 28.6213 29.0362 26.7957C30.9889 24.5442 32.4718 21.7611 32.7296 18.751Z" fill="#D1A132"/>
</g>
<path d="M72.4825 36.5469C70.9892 36.5469 69.6078 36.2763 68.3385 35.7349C67.0878 35.1936 65.9865 34.4376 65.0345 33.4669C64.1012 32.4963 63.3732 31.3576 62.8505 30.0509C62.3278 28.7443 62.0665 27.3163 62.0665 25.7669C62.0665 24.2176 62.3185 22.7896 62.8225 21.4829C63.3452 20.1576 64.0732 19.0189 65.0065 18.0669C65.9585 17.0963 67.0692 16.3496 68.3385 15.8269C69.6078 15.2856 70.9892 15.0149 72.4825 15.0149C73.9758 15.0149 75.3105 15.2669 76.4865 15.7709C77.6812 16.2749 78.6892 16.9469 79.5105 17.7869C80.3318 18.6083 80.9198 19.5136 81.2745 20.5029L77.8585 22.0989C77.4665 21.0536 76.8038 20.1949 75.8705 19.5229C74.9372 18.8323 73.8078 18.4869 72.4825 18.4869C71.1758 18.4869 70.0185 18.7949 69.0105 19.4109C68.0212 20.0269 67.2465 20.8763 66.6865 21.9589C66.1452 23.0416 65.8745 24.3109 65.8745 25.7669C65.8745 27.2229 66.1452 28.5016 66.6865 29.6029C67.2465 30.6856 68.0212 31.5349 69.0105 32.1509C70.0185 32.7669 71.1758 33.0749 72.4825 33.0749C73.8078 33.0749 74.9372 32.7389 75.8705 32.0669C76.8038 31.3763 77.4665 30.5083 77.8585 29.4629L81.2745 31.0589C80.9198 32.0483 80.3318 32.9629 79.5105 33.8029C78.6892 34.6243 77.6812 35.2869 76.4865 35.7909C75.3105 36.2949 73.9758 36.5469 72.4825 36.5469ZM84.3661 36.2109V15.3509H93.1581C94.5394 15.3509 95.7154 15.5936 96.6861 16.0789C97.6754 16.5456 98.4314 17.2176 98.9541 18.0949C99.4954 18.9536 99.7661 19.9989 99.7661 21.2309C99.7661 22.1829 99.5048 23.0789 98.9821 23.9189C98.4781 24.7403 97.6661 25.4216 96.5461 25.9629V24.1989C97.5728 24.5909 98.3848 25.0763 98.9821 25.6549C99.5794 26.2336 99.9994 26.8776 100.242 27.5869C100.485 28.2963 100.606 29.0429 100.606 29.8269C100.606 31.8243 99.9434 33.3923 98.6181 34.5309C97.3114 35.6509 95.4914 36.2109 93.1581 36.2109H84.3661ZM88.1741 32.8509H93.5501C94.5394 32.8509 95.3234 32.5803 95.9021 32.0389C96.4994 31.4789 96.7981 30.7416 96.7981 29.8269C96.7981 28.9123 96.4994 28.1749 95.9021 27.6149C95.3234 27.0549 94.5394 26.7749 93.5501 26.7749H88.1741V32.8509ZM88.1741 23.4429H93.3541C94.1381 23.4429 94.7634 23.2189 95.2301 22.7709C95.6968 22.3043 95.9301 21.7069 95.9301 20.9789C95.9301 20.2509 95.6968 19.6723 95.2301 19.2429C94.7634 18.8136 94.1381 18.5989 93.3541 18.5989H88.1741V23.4429ZM103.725 36.2109V15.3509H110.529C112.732 15.3509 114.645 15.7989 116.269 16.6949C117.912 17.5723 119.181 18.7949 120.077 20.3629C120.973 21.9123 121.421 23.7136 121.421 25.7669C121.421 27.8016 120.973 29.6123 120.077 31.1989C119.181 32.7669 117.912 33.9989 116.269 34.8949C114.645 35.7723 112.732 36.2109 110.529 36.2109H103.725ZM107.533 32.8509H110.613C112.032 32.8509 113.255 32.5616 114.281 31.9829C115.327 31.3856 116.139 30.5643 116.717 29.5189C117.296 28.4549 117.585 27.2043 117.585 25.7669C117.585 24.3109 117.296 23.0603 116.717 22.0149C116.139 20.9696 115.327 20.1576 114.281 19.5789C113.255 19.0003 112.032 18.7109 110.613 18.7109H107.533V32.8509ZM138.977 16.1629C140.619 16.1629 142.029 16.4523 143.205 17.0309C144.381 17.6096 145.342 18.3749 146.089 19.3269C146.854 20.2603 147.414 21.3056 147.769 22.4629C148.123 23.6016 148.301 24.7403 148.301 25.8789C148.301 27.0736 148.086 28.3056 147.657 29.5749C147.246 30.8256 146.621 31.9923 145.781 33.0749C144.941 34.1389 143.877 35.0069 142.589 35.6789C141.319 36.3323 139.826 36.6589 138.109 36.6589C136.466 36.6589 135.057 36.3789 133.881 35.8189C132.705 35.2403 131.734 34.4843 130.969 33.5509C130.222 32.6176 129.671 31.5909 129.317 30.4709C128.962 29.3323 128.785 28.1936 128.785 27.0549C128.785 25.6176 129.018 24.2456 129.485 22.9389C129.97 21.6323 130.661 20.4749 131.557 19.4669C132.453 18.4403 133.526 17.6376 134.777 17.0589C136.027 16.4616 137.427 16.1629 138.977 16.1629ZM138.837 17.2829C137.661 17.2829 136.615 17.5536 135.701 18.0949C134.805 18.6363 134.039 19.3549 133.405 20.2509C132.789 21.1469 132.313 22.1363 131.977 23.2189C131.641 24.2829 131.473 25.3563 131.473 26.4389C131.454 27.3909 131.566 28.3989 131.809 29.4629C132.051 30.5083 132.434 31.4883 132.957 32.4029C133.498 33.3176 134.198 34.0643 135.057 34.6429C135.934 35.2216 136.998 35.5109 138.249 35.5109C139.462 35.5109 140.526 35.2403 141.441 34.6989C142.355 34.1576 143.121 33.4389 143.737 32.5429C144.353 31.6283 144.819 30.6296 145.137 29.5469C145.454 28.4643 145.613 27.3909 145.613 26.3269C145.613 25.2256 145.463 24.1429 145.165 23.0789C144.885 21.9963 144.455 21.0256 143.877 20.1669C143.317 19.2896 142.617 18.5896 141.777 18.0669C140.937 17.5443 139.957 17.2829 138.837 17.2829ZM153.203 21.9029C153.987 21.9029 154.575 22.1736 154.967 22.7149C155.359 23.2376 155.555 23.9376 155.555 24.8149C155.555 25.3749 155.499 26.0189 155.387 26.7469C155.294 27.4563 155.172 28.2216 155.023 29.0429C154.874 29.8643 154.743 30.6949 154.631 31.5349C154.538 32.3563 154.491 33.1589 154.491 33.9429C154.491 34.3163 154.556 34.6056 154.687 34.8109C154.836 35.0163 155.06 35.1189 155.359 35.1189C155.676 35.1189 156.022 34.9136 156.395 34.5029C156.787 34.0923 157.123 33.3923 157.403 32.4029L158.187 32.5709C158.112 32.9629 157.982 33.3923 157.795 33.8589C157.627 34.3069 157.403 34.7363 157.123 35.1469C156.843 35.5389 156.498 35.8656 156.087 36.1269C155.695 36.3883 155.238 36.5189 154.715 36.5189C153.856 36.5189 153.222 36.2949 152.811 35.8469C152.4 35.3989 152.195 34.7456 152.195 33.8869C152.195 33.0656 152.251 32.2723 152.363 31.5069C152.475 30.7229 152.596 29.9576 152.727 29.2109C152.876 28.4456 153.007 27.6803 153.119 26.9149C153.231 26.1496 153.287 25.3656 153.287 24.5629C153.287 24.3203 153.231 24.0496 153.119 23.7509C153.026 23.4523 152.82 23.3029 152.503 23.3029C152.204 23.3029 151.859 23.5083 151.467 23.9189C151.075 24.3296 150.739 25.0296 150.459 26.0189L149.675 25.8509C149.731 25.5149 149.843 25.1323 150.011 24.7029C150.179 24.2549 150.403 23.8163 150.683 23.3869C150.982 22.9576 151.336 22.6029 151.747 22.3229C152.158 22.0429 152.643 21.9029 153.203 21.9029ZM154.799 15.8549C155.228 15.8549 155.583 16.0043 155.863 16.3029C156.143 16.5829 156.283 16.9656 156.283 17.4509C156.283 17.9176 156.134 18.3003 155.835 18.5989C155.536 18.8789 155.182 19.0189 154.771 19.0189C154.36 19.0189 154.006 18.8789 153.707 18.5989C153.427 18.3003 153.287 17.9176 153.287 17.4509C153.287 16.9656 153.436 16.5829 153.735 16.3029C154.034 16.0043 154.388 15.8549 154.799 15.8549ZM164.549 15.0709C164.493 15.5376 164.409 16.0603 164.297 16.6389C164.204 17.2176 164.11 17.7869 164.017 18.3469C163.942 18.9069 163.877 19.4016 163.821 19.8309C163.709 20.6149 163.597 21.5109 163.485 22.5189C163.373 23.5083 163.261 24.5443 163.149 25.6269C163.037 26.6909 162.934 27.7363 162.841 28.7629C162.766 29.7896 162.701 30.7323 162.645 31.5909C162.589 32.4309 162.561 33.1216 162.561 33.6629C162.561 34.0176 162.598 34.3536 162.673 34.6709C162.748 34.9696 162.962 35.1189 163.317 35.1189C163.634 35.1189 163.98 34.9229 164.353 34.5309C164.745 34.1203 165.081 33.4109 165.361 32.4029L166.145 32.5989C166.089 32.9163 165.968 33.2989 165.781 33.7469C165.613 34.1949 165.38 34.6336 165.081 35.0629C164.782 35.4736 164.418 35.8189 163.989 36.0989C163.578 36.3789 163.093 36.5189 162.533 36.5189C161.768 36.5189 161.208 36.3323 160.853 35.9589C160.498 35.5669 160.312 34.9976 160.293 34.2509C160.274 33.7843 160.293 33.0936 160.349 32.1789C160.424 31.2643 160.508 30.2283 160.601 29.0709C160.713 27.8949 160.834 26.6723 160.965 25.4029C161.096 24.1149 161.236 22.8643 161.385 21.6509C161.534 20.4376 161.674 19.3363 161.805 18.3469C161.898 17.8429 161.954 17.5163 161.973 17.3669C162.01 17.1989 162.038 17.0216 162.057 16.8349C161.721 16.8536 161.385 16.8723 161.049 16.8909C160.732 16.9096 160.405 16.9283 160.069 16.9469L160.209 15.8269C161.03 15.8269 161.665 15.7896 162.113 15.7149C162.58 15.6403 162.934 15.5469 163.177 15.4349C163.42 15.3229 163.616 15.2016 163.765 15.0709H164.549Z" fill="white"/>
<defs>
<clipPath id="clip0_464_77">
<rect width="34" height="34" fill="white" transform="translate(8.6665 8.21094)"/>
</clipPath>
</defs>
</svg>
