<svg width="51" height="51" viewBox="0 0 51 51" fill="none" xmlns="http://www.w3.org/2000/svg">
<g clip-path="url(#clip0_461_39675)">
<path d="M11.3467 30.7129L9.60625 37.2102L3.24502 37.3447C1.34395 33.8187 0.265625 29.7844 0.265625 25.4973C0.265625 21.3517 1.27383 17.4423 3.06094 14H3.0623L8.72559 15.0383L11.2064 20.6676C10.6872 22.1813 10.4042 23.8063 10.4042 25.4973C10.4044 27.3324 10.7368 29.0907 11.3467 30.7129Z" fill="#FBBB00"/>
<path d="M49.829 20.8242C50.1161 22.3365 50.2658 23.8983 50.2658 25.4945C50.2658 27.2844 50.0776 29.0303 49.7191 30.7144C48.5022 36.4451 45.3222 41.4492 40.917 44.9904L40.9156 44.9891L33.7824 44.6251L32.7729 38.3229C35.6959 36.6086 37.9803 33.9259 39.1836 30.7144H25.8154V20.8242H39.3786H49.829Z" fill="#518EF8"/>
<path d="M40.9154 44.9897L40.9168 44.9911C36.6325 48.4348 31.1901 50.4952 25.2657 50.4952C15.7451 50.4952 7.46768 45.1738 3.24512 37.3428L11.3468 30.7109C13.458 36.3455 18.8935 40.3565 25.2657 40.3565C28.0047 40.3565 30.5707 39.6161 32.7726 38.3235L40.9154 44.9897Z" fill="#28B446"/>
<path d="M41.2227 6.25156L33.1237 12.882C30.8449 11.4576 28.1512 10.6348 25.2652 10.6348C18.7487 10.6348 13.2116 14.8298 11.2062 20.6664L3.06191 13.9988H3.06055C7.22129 5.97686 15.6031 0.496094 25.2652 0.496094C31.3312 0.496094 36.893 2.65684 41.2227 6.25156Z" fill="#F14336"/>
</g>
<defs>
<clipPath id="clip0_461_39675">
<rect width="50" height="50" fill="white" transform="translate(0.265625 0.496094)"/>
</clipPath>
</defs>
</svg>
