<svg width="35" height="35" viewBox="0 0 35 35" fill="none" xmlns="http://www.w3.org/2000/svg">
<g clip-path="url(#clip0_16_8)">
<path d="M32.0086 9.88888V11.0052C32.0086 11.928 31.2573 12.6786 30.3345 12.6786H28.6604V23.1492C28.6604 23.7877 28.3056 24.3612 27.7354 24.647L27.5447 24.7427V25.5138C27.5447 26.4366 26.7935 27.1879 25.8706 27.1879C24.9478 27.1879 24.1965 26.4366 24.1965 25.5138V24.7427L24.0058 24.6477C23.435 24.3619 23.0802 23.7884 23.0802 23.1499V12.6786H21.4061C20.4832 12.6786 19.7319 11.928 19.7319 11.0052V9.88888C19.7319 8.96603 20.4832 8.21476 21.4061 8.21476H21.9646V4.3087C21.9646 2.15538 23.7173 0.402649 25.8706 0.402649C28.0239 0.402649 29.7767 2.15538 29.7767 4.3087V8.21476H30.3345C31.2573 8.21476 32.0086 8.96534 32.0086 9.88888ZM30.893 11.0052V9.88888C30.893 9.58058 30.6428 9.33107 30.3345 9.33107H21.4061C21.0984 9.33107 20.8482 9.58058 20.8482 9.88888V11.0052C20.8482 11.3128 21.0984 11.563 21.4061 11.563H30.3345C30.6428 11.563 30.893 11.3128 30.893 11.0052ZM28.6604 8.21476V4.3087C28.6604 2.76993 27.4087 1.51827 25.8706 1.51827C24.3318 1.51827 23.0802 2.76993 23.0802 4.3087V8.21476H28.6604ZM27.5447 23.1492V12.6786H24.1965V23.1492C24.1965 23.3625 24.3147 23.5539 24.5048 23.6489L25.3121 24.0529V25.5138C25.3121 25.8214 25.5623 26.0716 25.8706 26.0716C26.1782 26.0716 26.4284 25.8214 26.4284 25.5138V24.0529L27.2357 23.6489C27.4265 23.5539 27.5447 23.3625 27.5447 23.1492Z" fill="white"/>
<path d="M25.8708 28.3038C27.5743 28.3038 28.6605 30.8687 28.6605 32.2099C28.6605 33.7487 27.4088 35.0003 25.8708 35.0003C24.332 35.0003 23.0803 33.7487 23.0803 32.2099C23.0803 30.8694 24.1666 28.3038 25.8708 28.3038ZM25.8708 33.884C26.7936 33.884 27.5449 33.1334 27.5449 32.2099C27.5449 31.1079 26.6466 29.4201 25.8708 29.4201C25.0942 29.4201 24.1966 31.1079 24.1966 32.2099C24.1966 33.1334 24.9479 33.884 25.8708 33.884Z" fill="white"/>
<path d="M19.7319 5.87207V6.54062C19.7319 8.70898 18.5985 10.6832 16.7836 11.7858C17.433 12.4387 17.889 13.2911 18.051 14.2611L18.159 14.9105H14.7096C13.2877 14.9105 12.0456 14.1442 11.362 13.0061C10.6784 14.1442 9.43563 14.9105 8.01376 14.9105H4.56503L4.67303 14.2611C4.83436 13.2904 5.29032 12.438 5.93973 11.7858C4.12479 10.6832 2.99139 8.7083 2.99139 6.53994V5.87139L7.04237 6.60898C7.38348 6.67051 7.71571 6.76279 8.03837 6.87969C8.02606 6.73066 8.01376 6.58096 8.01376 6.4292C8.01376 5.28965 8.36307 4.19727 9.02548 3.27031L11.362 0L13.6978 3.271C14.3602 4.19795 14.7096 5.29033 14.7096 6.4292C14.7096 6.58027 14.6973 6.72998 14.6849 6.87969C15.0076 6.76211 15.3398 6.66982 15.6809 6.6083L19.7319 5.87207ZM18.5712 7.21738L15.8806 7.70615C15.3631 7.80049 14.8688 7.97822 14.406 8.22705C14.1114 9.07266 13.6008 9.83144 12.9226 10.4467H13.5474C14.365 10.4467 15.1348 10.662 15.8026 11.0407C17.3134 10.299 18.3476 8.86758 18.5712 7.21738ZM14.7096 13.7949H16.7754C16.2798 12.4694 15.0117 11.563 13.5474 11.563H11.9759C12.2349 12.8345 13.3622 13.7949 14.7096 13.7949ZM13.5939 6.4292C13.5939 5.52344 13.3157 4.65596 12.7893 3.91904L11.362 1.92021L9.93397 3.91904C9.40761 4.65596 9.12938 5.52344 9.12938 6.4292C9.12938 7.74785 9.72069 8.97627 10.7502 9.80137L11.362 10.2901L11.9731 9.80137C13.0026 8.97627 13.5939 7.74785 13.5939 6.4292ZM10.7474 11.563H9.17587C7.71161 11.563 6.44354 12.4694 5.94794 13.7949H8.01376C9.36112 13.7949 10.4884 12.8345 10.7474 11.563ZM9.17587 10.4467H9.80067C9.12255 9.83144 8.61259 9.07266 8.31727 8.22705C7.85448 7.97822 7.36092 7.80117 6.84276 7.70683L4.15282 7.21738C4.37567 8.86758 5.40995 10.299 6.92069 11.0407C7.58856 10.662 8.35829 10.4467 9.17587 10.4467Z" fill="white"/>
<path d="M18.0578 23.2808V32.2092C18.0578 33.748 16.8061 34.9996 15.268 34.9996H7.45521C5.91713 34.9996 4.66547 33.748 4.66547 32.2092V23.2808C4.66547 22.1194 5.1973 21.0113 6.08939 20.2737C5.57533 19.9879 5.22328 19.4458 5.22328 18.8169V17.7006C5.22328 16.7778 5.97455 16.0265 6.8974 16.0265H15.8258C16.7487 16.0265 17.4999 16.7778 17.4999 17.7006V18.8169C17.4999 19.4451 17.1479 19.9872 16.6345 20.273C17.5259 21.0113 18.0578 22.1187 18.0578 23.2808ZM16.9428 32.2092V23.2808C16.9428 22.4078 16.5251 21.5732 15.8265 21.0489L15.0821 20.491H7.64183L6.89808 21.0489C6.19877 21.5732 5.78109 22.4078 5.78109 23.2808V32.2092C5.78109 33.1327 6.53236 33.8833 7.45521 33.8833H15.268C16.1909 33.8833 16.9421 33.1327 16.9421 32.2092H16.9428ZM16.3836 18.8169V17.7006C16.3836 17.393 16.1341 17.1428 15.8258 17.1428H6.8974C6.5891 17.1428 6.33959 17.393 6.33959 17.7006V18.8169C6.33959 19.1252 6.5891 19.3747 6.8974 19.3747H15.8258C16.1341 19.3747 16.3836 19.1252 16.3836 18.8169Z" fill="white"/>
<path d="M15.8258 22.7227V31.0933C15.8258 32.0161 15.0745 32.7674 14.1517 32.7674H8.57152C7.64867 32.7674 6.8974 32.0161 6.8974 31.0933V22.7227H8.01371V31.0933C8.01371 31.4009 8.26322 31.6511 8.57152 31.6511H14.1517C14.46 31.6511 14.7095 31.4009 14.7095 31.0933V22.7227H15.8258Z" fill="white"/>
<path d="M11.9196 22.7227C12.8425 22.7227 13.5937 23.4739 13.5937 24.3968C13.5937 25.3196 12.8425 26.0709 11.9196 26.0709C10.9968 26.0709 10.2455 25.3196 10.2455 24.3968C10.2455 23.4739 10.9968 22.7227 11.9196 22.7227ZM12.4774 24.3968C12.4774 24.0885 12.2272 23.839 11.9196 23.839C11.6113 23.839 11.3618 24.0885 11.3618 24.3968C11.3618 24.7051 11.6113 24.9546 11.9196 24.9546C12.2272 24.9546 12.4774 24.7051 12.4774 24.3968Z" fill="white"/>
<path d="M10.8035 27.1873C11.7263 27.1873 12.4776 27.9378 12.4776 28.8614C12.4776 29.7842 11.7263 30.5348 10.8035 30.5348C9.8806 30.5348 9.12933 29.7842 9.12933 28.8614C9.12933 27.9378 9.8806 27.1873 10.8035 27.1873ZM11.362 28.8614C11.362 28.5531 11.1118 28.3029 10.8035 28.3029C10.4958 28.3029 10.2456 28.5531 10.2456 28.8614C10.2456 29.169 10.4958 29.4192 10.8035 29.4192C11.1118 29.4192 11.362 29.169 11.362 28.8614Z" fill="white"/>
</g>
<defs>
<clipPath id="clip0_16_8">
<rect width="35" height="35" fill="white"/>
</clipPath>
</defs>
</svg>
