<svg width="50" height="51" viewBox="0 0 50 51" fill="none" xmlns="http://www.w3.org/2000/svg">
<g clip-path="url(#clip0_461_49869)">
<path d="M46.4736 36.1064C46.3369 35.7148 45.9668 35.4512 45.5518 35.4512C45.4424 35.4512 45.334 35.4697 45.2305 35.5059C44.7217 35.6836 44.4521 36.2412 44.6299 36.75C44.9531 37.6777 45.1172 38.6514 45.1172 39.6445C45.1162 41.9912 44.2021 44.1982 42.543 45.8594C40.8818 47.5186 38.6748 48.4336 36.3281 48.4336C33.9814 48.4336 31.7744 47.5186 30.1133 45.8594C28.4541 44.1982 27.5391 41.9912 27.5391 39.6445C27.5391 37.2979 28.4541 35.0908 30.1133 33.4297C31.7744 31.7705 33.9814 30.8564 36.3281 30.8555C37.3213 30.8555 38.2959 31.0195 39.2236 31.3438C39.3281 31.3799 39.4365 31.3984 39.5459 31.3984C39.9609 31.3984 40.3311 31.1348 40.4678 30.7432C40.6455 30.2344 40.376 29.6768 39.8672 29.499C38.7324 29.1035 37.542 28.9023 36.3301 28.9023H36.3281C34.8779 28.9023 33.4707 29.1865 32.1465 29.7471C31.6913 29.9396 31.2535 30.163 30.8329 30.4136L26.5953 29.2189L26.4193 27.2825C28.8936 25.9328 30.6938 23.4904 31.1475 20.5866C34.0126 19.0275 35.6445 16.7945 35.6445 14.4004C35.6445 12.1183 34.2132 10.0277 31.6023 8.47295C31.2864 6.60488 30.4265 4.87187 29.0868 3.45205C27.2217 1.47529 24.6951 0.386719 21.9727 0.386719C19.2502 0.386719 16.7236 1.47529 14.8585 3.45205C13.5183 4.87246 12.6582 6.60615 12.3425 8.47324C9.73193 10.0279 8.30078 12.1184 8.30078 14.4004C8.30078 16.7944 9.93262 19.0273 12.7975 20.5863C13.25 23.4895 15.0506 25.9325 17.526 27.2826L17.35 29.2189L10.6832 31.0984C8.42969 31.7512 6.49355 33.0876 5.08408 34.9632C3.67461 36.8389 2.92969 39.0703 2.92969 41.4165V49.4102C2.92969 49.9495 3.36689 50.3867 3.90625 50.3867H40.0391C40.5784 50.3867 41.0156 49.9495 41.0156 49.4102V49.3116C42.093 48.7893 43.0694 48.0945 43.9238 47.2401C44.9102 46.2538 45.6846 45.1054 46.2256 43.8261C46.7861 42.5019 47.0703 41.0946 47.0703 39.6444C47.0703 38.4316 46.8701 37.2422 46.4736 36.1064ZM33.6914 14.4004C33.6914 15.7545 32.8459 17.081 31.3236 18.1782L31.7091 10.9198C32.9853 11.959 33.6914 13.1773 33.6914 14.4004ZM16.2791 4.79238C17.7714 3.21084 19.7934 2.33984 21.9727 2.33984C24.152 2.33984 26.1739 3.21084 27.6662 4.79238C29.1492 6.36406 29.897 8.41533 29.7715 10.5732L29.7177 11.5866C26.4006 10.6259 23.8204 8.37207 23.7927 8.34766C23.425 8.02148 22.8722 8.01924 22.5019 8.34277C19.7456 10.7516 16.662 11.8861 14.2718 12.4189L14.1735 10.5684C14.0483 8.41533 14.7961 6.36406 16.2791 4.79238ZM10.2539 14.4004C10.2539 13.1773 10.96 11.959 12.2363 10.9199L12.6218 18.1783C11.0994 17.081 10.2539 15.7545 10.2539 14.4004ZM14.6523 19.5863L14.3767 14.3942C16.873 13.8755 20.141 12.755 23.1543 10.3429C24.2672 11.1958 26.6806 12.8363 29.6118 13.5818L29.2933 19.5814C29.069 23.4391 25.8534 26.4609 21.9727 26.4609C18.0919 26.4609 14.8763 23.4391 14.6523 19.5863ZM21.9727 28.4141C22.8577 28.4141 23.7152 28.2893 24.5285 28.0569L24.67 29.6134L21.9727 32.3462L19.2753 29.6134L19.4168 28.0569C20.2301 28.2892 21.0876 28.4141 21.9727 28.4141ZM4.88281 41.4165C4.88281 37.5278 7.49141 34.0563 11.2199 32.9764L17.9718 31.0729L21.2776 34.4224C21.4611 34.6082 21.7114 34.7129 21.9727 34.7129C22.2339 34.7129 22.4842 34.6082 22.6677 34.4224L25.9735 31.0729L28.8927 31.8959C28.8394 31.9471 28.7848 31.9964 28.7323 32.0488C27.746 33.0352 26.9716 34.1836 26.4306 35.4629C25.8701 36.7871 25.5859 38.1943 25.5859 39.6445C25.5859 41.0947 25.8701 42.502 26.4307 43.8262C26.9717 45.1055 27.7461 46.2539 28.7324 47.2402C29.1742 47.682 29.6502 48.0788 30.1542 48.4336H12.9395V41.8906C12.9395 41.3513 12.5022 40.9141 11.9629 40.9141C11.4235 40.9141 10.9863 41.3513 10.9863 41.8906V48.4336H4.88281V41.4165Z" fill="#D1A132"/>
<path d="M43.2349 33.7148C43.7742 33.7148 44.2114 33.2776 44.2114 32.7383C44.2114 32.1989 43.7742 31.7617 43.2349 31.7617C42.6955 31.7617 42.2583 32.1989 42.2583 32.7383C42.2583 33.2776 42.6955 33.7148 43.2349 33.7148Z" fill="#D1A132"/>
<path d="M40.5021 35.6372C40.0428 35.3545 39.4412 35.4978 39.1586 35.9571L35.9466 41.1766L33.401 38.2673C33.0458 37.8614 32.4289 37.8203 32.023 38.1754C31.6171 38.5306 31.5759 39.1476 31.9311 39.5534L35.349 43.4597C35.5353 43.6726 35.8445 43.7915 36.1247 43.7915C36.4339 43.7655 36.7531 43.5927 36.9157 43.3284L40.822 36.9808C41.1046 36.5215 40.9613 35.9199 40.5021 35.6372Z" fill="#D1A132"/>
<path d="M24.6041 23.0619C24.9921 22.6873 25.0029 22.069 24.6283 21.681C24.2538 21.293 23.6354 21.2822 23.2474 21.6569C22.5445 22.3356 21.4008 22.3356 20.6979 21.6569C20.31 21.2823 19.6917 21.2931 19.317 21.681C18.9424 22.069 18.9532 22.6872 19.3412 23.0619C20.0666 23.7625 21.0197 24.1128 21.9726 24.1128C22.9255 24.1128 23.8787 23.7626 24.6041 23.0619Z" fill="#D1A132"/>
<path d="M26.123 17.5742C26.6624 17.5742 27.0996 17.137 27.0996 16.5977C27.0996 16.0583 26.6624 15.6211 26.123 15.6211C25.5837 15.6211 25.1465 16.0583 25.1465 16.5977C25.1465 17.137 25.5837 17.5742 26.123 17.5742Z" fill="#D1A132"/>
<path d="M17.8223 17.5742C18.3616 17.5742 18.7988 17.137 18.7988 16.5977C18.7988 16.0583 18.3616 15.6211 17.8223 15.6211C17.2829 15.6211 16.8457 16.0583 16.8457 16.5977C16.8457 17.137 17.2829 17.5742 17.8223 17.5742Z" fill="#D1A132"/>
<path d="M21.9727 45.3086C22.512 45.3086 22.9492 44.8714 22.9492 44.332C22.9492 43.7927 22.512 43.3555 21.9727 43.3555C21.4333 43.3555 20.9961 43.7927 20.9961 44.332C20.9961 44.8714 21.4333 45.3086 21.9727 45.3086Z" fill="#D1A132"/>
<path d="M21.9727 40.9141C22.512 40.9141 22.9492 40.4768 22.9492 39.9375C22.9492 39.3982 22.512 38.9609 21.9727 38.9609C21.4333 38.9609 20.9961 39.3982 20.9961 39.9375C20.9961 40.4768 21.4333 40.9141 21.9727 40.9141Z" fill="#D1A132"/>
</g>
<defs>
<clipPath id="clip0_461_49869">
<rect width="50" height="50" fill="white" transform="translate(0 0.386719)"/>
</clipPath>
</defs>
</svg>
