<svg width="46" height="46" viewBox="0 0 46 46" fill="none" xmlns="http://www.w3.org/2000/svg">
<g clip-path="url(#clip0_461_49840)">
<path d="M13.3623 17.698L11.3865 19.3905C10.5389 20.1163 9.85856 21.0172 9.39235 22.031C8.92613 23.0449 8.68509 24.1477 8.68579 25.2637V41.7168C8.68691 42.6489 9.05766 43.5424 9.71673 44.2015C10.3758 44.8605 11.2694 45.2313 12.2014 45.2324H23.4514C24.3835 45.2313 25.277 44.8605 25.9361 44.2015C26.5952 43.5424 26.9659 42.6489 26.967 41.7168V25.2637C26.9678 24.1478 26.7268 23.0451 26.2605 22.0313C25.7943 21.0176 25.114 20.1168 24.2663 19.3912L22.2906 17.6973C22.2136 17.6313 22.1518 17.5495 22.1095 17.4574C22.0671 17.3652 22.0452 17.2651 22.0452 17.1637V15.7012H22.7483C22.9348 15.7012 23.1136 15.6271 23.2455 15.4952C23.3773 15.3634 23.4514 15.1845 23.4514 14.998V10.7793C23.4514 10.5928 23.3773 10.414 23.2455 10.2821C23.1136 10.1503 22.9348 10.0762 22.7483 10.0762H21.342V5.1543C21.342 4.2219 20.9716 3.32768 20.3123 2.66837C19.653 2.00907 18.7588 1.63867 17.8264 1.63867C16.894 1.63867 15.9998 2.00907 15.3405 2.66837C14.6812 3.32768 14.3108 4.2219 14.3108 5.1543V10.0762H12.9045C12.7181 10.0762 12.5392 10.1503 12.4074 10.2821C12.2755 10.414 12.2014 10.5928 12.2014 10.7793V14.998C12.2014 15.1845 12.2755 15.3634 12.4074 15.4952C12.5392 15.6271 12.7181 15.7012 12.9045 15.7012H13.6077V17.1637C13.6078 17.2652 13.5859 17.3655 13.5435 17.4577C13.5012 17.55 13.4393 17.632 13.3623 17.698ZM15.717 5.1543C15.717 4.59486 15.9393 4.05833 16.3349 3.66274C16.7304 3.26716 17.267 3.04492 17.8264 3.04492C18.3859 3.04492 18.9224 3.26716 19.318 3.66274C19.7136 4.05833 19.9358 4.59486 19.9358 5.1543V10.0762H15.717V5.1543ZM13.6077 11.4824H22.0452V14.2949H13.6077V11.4824ZM20.6389 15.7012V17.1637C20.6389 17.4678 20.7047 17.7684 20.8318 18.0447C20.9589 18.3211 21.1442 18.5667 21.3751 18.7647L23.3509 20.4592C24.0444 21.0529 24.6011 21.7898 24.9826 22.6191C25.3641 23.4485 25.5614 24.3507 25.5608 25.2637V41.7168C25.5608 42.2762 25.3386 42.8128 24.943 43.2083C24.5474 43.6039 24.0109 43.8262 23.4514 43.8262H12.2014C11.642 43.8262 11.1054 43.6039 10.7099 43.2083C10.3143 42.8128 10.092 42.2762 10.092 41.7168V25.2637C10.0915 24.3506 10.2888 23.4484 10.6703 22.6188C11.0518 21.7893 11.6084 21.0523 12.302 20.4585L14.2777 18.7654C14.5087 18.5673 14.6941 18.3216 14.8212 18.0451C14.9482 17.7686 15.014 17.468 15.0139 17.1637V15.7012H20.6389Z" fill="white"/>
<path d="M32.592 1.63867C31.66 1.63979 30.7664 2.01054 30.1074 2.66961C29.4483 3.32867 29.0775 4.22224 29.0764 5.1543V10.0762H27.6702C27.4837 10.0762 27.3048 10.1503 27.173 10.2821C27.0411 10.414 26.967 10.5928 26.967 10.7793V14.998C26.967 15.1845 27.0411 15.3634 27.173 15.4952C27.3048 15.6271 27.4837 15.7012 27.6702 15.7012H29.7795V28.3574C29.7795 28.4329 29.7916 28.508 29.8154 28.5796L30.4827 30.5807V33.2793C30.4827 33.4658 30.5567 33.6446 30.6886 33.7765C30.8205 33.9083 30.9993 33.9824 31.1858 33.9824H33.9983C34.1848 33.9824 34.3636 33.9083 34.4955 33.7765C34.6273 33.6446 34.7014 33.4658 34.7014 33.2793V30.5807L35.3687 28.5796C35.3925 28.508 35.4046 28.4329 35.4045 28.3574V15.7012H37.5139C37.7004 15.7012 37.8792 15.6271 38.0111 15.4952C38.143 15.3634 38.217 15.1845 38.217 14.998V10.7793C38.217 10.5928 38.143 10.414 38.0111 10.2821C37.8792 10.1503 37.7004 10.0762 37.5139 10.0762H36.1077V5.1543C36.1065 4.22224 35.7358 3.32867 35.0767 2.66961C34.4177 2.01054 33.5241 1.63979 32.592 1.63867ZM30.4827 5.1543C30.4827 4.59486 30.7049 4.05833 31.1005 3.66274C31.4961 3.26716 32.0326 3.04492 32.592 3.04492C33.1515 3.04492 33.688 3.26716 34.0836 3.66274C34.4792 4.05833 34.7014 4.59486 34.7014 5.1543V10.0762H30.4827V5.1543ZM33.9983 28.2435L33.331 30.2446C33.3072 30.3163 33.2951 30.3913 33.2952 30.4668V32.5762H31.8889V30.4668C31.889 30.3913 31.8769 30.3163 31.8531 30.2446L31.1858 28.2435V15.7012H33.9983V28.2435ZM36.8108 14.2949H28.3733V11.4824H36.8108V14.2949Z" fill="white"/>
<path d="M11.4983 25.5449V39.6074C11.4983 39.7939 11.5724 39.9727 11.7042 40.1046C11.8361 40.2365 12.0149 40.3105 12.2014 40.3105H23.4514C23.6379 40.3105 23.8167 40.2365 23.9486 40.1046C24.0805 39.9727 24.1545 39.7939 24.1545 39.6074V25.5449C24.1545 25.3584 24.0805 25.1796 23.9486 25.0477C23.8167 24.9159 23.6379 24.8418 23.4514 24.8418H12.2014C12.0149 24.8418 11.8361 24.9159 11.7042 25.0477C11.5724 25.1796 11.4983 25.3584 11.4983 25.5449ZM12.9045 26.248H22.7483V38.9043H12.9045V26.248Z" fill="white"/>
<path d="M18.4114 27.9668C18.3434 27.8759 18.2551 27.802 18.1535 27.7512C18.052 27.7003 17.94 27.6738 17.8264 27.6738C17.7128 27.6738 17.6008 27.7003 17.4993 27.7512C17.3977 27.802 17.3094 27.8759 17.2414 27.9668L15.2087 31.0155C14.6225 31.8938 14.31 32.9261 14.3108 33.982C14.3108 34.9144 14.6812 35.8086 15.3405 36.468C15.9998 37.1273 16.894 37.4977 17.8264 37.4977C18.7588 37.4977 19.653 37.1273 20.3123 36.468C20.9716 35.8086 21.342 34.9144 21.342 33.982C21.3428 32.9261 21.0304 31.8938 20.4442 31.0155L18.4114 27.9668ZM17.8264 36.0914C17.267 36.0914 16.7304 35.8692 16.3349 35.4736C15.9393 35.078 15.717 34.5415 15.717 33.982C15.7164 33.2039 15.9467 32.4432 16.3787 31.796L17.8264 29.6227L19.2742 31.7939C19.7065 32.4417 19.9368 33.2032 19.9358 33.982C19.9358 34.5415 19.7136 35.078 19.318 35.4736C18.9224 35.8692 18.3859 36.0914 17.8264 36.0914Z" fill="white"/>
<path d="M33.177 35.7012C33.109 35.6102 33.0207 35.5364 32.9192 35.4855C32.8176 35.4347 32.7056 35.4082 32.592 35.4082C32.4785 35.4082 32.3665 35.4347 32.2649 35.4855C32.1634 35.5364 32.0751 35.6102 32.007 35.7012L29.9743 38.7499C29.3881 39.6281 29.0756 40.6605 29.0764 41.7164C29.0764 42.6488 29.4468 43.543 30.1061 44.2023C30.7654 44.8616 31.6596 45.232 32.592 45.232C33.5244 45.232 34.4187 44.8616 35.078 44.2023C35.7373 43.543 36.1077 42.6488 36.1077 41.7164C36.1085 40.6605 35.796 39.6281 35.2098 38.7499L33.177 35.7012ZM32.592 43.8258C32.0326 43.8258 31.4961 43.6035 31.1005 43.208C30.7049 42.8124 30.4827 42.2758 30.4827 41.7164C30.4821 40.9383 30.7123 40.1775 31.1443 39.5304L32.592 37.357L34.0398 39.5283C34.4722 40.176 34.7024 40.9376 34.7014 41.7164C34.7014 42.2758 34.4792 42.8124 34.0836 43.208C33.688 43.6035 33.1515 43.8258 32.592 43.8258Z" fill="white"/>
</g>
<defs>
<clipPath id="clip0_461_49840">
<rect width="45" height="45" fill="white" transform="translate(0.951416 0.935547)"/>
</clipPath>
</defs>
</svg>
