<svg width="51" height="51" viewBox="0 0 51 51" fill="none" xmlns="http://www.w3.org/2000/svg">
<path d="M26.5015 40.377C26.0205 40.3784 25.5441 40.2844 25.0998 40.1003C24.6555 39.9163 24.2521 39.6459 23.913 39.3048L20.7232 36.1149C20.6223 36.0138 20.5025 35.9336 20.3705 35.879C20.2385 35.8243 20.097 35.7964 19.9542 35.7966H15.4425C14.4718 35.7954 13.5413 35.4093 12.855 34.7228C12.1687 34.0364 11.7828 33.1058 11.7818 32.1351V27.6251C11.7824 27.4821 11.7546 27.3404 11.7 27.2082C11.6453 27.076 11.5649 26.9561 11.4635 26.8552L8.27363 23.6654C7.58884 22.978 7.20435 22.0472 7.20435 21.077C7.20435 20.1067 7.58884 19.1759 8.27363 18.4885L11.4635 15.2987C11.5649 15.1979 11.6453 15.0779 11.7 14.9457C11.7546 14.8136 11.7824 14.6719 11.7818 14.5289V10.0188C11.7828 9.04815 12.1687 8.11752 12.855 7.43109C13.5413 6.74466 14.4718 6.35849 15.4425 6.35731H19.9542C20.097 6.35757 20.2385 6.32958 20.3705 6.27496C20.5025 6.22033 20.6223 6.14014 20.7232 6.039L23.913 2.84912C24.6105 2.18373 25.5375 1.8125 26.5015 1.8125C27.4654 1.8125 28.3924 2.18373 29.0899 2.84912L32.2798 6.039C32.3806 6.14014 32.5005 6.22033 32.6325 6.27496C32.7644 6.32958 32.9059 6.35757 33.0488 6.35731H37.5605C38.5311 6.35849 39.4617 6.74466 40.1479 7.43109C40.8342 8.11752 41.2202 9.04815 41.2211 10.0188V14.5289C41.2205 14.6719 41.2483 14.8136 41.303 14.9457C41.3576 15.0779 41.438 15.1979 41.5394 15.2987L44.7293 18.4885C45.4141 19.1759 45.7986 20.1067 45.7986 21.077C45.7986 22.0472 45.4141 22.978 44.7293 23.6654L41.5394 26.8552C41.438 26.9561 41.3576 27.076 41.303 27.2082C41.2483 27.3404 41.2205 27.4821 41.2211 27.6251V32.1351C41.2202 33.1058 40.8342 34.0364 40.1479 34.7228C39.4617 35.4093 38.5311 35.7954 37.5605 35.7966H33.0488C32.9059 35.7964 32.7644 35.8243 32.6325 35.879C32.5005 35.9336 32.3806 36.0138 32.2798 36.1149L29.0899 39.3048C28.7508 39.6459 28.3475 39.9163 27.9031 40.1003C27.4588 40.2844 26.9824 40.3784 26.5015 40.377ZM15.4425 8.93065C15.1541 8.93109 14.8776 9.0459 14.6738 9.24989C14.47 9.45389 14.3554 9.73041 14.3552 10.0188V14.5289C14.3567 15.0099 14.2627 15.4865 14.0786 15.931C13.8946 16.3754 13.6241 16.7789 13.2829 17.1181L10.0931 20.308C9.88949 20.5121 9.77517 20.7887 9.77517 21.077C9.77517 21.3653 9.88949 21.6418 10.0931 21.8459L13.2829 25.0358C13.6241 25.375 13.8946 25.7785 14.0786 26.223C14.2627 26.6674 14.3567 27.144 14.3552 27.6251V32.1351C14.3554 32.4235 14.47 32.7 14.6738 32.904C14.8776 33.108 15.1541 33.2228 15.4425 33.2233H19.9542C20.4351 33.222 20.9115 33.3162 21.3558 33.5002C21.8001 33.6842 22.2035 33.9546 22.5426 34.2955L25.7325 37.4854C25.9397 37.683 26.2151 37.7932 26.5015 37.7932C26.7878 37.7932 27.0632 37.683 27.2705 37.4854L30.4603 34.2955C30.7995 33.9546 31.2029 33.6842 31.6472 33.5002C32.0915 33.3162 32.5679 33.222 33.0488 33.2233H37.5605C37.8489 33.2228 38.1253 33.108 38.3291 32.904C38.533 32.7 38.6476 32.4235 38.6478 32.1351V27.6251C38.6463 27.144 38.7403 26.6674 38.9243 26.223C39.1084 25.7785 39.3788 25.375 39.72 25.0358L42.9099 21.8459C43.1134 21.6418 43.2278 21.3653 43.2278 21.077C43.2278 20.7887 43.1134 20.5121 42.9099 20.308L39.72 17.1181C39.3788 16.7789 39.1084 16.3754 38.9243 15.931C38.7403 15.4865 38.6463 15.0099 38.6478 14.5289V10.0188C38.6476 9.73041 38.533 9.45389 38.3291 9.24989C38.1253 9.0459 37.8489 8.93109 37.5605 8.93065H33.0488C32.5679 8.93189 32.0915 8.83777 31.6472 8.65372C31.2029 8.46968 30.7995 8.19937 30.4603 7.85843L27.2705 4.66856C27.0632 4.47095 26.7878 4.36071 26.5015 4.36071C26.2151 4.36071 25.9397 4.47095 25.7325 4.66856L22.5426 7.85843C22.2035 8.19937 21.8001 8.46968 21.3558 8.65372C20.9115 8.83777 20.4351 8.93189 19.9542 8.93065H15.4425Z" fill="#D1A132"/>
<path d="M25.9282 15.452L24.5664 18.6294C24.5184 18.7415 24.4385 18.8371 24.3366 18.9042C24.2348 18.9714 24.1155 19.0072 23.9935 19.0072H21.2894C21.1602 19.0072 21.0342 19.0473 20.9289 19.1219C20.8235 19.1966 20.7439 19.3022 20.7012 19.4241C20.6584 19.546 20.6546 19.6781 20.6902 19.8023C20.7258 19.9264 20.7991 20.0365 20.9 20.1171L23.2606 22.0056C23.3576 22.0833 23.4292 22.1882 23.4662 22.3068C23.5032 22.4254 23.5039 22.5524 23.4681 22.6714L22.3862 26.2781C22.3485 26.4038 22.3514 26.5381 22.3946 26.6621C22.4377 26.786 22.5189 26.8931 22.6265 26.9682C22.734 27.0433 22.8626 27.0825 22.9938 27.0803C23.125 27.078 23.2521 27.0345 23.3571 26.9557L26.127 24.8784C26.2349 24.7974 26.3662 24.7537 26.501 24.7537C26.6359 24.7537 26.7671 24.7974 26.875 24.8784L29.6449 26.9558C29.7498 27.0345 29.877 27.0781 30.0082 27.0804C30.1394 27.0826 30.268 27.0434 30.3756 26.9683C30.4832 26.8932 30.5644 26.7861 30.6075 26.6621C30.6507 26.5382 30.6536 26.4038 30.6159 26.2781L29.5339 22.6714C29.4982 22.5524 29.4989 22.4254 29.5359 22.3068C29.5728 22.1882 29.6444 22.0833 29.7415 22.0057L32.1021 20.1172C32.2029 20.0365 32.2762 19.9265 32.3119 19.8023C32.3475 19.6782 32.3436 19.546 32.3009 19.4242C32.2581 19.3023 32.1786 19.1967 32.0732 19.122C31.9679 19.0473 31.8419 19.0072 31.7127 19.0072H29.0085C28.8866 19.0072 28.7673 18.9714 28.6654 18.9043C28.5636 18.8371 28.4837 18.7416 28.4357 18.6294L27.0739 15.452C27.0259 15.3399 26.946 15.2443 26.8441 15.1772C26.7423 15.11 26.623 15.0742 26.501 15.0742C26.3791 15.0742 26.2598 15.11 26.1579 15.1772C26.0561 15.2443 25.9762 15.3398 25.9282 15.452Z" fill="#D1A132"/>
<path d="M14.7254 48.9587L14.6667 48.9579C14.2758 48.948 13.8949 48.8319 13.565 48.6221C13.235 48.4122 12.9684 48.1165 12.7937 47.7667L11.1485 44.4261L7.42081 44.6648C7.03824 44.6911 6.65573 44.613 6.31406 44.4389C5.97239 44.2648 5.68438 44.0013 5.48075 43.6763C5.27158 43.3455 5.15654 42.964 5.14798 42.5727C5.13942 42.1815 5.23767 41.7953 5.43216 41.4557L11.9543 30.1621C12.125 29.8668 12.406 29.6514 12.7355 29.5633C13.065 29.4751 13.416 29.5214 13.7114 29.6919C14.0068 29.8625 14.2223 30.1434 14.3107 30.4728C14.399 30.8023 14.3529 31.1533 14.1825 31.4488L8.06416 42.0453L11.2708 41.8393C11.6913 41.8145 12.1099 41.9133 12.4749 42.1237C12.8399 42.334 13.1354 42.6466 13.3248 43.0229L14.7504 45.9162L21.0129 35.0683C21.0973 34.9219 21.2098 34.7936 21.3438 34.6907C21.4779 34.5877 21.6309 34.5122 21.7941 34.4685C21.9573 34.4247 22.1276 34.4135 22.2952 34.4356C22.4627 34.4576 22.6243 34.5124 22.7707 34.597C22.917 34.6815 23.0453 34.794 23.1482 34.9281C23.251 35.0622 23.3264 35.2153 23.3701 35.3785C23.4138 35.5418 23.4249 35.7121 23.4028 35.8796C23.3806 36.0472 23.3257 36.2087 23.2411 36.355L16.585 47.8839C16.3974 48.2112 16.1265 48.483 15.7999 48.6717C15.4733 48.8605 15.1026 48.9595 14.7254 48.9587Z" fill="#D1A132"/>
<path d="M37.2491 48.9587C36.8709 48.9592 36.4993 48.8595 36.1721 48.6699C35.8449 48.4802 35.5737 48.2073 35.3861 47.8789L29.1103 37.0076C29.0257 36.8613 28.9707 36.6997 28.9486 36.5322C28.9264 36.3646 28.9375 36.1943 28.9812 36.0311C29.0249 35.8678 29.1003 35.7148 29.2032 35.5807C29.3061 35.4466 29.4343 35.334 29.5807 35.2495C29.727 35.165 29.8886 35.1102 30.0562 35.0881C30.2237 35.0661 30.394 35.0772 30.5572 35.121C30.7205 35.1648 30.8735 35.2403 31.0075 35.3432C31.1416 35.4462 31.254 35.5745 31.3385 35.7209L37.224 45.9146L38.643 43.0346C38.8287 42.6566 39.1215 42.3416 39.4849 42.1289C39.8484 41.9162 40.2664 41.8152 40.6869 41.8384L43.912 42.0462L38.7854 33.1643C38.6162 32.8689 38.571 32.5185 38.6596 32.1898C38.7483 31.8611 38.9636 31.5809 39.2584 31.4107C39.5532 31.2405 39.9035 31.194 40.2325 31.2815C40.5615 31.369 40.8424 31.5834 41.0136 31.8776L46.539 41.4506C46.7342 41.7894 46.8334 42.1751 46.8257 42.5662C46.818 42.9572 46.7038 43.3387 46.4954 43.6696C46.289 44.0002 45.9958 44.2677 45.6478 44.443C45.2998 44.6184 44.9103 44.6948 44.5218 44.6639L40.826 44.426L39.1842 47.7583C39.01 48.1096 38.7435 48.4069 38.4133 48.6182C38.083 48.8295 37.7014 48.9469 37.3095 48.9579L37.2491 48.9587Z" fill="#D1A132"/>
<path d="M26.5014 32.6601C24.2111 32.6601 21.9722 31.9809 20.0679 30.7085C18.1636 29.4361 16.6793 27.6275 15.8029 25.5115C14.9264 23.3956 14.6971 21.0672 15.1439 18.8209C15.5907 16.5746 16.6936 14.5112 18.3131 12.8917C19.9326 11.2722 21.996 10.1693 24.2423 9.72251C26.4886 9.27569 28.8169 9.50502 30.9329 10.3815C33.0489 11.2579 34.8574 12.7422 36.1299 14.6465C37.4023 16.5508 38.0815 18.7897 38.0815 21.08C38.078 24.1502 36.8568 27.0936 34.6859 29.2645C32.515 31.4354 29.5716 32.6566 26.5014 32.6601ZM26.5014 12.0733C24.7201 12.0733 22.9787 12.6016 21.4976 13.5912C20.0164 14.5809 18.862 15.9876 18.1803 17.6333C17.4986 19.2791 17.3203 21.09 17.6678 22.8372C18.0153 24.5843 18.8731 26.1891 20.1327 27.4487C21.3923 28.7084 22.9972 29.5662 24.7443 29.9137C26.4914 30.2612 28.3024 30.0828 29.9481 29.4011C31.5939 28.7194 33.0006 27.565 33.9902 26.0839C34.9799 24.6028 35.5081 22.8614 35.5081 21.08C35.5054 18.6922 34.5556 16.4029 32.8671 14.7144C31.1786 13.0259 28.8893 12.0761 26.5014 12.0733Z" fill="#D1A132"/>
</svg>
