<svg width="35" height="35" viewBox="0 0 35 35" fill="none" xmlns="http://www.w3.org/2000/svg">
<g clip-path="url(#clip0_311_15463)">
<path d="M10.6602 24.0854H11.755V25.1118H10.6602V24.0854Z" fill="white"/>
<path d="M12.8516 24.0854H13.9464V25.1118H12.8516V24.0854Z" fill="white"/>
<path d="M8.46875 24.0854H9.56357V25.1118H8.46875V24.0854Z" fill="white"/>
<path d="M5.15139 31.1339H15.039V30.1075H5.15139V19.0909H17.2628V20.7674H18.2892V15.6281L14.6357 11.9746H16.0996V6.56892H13.3625V2.15543C13.3625 0.966931 12.3956 0 11.2071 0C10.0186 0 9.05169 0.966931 9.05169 2.15543V5.43988H10.0781V2.15543C10.0781 1.53288 10.5846 1.02639 11.2071 1.02639C11.8297 1.02639 12.3361 1.53288 12.3361 2.15543V6.56892H6.31464V11.9746H7.77848L4.125 15.6281V33.871H13.9442V32.8446H5.15139V31.1339ZM5.15139 18.0645V16.3539H17.2628V18.0645H5.15139ZM9.53067 10.9482V7.59531H10.6939V10.9482H9.53067ZM11.7203 7.59531H12.8836V10.9482H11.7203V7.59531ZM15.0732 10.9482H13.9099V7.59531H15.0732V10.9482ZM7.34103 7.59531H8.50428V10.9482H7.34103V7.59531ZM13.1842 11.9746L16.537 15.3275H5.87719L9.23007 11.9746H13.1842Z" fill="white"/>
<path d="M25.4408 29.492C27.964 29.492 29.9854 28.3794 30.0702 28.332L30.8727 27.884L30.0702 27.4359C29.9854 27.3886 27.964 26.276 25.4408 26.276C25.2862 26.276 25.1336 26.2803 24.9831 26.2881C25.168 26.1303 25.351 25.9624 25.5299 25.7835C27.4166 23.8968 28.0961 21.5538 28.1241 21.455L28.3747 20.5707L27.4904 20.8213C27.3916 20.8493 25.0486 21.5288 23.1618 23.4155C22.9829 23.5945 22.815 23.7775 22.6573 23.9623C22.6651 23.8119 22.6694 23.6593 22.6694 23.5047C22.6694 20.9815 21.5568 18.96 21.5094 18.8752L21.0614 18.0728L20.6133 18.8752C20.566 18.96 19.4533 20.9815 19.4533 23.5047C19.4533 24.8498 19.7695 26.052 20.0719 26.8945C19.9644 26.8559 19.8509 26.8172 19.7321 26.7788C19.0014 26.4062 18.108 25.8471 17.3187 25.0578C16.3648 24.104 15.747 22.9981 15.3884 22.2111C16.1755 22.5697 17.2812 23.1875 18.2351 24.1413L18.9609 23.4155C17.0742 21.5288 14.7312 20.8494 14.6323 20.8213L13.748 20.5707L13.9986 21.455C14.0266 21.5538 14.7061 23.8968 16.5928 25.7835C16.7717 25.9624 16.9548 26.1304 17.1396 26.2881C16.9891 26.2802 16.8365 26.276 16.6819 26.276C14.1587 26.276 12.1373 27.3886 12.0525 27.4359L11.25 27.884L12.0525 28.332C12.1376 28.3794 14.159 29.492 16.6822 29.492C16.9235 29.492 17.1601 29.4817 17.391 29.4633C17.3529 29.4997 17.3149 29.5363 17.2773 29.5739C15.6894 31.1617 15.1172 33.1349 15.0936 33.2181L14.8431 34.1024L15.7273 33.8518C15.8105 33.8282 17.7837 33.256 19.3716 31.6681C19.8531 31.1867 20.2406 30.67 20.5483 30.1812V35.0003H21.5747V30.1812C21.8824 30.67 22.2699 31.1867 22.7513 31.6681C24.3392 33.256 26.3125 33.8282 26.3957 33.8518L27.2799 34.1024L27.0294 33.2181C27.0057 33.1349 26.4336 31.1617 24.8457 29.5739C24.0495 28.7777 23.1565 28.237 22.4534 27.8926C22.5585 27.844 22.6679 27.7914 22.7813 27.7346C23.503 27.5074 24.433 27.3023 25.4408 27.3023C26.6678 27.3023 27.7804 27.6062 28.5408 27.8839C27.7804 28.1616 26.6678 28.4656 25.4408 28.4656V29.492ZM23.8878 24.1413C24.8416 23.1875 25.9475 22.5696 26.7344 22.211C26.3759 22.9981 25.7581 24.1039 24.8042 25.0578C24.0143 25.8477 23.1206 26.4066 22.3897 26.7792C22.2713 26.8174 22.1582 26.8561 22.051 26.8945C22.0895 26.7874 22.1281 26.6743 22.1663 26.556C22.5389 25.8249 23.0977 24.9312 23.8878 24.1413ZM21.0622 20.4027C21.3397 21.1611 21.6431 22.2723 21.6431 23.5047C21.6431 24.5121 21.4382 25.442 21.2111 26.1636C21.147 26.2916 21.0878 26.4151 21.0341 26.5324C20.7643 25.7765 20.4798 24.698 20.4798 23.5047C20.4799 22.2767 20.7844 21.163 21.0622 20.4027ZM16.6822 28.4656C15.4552 28.4656 14.3426 28.1616 13.5822 27.884C14.3426 27.6063 15.4552 27.3024 16.6822 27.3024C17.6897 27.3024 18.6196 27.5073 19.3411 27.7343C19.4547 27.7912 19.5644 27.8439 19.6696 27.8926C19.6068 27.9234 19.542 27.9562 19.4762 27.9902C18.7375 28.2339 17.7536 28.4656 16.6822 28.4656ZM18.6458 30.9424C17.9428 31.6454 17.1389 32.1272 16.5129 32.4325C16.8182 31.8065 17.3 31.0027 18.003 30.2996C18.6125 29.6902 19.2974 29.2474 19.8768 28.9413C19.9579 28.9139 20.036 28.8864 20.1113 28.859C19.805 29.4776 19.3307 30.2575 18.6458 30.9424ZM25.6101 32.4325C24.9841 32.1272 24.1803 31.6454 23.4772 30.9424C22.7741 30.2393 22.2923 29.4355 21.987 28.8095C22.6131 29.1149 23.4169 29.5966 24.1199 30.2996C24.823 31.0027 25.3048 31.8066 25.6101 32.4325Z" fill="white"/>
</g>
<defs>
<clipPath id="clip0_311_15463">
<rect width="35" height="35" fill="white"/>
</clipPath>
</defs>
</svg>
