<svg width="36" height="36" viewBox="0 0 36 36" fill="none" xmlns="http://www.w3.org/2000/svg">
<path d="M32.2368 23.2647C32.2841 23.0755 32.1895 22.8863 32.0003 22.7917C31.8111 22.6971 31.6219 22.6971 31.48 22.839L30.6287 23.5012C30.8652 22.3187 30.9125 21.0417 30.7706 19.6701C30.7706 19.4809 30.6287 19.2917 30.4395 19.2444C30.3449 19.2444 30.2976 19.2444 30.203 19.2444C30.203 18.0147 30.0138 16.8322 29.6827 15.6971C29.6354 15.5552 29.4936 15.4133 29.3517 15.366C29.1625 15.3187 29.0206 15.366 28.8787 15.5079C28.8314 15.0822 28.926 14.6566 29.0679 14.1836C29.1152 13.9944 29.0679 13.8052 28.926 13.6633C28.7841 13.5214 28.5476 13.5214 28.4057 13.616C27.9327 13.8998 27.4598 14.2782 27.0814 14.7985C27.0341 14.7512 26.9395 14.7039 26.8922 14.6566C26.703 14.6093 26.5611 14.6566 26.4192 14.7512C25.3787 15.7917 24.5273 17.0214 24.0071 18.2039L23.7706 17.4944C23.7233 17.3052 23.5341 17.1633 23.3449 17.1633C23.1557 17.1633 22.9665 17.2579 22.8719 17.4471C22.3044 18.8187 22.1152 20.8525 22.1625 22.2714C22.0679 22.2714 22.0206 22.2714 21.926 22.3187C21.7368 22.4133 21.6422 22.5552 21.6422 22.7917C21.6895 23.4539 21.7368 24.2106 21.9733 24.9201C21.8787 24.9201 21.8314 24.9674 21.7368 25.062C21.6422 25.1566 21.5949 25.2985 21.5949 25.4403C21.2165 25.3458 20.8382 25.2985 20.5071 25.2512C20.3179 25.2512 20.1287 25.3458 20.0341 25.4876C19.9868 25.5349 19.9868 25.5822 19.9868 25.6295C19.8449 25.6295 19.703 25.6295 19.5611 25.6768C20.2233 22.1295 20.176 19.9066 19.3246 18.8187C18.6152 17.8728 17.4327 17.3052 16.2976 16.9268C16.6287 16.5958 16.8179 16.1228 16.8179 15.6025V11.7241C16.8179 10.7782 16.1557 9.97413 15.2098 9.78495C14.5003 8.7917 14.2165 7.56197 14.3111 6.33224L14.453 4.58224V4.53495C14.4057 3.11603 13.2233 1.93359 11.8044 1.93359C10.3854 1.93359 9.20301 3.11603 9.15572 4.53495V4.58224L9.29761 6.33224C9.3922 7.56197 9.06112 8.7917 8.39896 9.78495C7.50031 9.97413 6.83815 10.7782 6.83815 11.7241V15.6025C6.83815 16.1228 7.02734 16.5958 7.35842 16.9268C6.22328 17.3052 5.04085 17.8728 4.33139 18.8187C2.3922 21.6093 5.70301 31.7782 6.08139 32.9133C6.12869 33.1025 6.31788 33.2444 6.50707 33.2444H17.2909C17.48 33.2444 17.6692 33.1025 17.7165 32.9133C17.7165 32.9133 17.7638 32.8187 17.7638 32.7241C18.7098 32.866 19.5611 32.866 20.4125 32.7714C20.4125 32.866 20.4125 32.9133 20.4598 33.0079C20.5544 33.1498 20.6963 33.2444 20.8854 33.2444H20.98C22.7773 32.9133 23.9125 32.4876 24.6219 31.7782L24.7165 31.6836C24.7638 31.589 25.0476 31.4471 25.1895 31.3052C25.5206 31.0687 25.9463 30.8322 26.23 30.4539H26.2773C26.5611 30.9268 26.9868 31.3525 27.4598 31.6836C27.7436 31.8728 28.1692 32.2512 28.3111 32.6295C28.3584 32.8187 28.5476 32.9606 28.7368 32.9606C28.7841 32.9606 28.8314 32.9606 28.8787 32.9133C29.1152 32.8187 29.2571 32.5349 29.1625 32.2985C28.9733 31.7782 28.5476 31.3052 27.98 30.8795C27.7436 30.6903 27.5071 30.5012 27.3179 30.2647C28.8314 29.7444 31.6219 27.8525 32.2368 23.2647ZM10.3381 6.33224L10.1963 4.62954C10.2436 3.73089 11.0003 2.97413 11.899 2.97413C12.7976 2.97413 13.5544 3.73089 13.6017 4.62954L13.4598 6.33224C13.3652 7.56197 13.6017 8.7444 14.1692 9.83224H9.62869C10.1963 8.7444 10.4327 7.56197 10.3381 6.33224ZM7.87869 11.7714C7.87869 11.2039 8.35166 10.7309 8.91923 10.7309H14.9733C15.5409 10.7309 16.0138 11.2039 16.0138 11.7714V15.6498C16.0138 16.1701 15.5881 16.5958 15.0679 16.6431H15.0206H14.9733H8.87193H8.82464H8.77734C8.25707 16.5958 7.83139 16.1701 7.83139 15.6498V11.7714H7.87869ZM12.5138 17.6363V26.2917C12.5138 26.6228 12.23 26.9066 11.899 26.9066C11.5679 26.9066 11.2841 26.6228 11.2841 26.2917V17.6363H12.5138ZM16.9598 32.2985H6.88545C5.84491 29.0822 3.76382 21.3728 5.18274 19.4336C5.79761 18.6295 7.07464 17.9674 8.77734 17.6363H8.87193H10.3381V26.2917C10.3381 27.1431 11.0476 27.8525 11.899 27.8525C12.7503 27.8525 13.4598 27.1431 13.4598 26.2917V17.6363H14.926H15.0679C16.7706 18.0147 18.0476 18.6295 18.6625 19.4336C19.0409 19.9539 19.5138 21.4201 18.6625 25.866C18.1895 25.9606 17.6692 26.1025 17.149 26.339C16.9598 26.3863 16.8652 26.5755 16.8179 26.7647C16.8179 26.812 16.8179 26.9066 16.8652 26.9539C15.8719 27.2849 14.7841 27.9471 13.8382 28.7985C13.6963 28.9403 13.649 29.0822 13.6963 29.2714C13.6963 29.3187 13.7436 29.366 13.7436 29.4133C13.3652 29.6971 13.0341 30.0282 12.7976 30.3593C12.703 30.5485 12.703 30.7376 12.7976 30.9268C12.9395 31.0687 13.1287 31.1633 13.3179 31.116C13.6017 31.0214 13.8854 30.9741 14.1692 31.0214C14.1219 31.116 14.1219 31.2106 14.1219 31.3052C14.1692 31.4944 14.2638 31.589 14.4057 31.6836C15.2098 31.9674 16.0611 32.1566 16.9598 32.2512C16.9598 32.2039 16.9598 32.2512 16.9598 32.2985ZM24.6692 30.5012C24.3854 30.6903 24.1017 30.8795 23.9125 31.116C23.4395 31.5417 22.7773 31.8255 22.0679 32.0147C22.0679 31.9674 22.0206 31.8728 22.0206 31.8255C21.926 31.6363 21.6895 31.5417 21.5003 31.589C20.649 31.8255 19.7976 31.9201 18.8044 31.8728C18.8044 31.7782 18.8044 31.6836 18.8044 31.6363C18.7571 31.4471 18.5679 31.3052 18.3314 31.3052C17.3382 31.3525 16.3922 31.2579 15.4936 31.0214C15.5409 30.9268 15.5881 30.8322 15.5881 30.6903C15.5881 30.5485 15.4463 30.4066 15.3044 30.312C15.0206 30.1701 14.7368 30.0755 14.4057 30.0755C14.5949 29.9809 14.7841 29.839 14.9733 29.7444C15.1625 29.6498 15.2571 29.4606 15.2571 29.2714C15.2571 29.1295 15.1625 29.0349 15.1152 28.9404C16.0611 28.2309 17.149 27.7579 18.0003 27.6633C18.1895 27.616 18.3787 27.4741 18.426 27.2849C18.426 27.1904 18.426 27.0485 18.3787 26.9539C19.3719 26.6701 20.176 26.6228 20.8382 26.7647C21.0273 26.812 21.2165 26.7174 21.3584 26.5282C21.4057 26.4809 21.4057 26.4336 21.4057 26.3863C21.8314 26.4809 22.1625 26.6228 22.399 26.812C22.7773 27.3795 23.1557 27.8998 23.5814 28.3255C21.8787 28.0417 19.5611 28.0417 17.0071 29.0822C16.7706 29.1768 16.676 29.4606 16.7706 29.6971C16.8652 29.8863 17.0071 29.9809 17.1963 29.9809C17.2436 29.9809 17.3382 29.9809 17.3854 29.9336C20.5544 28.562 23.3449 29.0349 25.1422 29.6498C25.2368 29.7444 25.3314 29.7917 25.426 29.839C25.2368 30.1701 24.953 30.3593 24.6692 30.5012ZM26.8449 29.5079C26.7976 29.4133 26.7503 29.3187 26.703 29.2241C26.0882 27.2849 25.3314 23.4539 27.4125 19.1498C27.5071 18.9133 27.4125 18.6295 27.176 18.5349C26.9395 18.4404 26.6557 18.5349 26.5611 18.7714C24.5273 22.9809 25.0003 26.812 25.6152 28.9876C26.23 31.1633 25.6152 28.9876 25.5679 28.9876C24.6219 28.2782 23.8179 27.4268 23.1084 26.4336C23.203 26.3863 23.2976 26.339 23.3922 26.2444C23.5341 26.0552 23.4868 25.8187 23.3449 25.6295C22.9665 25.2512 22.73 24.6836 22.5882 23.8795C22.6827 23.8795 22.73 23.8795 22.8246 23.8322C23.0138 23.7376 23.1084 23.5485 23.0611 23.3593C22.8719 22.3187 22.9192 20.6633 23.203 19.2917L23.4395 19.9539C23.5341 20.1431 23.7233 20.2849 23.9125 20.2849C24.149 20.2849 24.2909 20.0958 24.3382 19.9066C24.5273 18.7714 25.2368 17.3998 26.2773 16.2174C26.3246 16.3593 26.4665 16.5012 26.6557 16.5012C26.8449 16.5485 27.0341 16.4539 27.1287 16.2647C27.3179 15.8863 27.5544 15.6025 27.7909 15.3187C27.7909 15.7917 27.8854 16.2647 28.0746 16.7376C28.1219 16.8795 28.2638 16.9741 28.4057 17.0214C28.5476 17.0687 28.7368 16.9741 28.8314 16.8795C29.1152 18.1093 29.1625 19.3863 29.0679 20.6633C29.0679 20.8998 29.1625 21.089 29.399 21.1363C29.5409 21.1836 29.6827 21.1836 29.7773 21.089C29.7773 22.366 29.6354 23.5485 29.2571 24.6363C29.2098 24.8255 29.2571 25.062 29.4463 25.1566C29.6354 25.2985 29.8246 25.2512 30.0138 25.1566L31.0071 24.3998C30.203 27.8052 27.8382 29.1768 26.8449 29.5079Z" fill="white"/>
<path d="M8.35132 19.1967C7.40537 19.4805 6.69591 19.8589 6.36483 20.2373C6.31753 20.2846 6.31753 20.3319 6.27024 20.3792C5.70267 21.7035 6.64862 26.6224 7.78375 30.5481C7.83105 30.7373 8.02024 30.8792 8.25672 30.8792H8.39862C8.6351 30.7846 8.77699 30.5481 8.7297 30.3116C7.35808 25.7711 6.8378 21.8454 7.12159 20.8521C7.31078 20.7103 7.78375 20.3792 8.58781 20.1427C8.82429 20.0481 8.96618 19.8116 8.91889 19.5751C8.87159 19.244 8.58781 19.1021 8.35132 19.1967Z" fill="white"/>
<path d="M9.77034 15.2701C10.0541 15.2701 10.2433 15.0809 10.2433 14.7971V13.0944H14.0744C14.3582 13.0944 14.5474 12.9052 14.5474 12.6214C14.5474 12.3376 14.3582 12.1484 14.0744 12.1484H9.77034C9.48655 12.1484 9.29736 12.3376 9.29736 12.6214V14.7971C9.29736 15.0809 9.48655 15.2701 9.77034 15.2701Z" fill="white"/>
</svg>
