<svg width="36" height="36" viewBox="0 0 36 36" fill="none" xmlns="http://www.w3.org/2000/svg">
<path d="M32.4092 23.4053C32.4565 23.2161 32.3619 23.0269 32.1727 22.9323C31.9835 22.8377 31.7943 22.8377 31.6524 22.9796L30.8011 23.6418C31.0375 22.4594 31.0848 21.1823 30.9429 19.8107C30.9429 19.6215 30.8011 19.4323 30.6119 19.385C30.5173 19.385 30.47 19.385 30.3754 19.385C30.3754 18.1553 30.1862 16.9729 29.8551 15.8377C29.8078 15.6958 29.6659 15.5539 29.524 15.5067C29.3348 15.4594 29.1929 15.5067 29.0511 15.6485C29.0038 15.2229 29.0984 14.7972 29.2402 14.3242C29.2875 14.135 29.2402 13.9458 29.0984 13.8039C28.9565 13.6621 28.72 13.6621 28.5781 13.7567C28.1051 14.0404 27.6321 14.4188 27.2538 14.9391C27.2065 14.8918 27.1119 14.8445 27.0646 14.7972C26.8754 14.7499 26.7335 14.7972 26.5916 14.8918C25.5511 15.9323 24.6997 17.1621 24.1794 18.3445L23.9429 17.635C23.8956 17.4458 23.7065 17.3039 23.5173 17.3039C23.3281 17.3039 23.1389 17.3985 23.0443 17.5877C22.4767 18.9594 22.2875 20.9931 22.3348 22.4121C22.2402 22.4121 22.1929 22.4121 22.0984 22.4594C21.9092 22.5539 21.8146 22.6958 21.8146 22.9323C21.8619 23.5945 21.9092 24.3512 22.1456 25.0607C22.0511 25.0607 22.0038 25.108 21.9092 25.2026C21.8146 25.2972 21.7673 25.4391 21.7673 25.581C21.3889 25.4864 21.0105 25.4391 20.6794 25.3918C20.4902 25.3918 20.3011 25.4864 20.2065 25.6283C20.1592 25.6756 20.1592 25.7229 20.1592 25.7702C20.0173 25.7702 19.8754 25.7702 19.7335 25.8175C20.3956 22.2702 20.3484 20.0472 19.497 18.9594C18.7875 18.0134 17.6051 17.4458 16.47 17.0675C16.8011 16.7364 16.9902 16.2634 16.9902 15.7431V11.8648C16.9902 10.9188 16.3281 10.1148 15.3821 9.92557C14.6727 8.93233 14.3889 7.7026 14.4835 6.47287L14.6254 4.72287V4.67557C14.5781 3.25665 13.3956 2.07422 11.9767 2.07422C10.5578 2.07422 9.37538 3.25665 9.32808 4.67557V4.72287L9.46997 6.47287C9.56457 7.7026 9.23349 8.93233 8.57132 9.92557C7.67268 10.1148 7.01051 10.9188 7.01051 11.8648V15.7431C7.01051 16.2634 7.1997 16.7364 7.53078 17.0675C6.39565 17.4458 5.21322 18.0134 4.50376 18.9594C2.56457 21.7499 5.87538 31.9188 6.25376 33.0539C6.30105 33.2431 6.49024 33.385 6.67943 33.385H17.4632C17.6524 33.385 17.8416 33.2431 17.8889 33.0539C17.8889 33.0539 17.9362 32.9594 17.9362 32.8648C18.8821 33.0066 19.7335 33.0066 20.5848 32.9121C20.5848 33.0066 20.5848 33.0539 20.6321 33.1485C20.7267 33.2904 20.8686 33.385 21.0578 33.385H21.1524C22.9497 33.0539 24.0848 32.6283 24.7943 31.9188L24.8889 31.8242C24.9362 31.7296 25.22 31.5877 25.3619 31.4458C25.6929 31.2094 26.1186 30.9729 26.4024 30.5945H26.4497C26.7335 31.0675 27.1592 31.4931 27.6321 31.8242C27.9159 32.0134 28.3416 32.3918 28.4835 32.7702C28.5308 32.9594 28.72 33.1012 28.9092 33.1012C28.9565 33.1012 29.0038 33.1012 29.0511 33.0539C29.2875 32.9594 29.4294 32.6756 29.3348 32.4391C29.1456 31.9188 28.72 31.4458 28.1524 31.0202C27.9159 30.831 27.6794 30.6418 27.4902 30.4053C29.0038 29.885 31.7943 27.9931 32.4092 23.4053ZM10.5105 6.47287L10.3686 4.77016C10.4159 3.87152 11.1727 3.11476 12.0713 3.11476C12.97 3.11476 13.7267 3.87152 13.774 4.77016L13.6321 6.47287C13.5375 7.7026 13.774 8.88503 14.3416 9.97287H9.80105C10.3686 8.88503 10.6051 7.7026 10.5105 6.47287ZM8.05105 11.9121C8.05105 11.3445 8.52403 10.8715 9.09159 10.8715H15.1456C15.7132 10.8715 16.1862 11.3445 16.1862 11.9121V15.7904C16.1862 16.3107 15.7605 16.7364 15.2402 16.7837H15.1929H15.1456H9.0443H8.997H8.9497C8.42943 16.7364 8.00376 16.3107 8.00376 15.7904V11.9121H8.05105ZM12.6862 17.7769V26.4323C12.6862 26.7634 12.4024 27.0472 12.0713 27.0472C11.7402 27.0472 11.4565 26.7634 11.4565 26.4323V17.7769H12.6862ZM17.1321 32.4391H7.05781C6.01727 29.2229 3.93619 21.5134 5.35511 19.5742C5.96997 18.7702 7.247 18.108 8.9497 17.7769H9.0443H10.5105V26.4323C10.5105 27.2837 11.22 27.9931 12.0713 27.9931C12.9227 27.9931 13.6321 27.2837 13.6321 26.4323V17.7769H15.0984H15.2402C16.9429 18.1553 18.22 18.7702 18.8348 19.5742C19.2132 20.0945 19.6862 21.5607 18.8348 26.0067C18.3619 26.1012 17.8416 26.2431 17.3213 26.4796C17.1321 26.5269 17.0375 26.7161 16.9902 26.9053C16.9902 26.9526 16.9902 27.0472 17.0375 27.0945C16.0443 27.4256 14.9565 28.0877 14.0105 28.9391C13.8686 29.081 13.8213 29.2229 13.8686 29.4121C13.8686 29.4594 13.9159 29.5067 13.9159 29.5539C13.5375 29.8377 13.2065 30.1688 12.97 30.4999C12.8754 30.6891 12.8754 30.8783 12.97 31.0675C13.1119 31.2094 13.3011 31.3039 13.4902 31.2567C13.774 31.1621 14.0578 31.1148 14.3416 31.1621C14.2943 31.2567 14.2943 31.3512 14.2943 31.4458C14.3416 31.635 14.4362 31.7296 14.5781 31.8242C15.3821 32.108 16.2335 32.2972 17.1321 32.3918C17.1321 32.3445 17.1321 32.3918 17.1321 32.4391ZM24.8416 30.6418C24.5578 30.831 24.274 31.0202 24.0848 31.2567C23.6119 31.6823 22.9497 31.9661 22.2402 32.1553C22.2402 32.108 22.1929 32.0134 22.1929 31.9661C22.0984 31.7769 21.8619 31.6823 21.6727 31.7296C20.8213 31.9661 19.97 32.0607 18.9767 32.0134C18.9767 31.9188 18.9767 31.8242 18.9767 31.7769C18.9294 31.5877 18.7402 31.4458 18.5038 31.4458C17.5105 31.4931 16.5646 31.3985 15.6659 31.1621C15.7132 31.0675 15.7605 30.9729 15.7605 30.831C15.7605 30.6891 15.6186 30.5472 15.4767 30.4526C15.1929 30.3107 14.9092 30.2161 14.5781 30.2161C14.7673 30.1215 14.9565 29.9796 15.1456 29.885C15.3348 29.7904 15.4294 29.6012 15.4294 29.4121C15.4294 29.2702 15.3348 29.1756 15.2875 29.081C16.2335 28.3715 17.3213 27.8985 18.1727 27.8039C18.3619 27.7567 18.5511 27.6148 18.5984 27.4256C18.5984 27.331 18.5984 27.1891 18.5511 27.0945C19.5443 26.8107 20.3484 26.7634 21.0105 26.9053C21.1997 26.9526 21.3889 26.858 21.5308 26.6688C21.5781 26.6215 21.5781 26.5742 21.5781 26.5269C22.0038 26.6215 22.3348 26.7634 22.5713 26.9526C22.9497 27.5202 23.3281 28.0404 23.7538 28.4661C22.0511 28.1823 19.7335 28.1823 17.1794 29.2229C16.9429 29.3175 16.8484 29.6012 16.9429 29.8377C17.0375 30.0269 17.1794 30.1215 17.3686 30.1215C17.4159 30.1215 17.5105 30.1215 17.5578 30.0742C20.7267 28.7026 23.5173 29.1756 25.3146 29.7904C25.4092 29.885 25.5038 29.9323 25.5984 29.9796C25.4092 30.3107 25.1254 30.4999 24.8416 30.6418ZM27.0173 29.6485C26.97 29.5539 26.9227 29.4594 26.8754 29.3648C26.2605 27.4256 25.5038 23.5945 27.5848 19.2904C27.6794 19.0539 27.5848 18.7702 27.3484 18.6756C27.1119 18.581 26.8281 18.6756 26.7335 18.9121C24.6997 23.1215 25.1727 26.9526 25.7875 29.1283C26.4024 31.3039 25.7875 29.1283 25.7402 29.1283C24.7943 28.4188 23.9902 27.5675 23.2808 26.5742C23.3754 26.5269 23.47 26.4796 23.5646 26.385C23.7065 26.1958 23.6592 25.9594 23.5173 25.7702C23.1389 25.3918 22.9024 24.8242 22.7605 24.0202C22.8551 24.0202 22.9024 24.0202 22.997 23.9729C23.1862 23.8783 23.2808 23.6891 23.2335 23.4999C23.0443 22.4594 23.0916 20.8039 23.3754 19.4323L23.6119 20.0945C23.7065 20.2837 23.8956 20.4256 24.0848 20.4256C24.3213 20.4256 24.4632 20.2364 24.5105 20.0472C24.6997 18.9121 25.4092 17.5404 26.4497 16.358C26.497 16.4999 26.6389 16.6418 26.8281 16.6418C27.0173 16.6891 27.2065 16.5945 27.3011 16.4053C27.4902 16.0269 27.7267 15.7431 27.9632 15.4594C27.9632 15.9323 28.0578 16.4053 28.247 16.8783C28.2943 17.0202 28.4362 17.1148 28.5781 17.1621C28.72 17.2094 28.9092 17.1148 29.0038 17.0202C29.2875 18.2499 29.3348 19.5269 29.2402 20.8039C29.2402 21.0404 29.3348 21.2296 29.5713 21.2769C29.7132 21.3242 29.8551 21.3242 29.9497 21.2296C29.9497 22.5067 29.8078 23.6891 29.4294 24.7769C29.3821 24.9661 29.4294 25.2026 29.6186 25.2972C29.8078 25.4391 29.997 25.3918 30.1862 25.2972L31.1794 24.5404C30.3754 27.9458 28.0105 29.3175 27.0173 29.6485Z" fill="white"/>
<path d="M8.52368 19.3374C7.57774 19.6211 6.86828 19.9995 6.5372 20.3779C6.4899 20.4252 6.4899 20.4725 6.4426 20.5198C5.87503 21.8441 6.82098 26.763 7.95611 30.6887C8.00341 30.8779 8.1926 31.0198 8.42909 31.0198H8.57098C8.80747 30.9252 8.94936 30.6887 8.90206 30.4522C7.53044 25.9117 7.01017 21.986 7.29395 20.9928C7.48314 20.8509 7.95611 20.5198 8.76017 20.2833C8.99665 20.1887 9.13855 19.9522 9.09125 19.7157C9.04395 19.3847 8.76017 19.2428 8.52368 19.3374Z" fill="white"/>
<path d="M9.9427 15.4107C10.2265 15.4107 10.4157 15.2215 10.4157 14.9377V13.235H14.2468C14.5305 13.235 14.7197 13.0458 14.7197 12.762C14.7197 12.4783 14.5305 12.2891 14.2468 12.2891H9.9427C9.65892 12.2891 9.46973 12.4783 9.46973 12.762V14.9377C9.46973 15.2215 9.65892 15.4107 9.9427 15.4107Z" fill="white"/>
</svg>
