<svg width="36" height="36" viewBox="0 0 36 36" fill="none" xmlns="http://www.w3.org/2000/svg">
<path d="M32.4096 23.628C32.4569 23.4388 32.3624 23.2496 32.1732 23.155C31.984 23.0604 31.7948 23.0604 31.6529 23.2023L30.8015 23.8644C31.038 22.682 31.0853 21.405 30.9434 20.0334C30.9434 19.8442 30.8015 19.655 30.6124 19.6077C30.5178 19.6077 30.4705 19.6077 30.3759 19.6077C30.3759 18.378 30.1867 17.1955 29.8556 16.0604C29.8083 15.9185 29.6664 15.7766 29.5245 15.7293C29.3353 15.682 29.1934 15.7293 29.0515 15.8712C29.0042 15.4455 29.0988 15.0198 29.2407 14.5469C29.288 14.3577 29.2407 14.1685 29.0988 14.0266C28.9569 13.8847 28.7205 13.8847 28.5786 13.9793C28.1056 14.2631 27.6326 14.6415 27.2542 15.1617C27.2069 15.1144 27.1124 15.0671 27.0651 15.0198C26.8759 14.9726 26.734 15.0198 26.5921 15.1144C25.5515 16.155 24.7002 17.3847 24.1799 18.5671L23.9434 17.8577C23.8961 17.6685 23.7069 17.5266 23.5178 17.5266C23.3286 17.5266 23.1394 17.6212 23.0448 17.8104C22.4772 19.182 22.288 21.2158 22.3353 22.6347C22.2407 22.6347 22.1934 22.6347 22.0988 22.682C21.9096 22.7766 21.8151 22.9185 21.8151 23.155C21.8624 23.8171 21.9097 24.5739 22.1461 25.2834C22.0515 25.2834 22.0042 25.3307 21.9097 25.4253C21.8151 25.5198 21.7678 25.6617 21.7678 25.8036C21.3894 25.709 21.011 25.6617 20.6799 25.6144C20.4907 25.6144 20.3015 25.709 20.2069 25.8509C20.1596 25.8982 20.1597 25.9455 20.1597 25.9928C20.0178 25.9928 19.8759 25.9928 19.734 26.0401C20.3961 22.4928 20.3488 20.2698 19.4975 19.182C18.788 18.2361 17.6056 17.6685 16.4705 17.2901C16.8015 16.959 16.9907 16.4861 16.9907 15.9658V12.0874C16.9907 11.1415 16.3286 10.3374 15.3826 10.1482C14.6732 9.15498 14.3894 7.92525 14.484 6.69552L14.6259 4.94552V4.89823C14.5786 3.47931 13.3961 2.29688 11.9772 2.29688C10.5583 2.29688 9.37587 3.47931 9.32857 4.89823V4.94552L9.47046 6.69552C9.56506 7.92525 9.23397 9.15498 8.57181 10.1482C7.67316 10.3374 7.011 11.1415 7.011 12.0874V15.9658C7.011 16.4861 7.20019 16.959 7.53127 17.2901C6.39614 17.6685 5.2137 18.2361 4.50424 19.182C2.56505 21.9726 5.87587 32.1415 6.25424 33.2766C6.30154 33.4658 6.49073 33.6077 6.67992 33.6077H17.4637C17.6529 33.6077 17.8421 33.4658 17.8894 33.2766C17.8894 33.2766 17.9367 33.182 17.9367 33.0874C18.8826 33.2293 19.734 33.2293 20.5853 33.1347C20.5853 33.2293 20.5853 33.2766 20.6326 33.3712C20.7272 33.5131 20.8691 33.6077 21.0583 33.6077H21.1529C22.9502 33.2766 24.0853 32.8509 24.7948 32.1415L24.8894 32.0469C24.9367 31.9523 25.2205 31.8104 25.3624 31.6685C25.6934 31.432 26.1191 31.1955 26.4029 30.8171H26.4502C26.734 31.2901 27.1597 31.7158 27.6326 32.0469C27.9164 32.2361 28.3421 32.6144 28.484 32.9928C28.5313 33.182 28.7205 33.3239 28.9097 33.3239C28.9569 33.3239 29.0042 33.3239 29.0515 33.2766C29.288 33.182 29.4299 32.8982 29.3353 32.6617C29.1461 32.1415 28.7205 31.6685 28.1529 31.2428C27.9164 31.0536 27.6799 30.8644 27.4907 30.628C29.0042 30.1077 31.7948 28.2158 32.4096 23.628ZM10.511 6.69552L10.3691 4.99282C10.4164 4.09417 11.1732 3.33742 12.0718 3.33742C12.9705 3.33742 13.7272 4.09417 13.7745 4.99282L13.6326 6.69552C13.538 7.92525 13.7745 9.10769 14.3421 10.1955H9.80154C10.3691 9.10769 10.6056 7.92525 10.511 6.69552ZM8.05154 12.1347C8.05154 11.5671 8.52451 11.0942 9.09208 11.0942H15.1461C15.7137 11.0942 16.1867 11.5671 16.1867 12.1347V16.0131C16.1867 16.5334 15.761 16.959 15.2407 17.0063H15.1934H15.1461H9.04479H8.99749H8.95019C8.42992 16.959 8.00424 16.5334 8.00424 16.0131V12.1347H8.05154ZM12.6867 17.9996V26.655C12.6867 26.9861 12.4029 27.2698 12.0718 27.2698C11.7407 27.2698 11.4569 26.9861 11.4569 26.655V17.9996H12.6867ZM17.1326 32.6617H7.0583C6.01776 29.4455 3.93668 21.7361 5.3556 19.7969C5.97046 18.9928 7.24749 18.3307 8.95019 17.9996H9.04479H10.511V26.655C10.511 27.5063 11.2205 28.2158 12.0718 28.2158C12.9232 28.2158 13.6326 27.5063 13.6326 26.655V17.9996H15.0988H15.2407C16.9434 18.378 18.2205 18.9928 18.8353 19.7969C19.2137 20.3171 19.6867 21.7834 18.8353 26.2293C18.3624 26.3239 17.8421 26.4658 17.3218 26.7023C17.1326 26.7496 17.038 26.9388 16.9907 27.128C16.9907 27.1753 16.9907 27.2698 17.038 27.3171C16.0448 27.6482 14.9569 28.3104 14.011 29.1617C13.8691 29.3036 13.8218 29.4455 13.8691 29.6347C13.8691 29.682 13.9164 29.7293 13.9164 29.7766C13.538 30.0604 13.2069 30.3915 12.9705 30.7226C12.8759 30.9117 12.8759 31.1009 12.9705 31.2901C13.1124 31.432 13.3015 31.5266 13.4907 31.4793C13.7745 31.3847 14.0583 31.3374 14.3421 31.3847C14.2948 31.4793 14.2948 31.5739 14.2948 31.6685C14.3421 31.8577 14.4367 31.9523 14.5786 32.0469C15.3826 32.3307 16.234 32.5198 17.1326 32.6144C17.1326 32.5671 17.1326 32.6144 17.1326 32.6617ZM24.8421 30.8644C24.5583 31.0536 24.2745 31.2428 24.0853 31.4793C23.6124 31.905 22.9502 32.1888 22.2407 32.378C22.2407 32.3307 22.1934 32.2361 22.1934 32.1888C22.0988 31.9996 21.8624 31.905 21.6732 31.9523C20.8218 32.1888 19.9705 32.2834 18.9772 32.2361C18.9772 32.1415 18.9772 32.0469 18.9772 31.9996C18.9299 31.8104 18.7407 31.6685 18.5042 31.6685C17.511 31.7158 16.5651 31.6212 15.6664 31.3847C15.7137 31.2901 15.761 31.1955 15.761 31.0536C15.761 30.9117 15.6191 30.7698 15.4772 30.6753C15.1934 30.5334 14.9096 30.4388 14.5786 30.4388C14.7678 30.3442 14.9569 30.2023 15.1461 30.1077C15.3353 30.0131 15.4299 29.8239 15.4299 29.6347C15.4299 29.4928 15.3353 29.3982 15.288 29.3036C16.234 28.5942 17.3218 28.1212 18.1732 28.0266C18.3624 27.9793 18.5515 27.8374 18.5988 27.6482C18.5988 27.5536 18.5988 27.4117 18.5515 27.3171C19.5448 27.0334 20.3488 26.9861 21.011 27.128C21.2002 27.1753 21.3894 27.0807 21.5313 26.8915C21.5786 26.8442 21.5786 26.7969 21.5786 26.7496C22.0042 26.8442 22.3353 26.9861 22.5718 27.1753C22.9502 27.7428 23.3286 28.2631 23.7542 28.6888C22.0515 28.405 19.734 28.405 17.1799 29.4455C16.9434 29.5401 16.8488 29.8239 16.9434 30.0604C17.038 30.2496 17.1799 30.3442 17.3691 30.3442C17.4164 30.3442 17.511 30.3442 17.5583 30.2969C20.7272 28.9253 23.5178 29.3982 25.3151 30.0131C25.4096 30.1077 25.5042 30.155 25.5988 30.2023C25.4097 30.5334 25.1259 30.7225 24.8421 30.8644ZM27.0178 29.8712C26.9705 29.7766 26.9232 29.682 26.8759 29.5874C26.261 27.6482 25.5042 23.8171 27.5853 19.5131C27.6799 19.2766 27.5853 18.9928 27.3488 18.8982C27.1124 18.8036 26.8286 18.8982 26.734 19.1347C24.7002 23.3442 25.1732 27.1753 25.788 29.3509C26.4029 31.5266 25.788 29.3509 25.7407 29.3509C24.7948 28.6415 23.9907 27.7901 23.2813 26.7969C23.3759 26.7496 23.4705 26.7023 23.5651 26.6077C23.7069 26.4185 23.6596 26.182 23.5178 25.9928C23.1394 25.6144 22.9029 25.0469 22.761 24.2428C22.8556 24.2428 22.9029 24.2428 22.9975 24.1955C23.1867 24.1009 23.2813 23.9117 23.234 23.7225C23.0448 22.682 23.0921 21.0266 23.3759 19.655L23.6124 20.3171C23.7069 20.5063 23.8961 20.6482 24.0853 20.6482C24.3218 20.6482 24.4637 20.459 24.511 20.2698C24.7002 19.1347 25.4097 17.7631 26.4502 16.5807C26.4975 16.7226 26.6394 16.8644 26.8286 16.8644C27.0178 16.9117 27.2069 16.8171 27.3015 16.628C27.4907 16.2496 27.7272 15.9658 27.9637 15.682C27.9637 16.155 28.0583 16.628 28.2475 17.1009C28.2948 17.2428 28.4367 17.3374 28.5786 17.3847C28.7205 17.432 28.9097 17.3374 29.0042 17.2428C29.288 18.4726 29.3353 19.7496 29.2407 21.0266C29.2407 21.2631 29.3353 21.4523 29.5718 21.4996C29.7137 21.5469 29.8556 21.5469 29.9502 21.4523C29.9502 22.7293 29.8083 23.9117 29.4299 24.9996C29.3826 25.1888 29.4299 25.4253 29.6191 25.5198C29.8083 25.6617 29.9975 25.6144 30.1867 25.5198L31.1799 24.7631C30.3759 28.1685 28.011 29.5401 27.0178 29.8712Z" fill="white"/>
<path d="M8.52417 19.56C7.57822 19.8438 6.86876 20.2222 6.53768 20.6006C6.49039 20.6479 6.49039 20.6952 6.44309 20.7425C5.87552 22.0668 6.82147 26.9857 7.9566 30.9114C8.0039 31.1006 8.19309 31.2425 8.42958 31.2425H8.57147C8.80795 31.1479 8.94985 30.9114 8.90255 30.6749C7.53093 26.1343 7.01066 22.2087 7.29444 21.2154C7.48363 21.0735 7.9566 20.7425 8.76066 20.506C8.99714 20.4114 9.13903 20.1749 9.09174 19.9384C9.04444 19.6073 8.76066 19.4654 8.52417 19.56Z" fill="white"/>
<path d="M9.94368 15.6333C10.2275 15.6333 10.4166 15.4442 10.4166 15.1604V13.4577H14.2477C14.5315 13.4577 14.7207 13.2685 14.7207 12.9847C14.7207 12.7009 14.5315 12.5117 14.2477 12.5117H9.94368C9.65989 12.5117 9.4707 12.7009 9.4707 12.9847V15.1604C9.4707 15.4442 9.65989 15.6333 9.94368 15.6333Z" fill="white"/>
</svg>
