<svg width="36" height="36" viewBox="0 0 36 36" fill="none" xmlns="http://www.w3.org/2000/svg">
<path d="M31.8721 23.5537C31.9193 23.3645 31.8248 23.1754 31.6356 23.0808C31.4464 22.9862 31.2572 22.9862 31.1153 23.1281L30.2639 23.7902C30.5004 22.6078 30.5477 21.3308 30.4058 19.9591C30.4058 19.77 30.2639 19.5808 30.0748 19.5335C29.9802 19.5335 29.9329 19.5335 29.8383 19.5335C29.8383 18.3037 29.6491 17.1213 29.318 15.9862C29.2707 15.8443 29.1288 15.7024 28.9869 15.6551C28.7977 15.6078 28.6558 15.6551 28.5139 15.797C28.4666 15.3713 28.5612 14.9456 28.7031 14.4727C28.7504 14.2835 28.7031 14.0943 28.5612 13.9524C28.4193 13.8105 28.1829 13.8105 28.041 13.9051C27.568 14.1889 27.095 14.5673 26.7166 15.0875C26.6693 15.0402 26.5748 14.9929 26.5275 14.9456C26.3383 14.8983 26.1964 14.9456 26.0545 15.0402C25.0139 16.0808 24.1626 17.3105 23.6423 18.4929L23.4058 17.7835C23.3585 17.5943 23.1693 17.4524 22.9802 17.4524C22.791 17.4524 22.6018 17.547 22.5072 17.7362C21.9396 19.1078 21.7504 21.1416 21.7977 22.5605C21.7031 22.5605 21.6558 22.5605 21.5612 22.6078C21.3721 22.7024 21.2775 22.8443 21.2775 23.0808C21.3248 23.7429 21.3721 24.4997 21.6085 25.2091C21.5139 25.2091 21.4666 25.2564 21.3721 25.351C21.2775 25.4456 21.2302 25.5875 21.2302 25.7294C20.8518 25.6348 20.4734 25.5875 20.1423 25.5402C19.9531 25.5402 19.7639 25.6348 19.6693 25.7767C19.6221 25.824 19.6221 25.8713 19.6221 25.9186C19.4802 25.9186 19.3383 25.9186 19.1964 25.9659C19.8585 22.4186 19.8112 20.1956 18.9599 19.1078C18.2504 18.1618 17.068 17.5943 15.9329 17.2159C16.2639 16.8848 16.4531 16.4118 16.4531 15.8916V12.0132C16.4531 11.0673 15.791 10.2632 14.845 10.074C14.1356 9.08076 13.8518 7.85103 13.9464 6.6213L14.0883 4.8713V4.82401C14.041 3.40509 12.8585 2.22266 11.4396 2.22266C10.0207 2.22266 8.83827 3.40509 8.79097 4.82401V4.8713L8.93286 6.6213C9.02746 7.85103 8.69638 9.08076 8.03421 10.074C7.13557 10.2632 6.4734 11.0673 6.4734 12.0132V15.8916C6.4734 16.4118 6.66259 16.8848 6.99367 17.2159C5.85854 17.5943 4.67611 18.1618 3.96665 19.1078C2.02746 21.8983 5.33827 32.0672 5.71665 33.2024C5.76394 33.3916 5.95313 33.5335 6.14232 33.5335H16.9261C17.1153 33.5335 17.3045 33.3916 17.3518 33.2024C17.3518 33.2024 17.3991 33.1078 17.3991 33.0132C18.345 33.1551 19.1964 33.1551 20.0477 33.0605C20.0477 33.1551 20.0477 33.2024 20.095 33.297C20.1896 33.4389 20.3315 33.5335 20.5207 33.5335H20.6153C22.4126 33.2024 23.5477 32.7767 24.2572 32.0673L24.3518 31.9727C24.3991 31.8781 24.6829 31.7362 24.8248 31.5943C25.1558 31.3578 25.5815 31.1213 25.8653 30.7429H25.9126C26.1964 31.2159 26.6221 31.6416 27.095 31.9727C27.3788 32.1618 27.8045 32.5402 27.9464 32.9186C27.9937 33.1078 28.1829 33.2497 28.3721 33.2497C28.4193 33.2497 28.4666 33.2497 28.5139 33.2024C28.7504 33.1078 28.8923 32.824 28.7977 32.5875C28.6085 32.0672 28.1829 31.5943 27.6153 31.1686C27.3788 30.9794 27.1423 30.7902 26.9531 30.5537C28.4666 30.0335 31.2572 28.1416 31.8721 23.5537ZM9.9734 6.6213L9.83151 4.9186C9.87881 4.01995 10.6356 3.2632 11.5342 3.2632C12.4329 3.2632 13.1896 4.01995 13.2369 4.9186L13.095 6.6213C13.0004 7.85103 13.2369 9.03347 13.8045 10.1213H9.26394C9.83151 9.03347 10.068 7.85103 9.9734 6.6213ZM7.51394 12.0605C7.51394 11.4929 7.98692 11.02 8.55448 11.02H14.6085C15.1761 11.02 15.6491 11.4929 15.6491 12.0605V15.9389C15.6491 16.4591 15.2234 16.8848 14.7031 16.9321H14.6558H14.6085H8.50719H8.45989H8.41259C7.89232 16.8848 7.46665 16.4591 7.46665 15.9389V12.0605H7.51394ZM12.1491 17.9254V26.5808C12.1491 26.9118 11.8653 27.1956 11.5342 27.1956C11.2031 27.1956 10.9193 26.9118 10.9193 26.5808V17.9254H12.1491ZM16.595 32.5875H6.5207C5.48016 29.3713 3.39908 21.6618 4.818 19.7227C5.43286 18.9186 6.70989 18.2564 8.41259 17.9254H8.50719H9.9734V26.5808C9.9734 27.4321 10.6829 28.1416 11.5342 28.1416C12.3856 28.1416 13.095 27.4321 13.095 26.5808V17.9254H14.5612H14.7031C16.4058 18.3037 17.6829 18.9186 18.2977 19.7227C18.6761 20.2429 19.1491 21.7091 18.2977 26.1551C17.8248 26.2497 17.3045 26.3916 16.7842 26.6281C16.595 26.6754 16.5004 26.8645 16.4531 27.0537C16.4531 27.101 16.4531 27.1956 16.5004 27.2429C15.5072 27.574 14.4193 28.2362 13.4734 29.0875C13.3315 29.2294 13.2842 29.3713 13.3315 29.5605C13.3315 29.6078 13.3788 29.6551 13.3788 29.7024C13.0004 29.9862 12.6693 30.3173 12.4329 30.6483C12.3383 30.8375 12.3383 31.0267 12.4329 31.2159C12.5748 31.3578 12.7639 31.4524 12.9531 31.4051C13.2369 31.3105 13.5207 31.2632 13.8045 31.3105C13.7572 31.4051 13.7572 31.4997 13.7572 31.5943C13.8045 31.7835 13.8991 31.8781 14.041 31.9727C14.845 32.2564 15.6964 32.4456 16.595 32.5402C16.595 32.4929 16.595 32.5402 16.595 32.5875ZM24.3045 30.7902C24.0207 30.9794 23.7369 31.1686 23.5477 31.4051C23.0748 31.8308 22.4126 32.1145 21.7031 32.3037C21.7031 32.2564 21.6558 32.1618 21.6558 32.1145C21.5612 31.9254 21.3248 31.8308 21.1356 31.8781C20.2842 32.1145 19.4329 32.2091 18.4396 32.1618C18.4396 32.0672 18.4396 31.9727 18.4396 31.9254C18.3923 31.7362 18.2031 31.5943 17.9666 31.5943C16.9734 31.6416 16.0275 31.547 15.1288 31.3105C15.1761 31.2159 15.2234 31.1213 15.2234 30.9794C15.2234 30.8375 15.0815 30.6956 14.9396 30.601C14.6558 30.4591 14.3721 30.3645 14.041 30.3645C14.2302 30.27 14.4193 30.1281 14.6085 30.0335C14.7977 29.9389 14.8923 29.7497 14.8923 29.5605C14.8923 29.4186 14.7977 29.324 14.7504 29.2294C15.6964 28.52 16.7842 28.047 17.6356 27.9524C17.8248 27.9051 18.0139 27.7632 18.0612 27.574C18.0612 27.4794 18.0612 27.3375 18.0139 27.2429C19.0072 26.9591 19.8112 26.9118 20.4734 27.0537C20.6626 27.101 20.8518 27.0064 20.9937 26.8172C21.041 26.77 21.041 26.7227 21.041 26.6754C21.4666 26.77 21.7977 26.9118 22.0342 27.101C22.4126 27.6686 22.791 28.1889 23.2166 28.6145C21.5139 28.3308 19.1964 28.3308 16.6423 29.3713C16.4058 29.4659 16.3112 29.7497 16.4058 29.9862C16.5004 30.1754 16.6423 30.27 16.8315 30.27C16.8788 30.27 16.9734 30.27 17.0207 30.2227C20.1896 28.851 22.9802 29.324 24.7775 29.9389C24.8721 30.0335 24.9666 30.0808 25.0612 30.1281C24.8721 30.4591 24.5883 30.6483 24.3045 30.7902ZM26.4802 29.797C26.4329 29.7024 26.3856 29.6078 26.3383 29.5132C25.7234 27.574 24.9666 23.7429 27.0477 19.4389C27.1423 19.2024 27.0477 18.9186 26.8112 18.824C26.5748 18.7294 26.291 18.824 26.1964 19.0605C24.1626 23.27 24.6356 27.101 25.2504 29.2767C25.8653 31.4524 25.2504 29.2767 25.2031 29.2767C24.2572 28.5673 23.4531 27.7159 22.7437 26.7227C22.8383 26.6754 22.9329 26.6281 23.0275 26.5335C23.1693 26.3443 23.1221 26.1078 22.9802 25.9186C22.6018 25.5402 22.3653 24.9727 22.2234 24.1686C22.318 24.1686 22.3653 24.1686 22.4599 24.1213C22.6491 24.0267 22.7437 23.8375 22.6964 23.6483C22.5072 22.6078 22.5545 20.9524 22.8383 19.5808L23.0748 20.2429C23.1693 20.4321 23.3585 20.574 23.5477 20.574C23.7842 20.574 23.9261 20.3848 23.9734 20.1956C24.1626 19.0605 24.8721 17.6889 25.9126 16.5064C25.9599 16.6483 26.1018 16.7902 26.291 16.7902C26.4802 16.8375 26.6693 16.7429 26.7639 16.5537C26.9531 16.1754 27.1896 15.8916 27.4261 15.6078C27.4261 16.0808 27.5207 16.5537 27.7099 17.0267C27.7572 17.1686 27.8991 17.2632 28.041 17.3105C28.1829 17.3578 28.3721 17.2632 28.4666 17.1686C28.7504 18.3983 28.7977 19.6754 28.7031 20.9524C28.7031 21.1889 28.7977 21.3781 29.0342 21.4254C29.1761 21.4727 29.318 21.4727 29.4126 21.3781C29.4126 22.6551 29.2707 23.8375 28.8923 24.9254C28.845 25.1145 28.8923 25.351 29.0815 25.4456C29.2707 25.5875 29.4599 25.5402 29.6491 25.4456L30.6423 24.6889C29.8383 28.0943 27.4734 29.4659 26.4802 29.797Z" fill="white"/>
<path d="M7.98657 19.4858C7.04063 19.7696 6.33117 20.148 6.00009 20.5263C5.95279 20.5736 5.95279 20.6209 5.90549 20.6682C5.33792 21.9926 6.28387 26.9115 7.419 30.8372C7.4663 31.0263 7.65549 31.1682 7.89198 31.1682H8.03387C8.27036 31.0736 8.41225 30.8372 8.36495 30.6007C6.99333 26.0601 6.47306 22.1344 6.75684 21.1412C6.94603 20.9993 7.419 20.6682 8.22306 20.4317C8.45955 20.3372 8.60144 20.1007 8.55414 19.8642C8.50684 19.5331 8.22306 19.3912 7.98657 19.4858Z" fill="white"/>
<path d="M9.40559 15.5591C9.68937 15.5591 9.87856 15.3699 9.87856 15.0861V13.3834H13.7096C13.9934 13.3834 14.1826 13.1943 14.1826 12.9105C14.1826 12.6267 13.9934 12.4375 13.7096 12.4375H9.40559C9.12181 12.4375 8.93262 12.6267 8.93262 12.9105V15.0861C8.93262 15.3699 9.12181 15.5591 9.40559 15.5591Z" fill="white"/>
</svg>
