<svg width="36" height="36" viewBox="0 0 36 36" fill="none" xmlns="http://www.w3.org/2000/svg">
<path d="M32.2368 23.628C32.2841 23.4388 32.1895 23.2496 32.0003 23.155C31.8111 23.0604 31.6219 23.0604 31.48 23.2023L30.6287 23.8644C30.8652 22.682 30.9125 21.405 30.7706 20.0334C30.7706 19.8442 30.6287 19.655 30.4395 19.6077C30.3449 19.6077 30.2976 19.6077 30.203 19.6077C30.203 18.378 30.0138 17.1955 29.6827 16.0604C29.6354 15.9185 29.4936 15.7766 29.3517 15.7293C29.1625 15.682 29.0206 15.7293 28.8787 15.8712C28.8314 15.4455 28.926 15.0198 29.0679 14.5469C29.1152 14.3577 29.0679 14.1685 28.926 14.0266C28.7841 13.8847 28.5476 13.8847 28.4057 13.9793C27.9327 14.2631 27.4598 14.6415 27.0814 15.1617C27.0341 15.1144 26.9395 15.0671 26.8922 15.0198C26.703 14.9726 26.5611 15.0198 26.4192 15.1144C25.3787 16.155 24.5273 17.3847 24.0071 18.5671L23.7706 17.8577C23.7233 17.6685 23.5341 17.5266 23.3449 17.5266C23.1557 17.5266 22.9665 17.6212 22.8719 17.8104C22.3044 19.182 22.1152 21.2158 22.1625 22.6347C22.0679 22.6347 22.0206 22.6347 21.926 22.682C21.7368 22.7766 21.6422 22.9185 21.6422 23.155C21.6895 23.8171 21.7368 24.5739 21.9733 25.2834C21.8787 25.2834 21.8314 25.3307 21.7368 25.4253C21.6422 25.5198 21.5949 25.6617 21.5949 25.8036C21.2165 25.709 20.8381 25.6617 20.5071 25.6144C20.3179 25.6144 20.1287 25.709 20.0341 25.8509C19.9868 25.8982 19.9868 25.9455 19.9868 25.9928C19.8449 25.9928 19.703 25.9928 19.5611 26.0401C20.2233 22.4928 20.176 20.2698 19.3246 19.182C18.6152 18.2361 17.4327 17.6685 16.2976 17.2901C16.6287 16.959 16.8179 16.4861 16.8179 15.9658V12.0874C16.8179 11.1415 16.1557 10.3374 15.2098 10.1482C14.5003 9.15498 14.2165 7.92525 14.3111 6.69552L14.453 4.94552V4.89823C14.4057 3.47931 13.2233 2.29688 11.8044 2.29688C10.3854 2.29688 9.20301 3.47931 9.15572 4.89823V4.94552L9.29761 6.69552C9.3922 7.92525 9.06112 9.15498 8.39896 10.1482C7.50031 10.3374 6.83815 11.1415 6.83815 12.0874V15.9658C6.83815 16.4861 7.02734 16.959 7.35842 17.2901C6.22328 17.6685 5.04085 18.2361 4.33139 19.182C2.3922 21.9726 5.70301 32.1415 6.08139 33.2766C6.12869 33.4658 6.31788 33.6077 6.50707 33.6077H17.2909C17.48 33.6077 17.6692 33.4658 17.7165 33.2766C17.7165 33.2766 17.7638 33.182 17.7638 33.0874C18.7098 33.2293 19.5611 33.2293 20.4125 33.1347C20.4125 33.2293 20.4125 33.2766 20.4598 33.3712C20.5544 33.5131 20.6963 33.6077 20.8854 33.6077H20.98C22.7773 33.2766 23.9125 32.8509 24.6219 32.1415L24.7165 32.0469C24.7638 31.9523 25.0476 31.8104 25.1895 31.6685C25.5206 31.432 25.9463 31.1955 26.23 30.8171H26.2773C26.5611 31.2901 26.9868 31.7158 27.4598 32.0469C27.7436 32.2361 28.1692 32.6144 28.3111 32.9928C28.3584 33.182 28.5476 33.3239 28.7368 33.3239C28.7841 33.3239 28.8314 33.3239 28.8787 33.2766C29.1152 33.182 29.2571 32.8982 29.1625 32.6617C28.9733 32.1415 28.5476 31.6685 27.98 31.2428C27.7436 31.0536 27.5071 30.8644 27.3179 30.628C28.8314 30.1077 31.6219 28.2158 32.2368 23.628ZM10.3381 6.69552L10.1963 4.99282C10.2436 4.09417 11.0003 3.33742 11.899 3.33742C12.7976 3.33742 13.5544 4.09417 13.6017 4.99282L13.4598 6.69552C13.3652 7.92525 13.6017 9.10769 14.1692 10.1955H9.62869C10.1963 9.10769 10.4327 7.92525 10.3381 6.69552ZM7.87869 12.1347C7.87869 11.5671 8.35166 11.0942 8.91923 11.0942H14.9733C15.5409 11.0942 16.0138 11.5671 16.0138 12.1347V16.0131C16.0138 16.5334 15.5881 16.959 15.0679 17.0063H15.0206H14.9733H8.87193H8.82464H8.77734C8.25707 16.959 7.83139 16.5334 7.83139 16.0131V12.1347H7.87869ZM12.5138 17.9996V26.655C12.5138 26.9861 12.23 27.2698 11.899 27.2698C11.5679 27.2698 11.2841 26.9861 11.2841 26.655V17.9996H12.5138ZM16.9598 32.6617H6.88545C5.84491 29.4455 3.76382 21.7361 5.18274 19.7969C5.79761 18.9928 7.07464 18.3307 8.77734 17.9996H8.87193H10.3381V26.655C10.3381 27.5063 11.0476 28.2158 11.899 28.2158C12.7503 28.2158 13.4598 27.5063 13.4598 26.655V17.9996H14.926H15.0679C16.7706 18.378 18.0476 18.9928 18.6625 19.7969C19.0409 20.3171 19.5138 21.7834 18.6625 26.2293C18.1895 26.3239 17.6692 26.4658 17.149 26.7023C16.9598 26.7496 16.8652 26.9388 16.8179 27.128C16.8179 27.1753 16.8179 27.2698 16.8652 27.3171C15.8719 27.6482 14.7841 28.3104 13.8381 29.1617C13.6963 29.3036 13.649 29.4455 13.6963 29.6347C13.6963 29.682 13.7436 29.7293 13.7436 29.7766C13.3652 30.0604 13.0341 30.3915 12.7976 30.7226C12.703 30.9117 12.703 31.1009 12.7976 31.2901C12.9395 31.432 13.1287 31.5266 13.3179 31.4793C13.6017 31.3847 13.8854 31.3374 14.1692 31.3847C14.1219 31.4793 14.1219 31.5739 14.1219 31.6685C14.1692 31.8577 14.2638 31.9523 14.4057 32.0469C15.2098 32.3307 16.0611 32.5198 16.9598 32.6144C16.9598 32.5671 16.9598 32.6144 16.9598 32.6617ZM24.6692 30.8644C24.3854 31.0536 24.1017 31.2428 23.9125 31.4793C23.4395 31.905 22.7773 32.1888 22.0679 32.378C22.0679 32.3307 22.0206 32.2361 22.0206 32.1888C21.926 31.9996 21.6895 31.905 21.5003 31.9523C20.649 32.1888 19.7976 32.2834 18.8044 32.2361C18.8044 32.1415 18.8044 32.0469 18.8044 31.9996C18.7571 31.8104 18.5679 31.6685 18.3314 31.6685C17.3382 31.7158 16.3922 31.6212 15.4936 31.3847C15.5409 31.2901 15.5881 31.1955 15.5881 31.0536C15.5881 30.9117 15.4463 30.7698 15.3044 30.6753C15.0206 30.5334 14.7368 30.4388 14.4057 30.4388C14.5949 30.3442 14.7841 30.2023 14.9733 30.1077C15.1625 30.0131 15.2571 29.8239 15.2571 29.6347C15.2571 29.4928 15.1625 29.3982 15.1152 29.3036C16.0611 28.5942 17.149 28.1212 18.0003 28.0266C18.1895 27.9793 18.3787 27.8374 18.426 27.6482C18.426 27.5536 18.426 27.4117 18.3787 27.3171C19.3719 27.0334 20.176 26.9861 20.8381 27.128C21.0273 27.1753 21.2165 27.0807 21.3584 26.8915C21.4057 26.8442 21.4057 26.7969 21.4057 26.7496C21.8314 26.8442 22.1625 26.9861 22.399 27.1753C22.7773 27.7428 23.1557 28.2631 23.5814 28.6888C21.8787 28.405 19.5611 28.405 17.0071 29.4455C16.7706 29.5401 16.676 29.8239 16.7706 30.0604C16.8652 30.2496 17.0071 30.3442 17.1963 30.3442C17.2436 30.3442 17.3382 30.3442 17.3854 30.2969C20.5544 28.9253 23.3449 29.3982 25.1422 30.0131C25.2368 30.1077 25.3314 30.155 25.426 30.2023C25.2368 30.5334 24.953 30.7225 24.6692 30.8644ZM26.8449 29.8712C26.7976 29.7766 26.7503 29.682 26.703 29.5874C26.0882 27.6482 25.3314 23.8171 27.4125 19.5131C27.5071 19.2766 27.4125 18.9928 27.176 18.8982C26.9395 18.8036 26.6557 18.8982 26.5611 19.1347C24.5273 23.3442 25.0003 27.1753 25.6152 29.3509C26.23 31.5266 25.6152 29.3509 25.5679 29.3509C24.6219 28.6415 23.8179 27.7901 23.1084 26.7969C23.203 26.7496 23.2976 26.7023 23.3922 26.6077C23.5341 26.4185 23.4868 26.182 23.3449 25.9928C22.9665 25.6144 22.73 25.0469 22.5882 24.2428C22.6827 24.2428 22.73 24.2428 22.8246 24.1955C23.0138 24.1009 23.1084 23.9117 23.0611 23.7225C22.8719 22.682 22.9192 21.0266 23.203 19.655L23.4395 20.3171C23.5341 20.5063 23.7233 20.6482 23.9125 20.6482C24.149 20.6482 24.2909 20.459 24.3382 20.2698C24.5273 19.1347 25.2368 17.7631 26.2773 16.5807C26.3246 16.7226 26.4665 16.8644 26.6557 16.8644C26.8449 16.9117 27.0341 16.8171 27.1287 16.628C27.3179 16.2496 27.5544 15.9658 27.7909 15.682C27.7909 16.155 27.8854 16.628 28.0746 17.1009C28.1219 17.2428 28.2638 17.3374 28.4057 17.3847C28.5476 17.432 28.7368 17.3374 28.8314 17.2428C29.1152 18.4726 29.1625 19.7496 29.0679 21.0266C29.0679 21.2631 29.1625 21.4523 29.399 21.4996C29.5409 21.5469 29.6827 21.5469 29.7773 21.4523C29.7773 22.7293 29.6354 23.9117 29.2571 24.9996C29.2098 25.1888 29.2571 25.4253 29.4463 25.5198C29.6354 25.6617 29.8246 25.6144 30.0138 25.5198L31.0071 24.7631C30.203 28.1685 27.8382 29.5401 26.8449 29.8712Z" fill="white"/>
<path d="M8.35132 19.56C7.40537 19.8438 6.69591 20.2222 6.36483 20.6006C6.31753 20.6479 6.31753 20.6952 6.27024 20.7425C5.70267 22.0668 6.64862 26.9857 7.78375 30.9114C7.83105 31.1006 8.02024 31.2425 8.25672 31.2425H8.39862C8.6351 31.1479 8.77699 30.9114 8.7297 30.6749C7.35808 26.1343 6.8378 22.2087 7.12159 21.2154C7.31078 21.0735 7.78375 20.7425 8.58781 20.506C8.82429 20.4114 8.96618 20.1749 8.91889 19.9384C8.87159 19.6073 8.58781 19.4654 8.35132 19.56Z" fill="white"/>
<path d="M9.77082 15.6353C10.0546 15.6353 10.2438 15.4461 10.2438 15.1623V13.4596H14.0749C14.3587 13.4596 14.5479 13.2704 14.5479 12.9866C14.5479 12.7029 14.3587 12.5137 14.0749 12.5137H9.77082C9.48704 12.5137 9.29785 12.7029 9.29785 12.9866V15.1623C9.29785 15.4461 9.48704 15.6353 9.77082 15.6353Z" fill="white"/>
</svg>
