<svg width="36" height="36" viewBox="0 0 36 36" fill="none" xmlns="http://www.w3.org/2000/svg">
<g clip-path="url(#clip0_461_49929)">
<path d="M25.2035 20.7779C25.1548 20.6924 25.0832 20.6223 24.9967 20.5754C24.9102 20.5285 24.8123 20.5068 24.7141 20.5127C24.6161 20.5163 24.5208 20.5463 24.4384 20.5994C24.3559 20.6525 24.2893 20.7268 24.2454 20.8145C23.5968 22.1109 22.5101 23.1358 21.178 23.7075L20.7706 23.882C20.3238 24.073 19.9431 24.3911 19.6756 24.7968C19.4082 25.2024 19.2658 25.6776 19.2661 26.1635C19.2675 26.8733 19.4977 27.5636 19.9224 28.1323C20.2827 28.6086 20.7409 29.0022 21.266 29.2867C20.9307 29.6813 20.5586 30.0431 20.1548 30.3673L20.0181 30.4767L20.7017 31.3298L20.8384 31.2205C21.3935 30.7731 21.8948 30.2629 22.3324 29.7002C22.6419 29.7725 22.9586 29.8092 23.2763 29.8095C24.243 29.8084 25.1697 29.4239 25.8532 28.7404C26.5367 28.0568 26.9212 27.1301 26.9224 26.1635C26.9223 24.5138 26.474 22.8952 25.6252 21.4806L25.2035 20.7779ZM23.2763 28.7158C23.1916 28.7158 23.1085 28.7076 23.0248 28.701C23.6022 27.7222 23.994 26.6452 24.1803 25.5242L23.1019 25.3448C22.9182 26.4325 22.5154 27.4714 21.9179 28.3986C21.4767 28.184 21.0926 27.8679 20.7974 27.476C20.514 27.0971 20.3605 26.6367 20.3599 26.1635C20.3596 25.8918 20.4392 25.6261 20.5887 25.3992C20.7383 25.1724 20.9512 24.9945 21.201 24.8877L21.6084 24.7132C22.8771 24.1689 23.9635 23.2728 24.7392 22.1309C25.4526 23.3551 25.8286 24.7466 25.8286 26.1635C25.8277 26.8402 25.5586 27.4888 25.0801 27.9673C24.6017 28.4457 23.953 28.7149 23.2763 28.7158Z" fill="white"/>
<path d="M7.75166 22.244C7.42444 22.4618 7.15611 22.7571 6.97054 23.1036C6.78497 23.4501 6.68791 23.8371 6.68799 24.2302V33.0896C6.68799 34.6843 10.6156 34.7302 11.063 34.7302C11.5103 34.7302 15.438 34.6843 15.438 33.0896V30.8726C15.7973 30.8901 16.1615 30.9021 16.5317 30.9021V32.5427C16.5317 34.2692 20.6568 34.7302 23.0942 34.7302C25.5317 34.7302 29.6567 34.2692 29.6567 32.5427V17.9062C29.6579 17.4369 29.5278 16.9766 29.2811 16.5773C29.0343 16.1781 28.6809 15.8559 28.2606 15.647C28.0221 15.529 27.8215 15.3465 27.6816 15.1202C27.5417 14.8939 27.4682 14.6329 27.4692 14.3668V14.2355C28.1386 13.8943 28.563 13.4349 28.563 12.8552V10.6677C28.563 10.2127 28.2841 9.59531 27.0722 9.11133L27.4638 6.37039H27.4572C27.4572 6.34414 27.4692 6.32117 27.4692 6.29383C27.4692 4.69914 23.5416 4.6532 23.0942 4.6532C22.2436 4.65627 21.3953 4.74439 20.5622 4.91625L20.9013 2.54336H20.8947C20.8947 2.51711 20.9067 2.49414 20.9067 2.4668C20.9067 0.87211 16.9791 0.826172 16.5317 0.826172C16.0844 0.826172 12.1567 0.87211 12.1567 2.4668C12.1567 2.49414 12.1666 2.51711 12.1688 2.54336H12.1622L12.5538 5.2843C11.3419 5.76719 11.063 6.38461 11.063 6.83961V9.02711C11.063 9.6068 11.4874 10.0634 12.1567 10.4074V10.5387C12.1578 10.8047 12.0842 11.0658 11.9444 11.2921C11.8045 11.5184 11.6039 11.7009 11.3654 11.8189C10.9452 12.0277 10.5918 12.3499 10.3451 12.749C10.0983 13.1481 9.96816 13.6083 9.96924 14.0775V15.1013C8.48557 15.2653 7.23486 15.7695 7.23486 16.6834V19.9646C7.23486 20.5022 7.67236 20.8976 8.32861 21.1677C8.32852 21.3808 8.2758 21.5905 8.17515 21.7782C8.0745 21.966 7.92903 22.126 7.75166 22.244ZM7.78174 26.6321C8.67107 26.8972 9.58919 27.0538 10.5161 27.0986V31.4534C9.58541 31.4031 8.6657 31.2278 7.78174 30.9322V26.6321ZM11.063 33.6365C9.16096 33.6365 8.01143 33.2438 7.78174 33.0196V32.0773C8.84637 32.3963 9.9516 32.5593 11.063 32.5613C11.2099 32.5572 11.3494 32.4957 11.4516 32.39C11.5538 32.2843 11.6106 32.1429 11.6099 31.9959V26.5643C11.6099 26.4193 11.5522 26.2802 11.4497 26.1776C11.3471 26.075 11.208 26.0174 11.063 26.0174C9.94749 26.0148 8.83964 25.8331 7.78174 25.4793V24.4873C8.85344 24.7627 9.95652 24.8969 11.063 24.8865C12.1695 24.8969 13.2725 24.7627 14.3442 24.4873V33.0185C14.1146 33.2438 12.965 33.6365 11.063 33.6365ZM23.0942 33.6365C19.7889 33.6365 17.7748 32.9097 17.6255 32.5427V18.1637C19.4019 18.6761 21.246 18.9145 23.0942 18.8709C24.9425 18.9145 26.7866 18.6761 28.563 18.1637L28.5663 32.5198C28.4137 32.9097 26.3996 33.6365 23.0942 33.6365ZM27.7717 16.6287C27.9881 16.7389 28.1728 16.9027 28.3081 17.1045C26.6159 17.5992 24.8567 17.8262 23.0942 17.7771C21.3317 17.825 19.5725 17.5971 17.8803 17.1017C18.0155 16.8997 18.2002 16.7357 18.4168 16.6254C18.7947 16.4377 19.1191 16.1575 19.3598 15.811C19.6006 15.4644 19.7498 15.0626 19.7938 14.643C20.8719 14.9193 21.9814 15.0537 23.0942 15.0427C24.2071 15.0537 25.3166 14.9193 26.3946 14.643C26.4383 15.0631 26.5875 15.4655 26.8282 15.8126C27.069 16.1597 27.3935 16.4404 27.7717 16.6287ZM23.0942 13.949C20.2237 13.949 18.7192 13.1363 18.7192 12.8552V12.048C20.1022 12.6297 21.5947 12.905 23.0942 12.8552C24.5937 12.905 26.0862 12.6297 27.4692 12.048V12.8552C27.4692 13.1363 25.9648 13.949 23.0942 13.949ZM12.1567 9.02711V8.21992C13.5397 8.80156 15.0322 9.07692 16.5317 9.02711C17.3836 9.03038 18.2338 8.95403 19.0714 8.79906L19.1163 9.11133C18.5885 9.2775 18.1283 9.60924 17.8038 10.0574C17.3914 10.0963 16.9692 10.1209 16.5317 10.1209C13.6612 10.1209 12.1567 9.3082 12.1567 9.02711ZM27.4692 10.6677C27.4692 10.9488 25.9648 11.7615 23.0942 11.7615C20.2237 11.7615 18.7192 10.9488 18.7192 10.6677C18.7192 10.6305 18.8319 10.4452 19.2803 10.2302C19.2991 10.3243 19.3423 10.4117 19.4056 10.4838C19.4688 10.5559 19.5499 10.6101 19.6407 10.6409L19.7244 10.6688C20.8109 11.0312 21.9489 11.2155 23.0942 11.2146C24.2395 11.2152 25.3773 11.0305 26.4635 10.6677L26.5478 10.6398C26.6386 10.609 26.7197 10.5548 26.7829 10.4827C26.8462 10.4106 26.8894 10.3232 26.9081 10.2291C27.3566 10.4452 27.4692 10.6305 27.4692 10.6677ZM19.9935 7.515C21.0026 7.79757 22.0462 7.93838 23.0942 7.93336C24.1422 7.93838 25.1858 7.79757 26.195 7.515L25.8828 9.7025C24.0644 10.2545 22.123 10.2545 20.3046 9.7025L19.9935 7.515ZM26.282 6.29273C25.2753 6.71691 24.1847 6.90402 23.0942 6.83961C22.0038 6.90402 20.9131 6.71691 19.9065 6.29273C20.9131 5.86856 22.0038 5.68145 23.0942 5.74586C24.1847 5.68145 25.2753 5.86856 26.282 6.29273ZM18.7619 6.02258C17.1055 6.41997 15.3733 6.36976 13.7427 5.87711L13.4304 3.68961C14.4399 3.97131 15.4837 4.11119 16.5317 4.10523C17.5797 4.11022 18.6233 3.96941 19.6325 3.68687L19.3974 5.33352C19.1061 5.4747 18.8791 5.72087 18.7619 6.02258ZM16.5317 1.91773C17.6222 1.85332 18.7128 2.04043 19.7195 2.46461C18.7128 2.88879 17.6222 3.0759 16.5317 3.01148C15.4413 3.0759 14.3506 2.88879 13.344 2.46461C14.3506 2.04043 15.4413 1.85332 16.5317 1.91773ZM12.7178 6.40211C12.7366 6.49616 12.7798 6.58361 12.8431 6.6557C12.9063 6.72778 12.9874 6.78197 13.0782 6.81281L13.1619 6.8407C14.2484 7.20305 15.3864 7.38735 16.5317 7.38648C17.306 7.38549 18.0778 7.30004 18.8335 7.13164L18.9167 7.71406C18.1306 7.86364 17.3319 7.93708 16.5317 7.93336C13.6612 7.93336 12.1567 7.1207 12.1567 6.83961C12.1567 6.80242 12.2694 6.61703 12.7178 6.40211ZM11.8543 12.8005C12.2322 12.6128 12.5566 12.3327 12.7973 11.9861C13.0381 11.6395 13.1873 11.2378 13.2313 10.8181C14.3095 11.0934 15.419 11.2266 16.5317 11.2146C16.9036 11.2146 17.2673 11.1966 17.6255 11.1703V12.8552C17.6336 13.0587 17.6881 13.2576 17.7849 13.4367C17.8817 13.6159 18.0181 13.7705 18.1838 13.8888C17.6474 13.9249 17.0994 13.949 16.5317 13.949C14.7692 13.9969 13.01 13.769 11.3178 13.2736C11.453 13.0716 11.6377 12.9076 11.8543 12.7973V12.8005ZM11.063 14.3356C12.8394 14.848 14.6835 15.0864 16.5317 15.0427C17.2388 15.0427 17.9186 15.0066 18.5803 14.953C18.4496 15.2528 18.219 15.498 17.9279 15.647C17.5077 15.8558 17.1543 16.178 16.9076 16.5771C16.6608 16.9762 16.5307 17.4364 16.5317 17.9056V29.8018C16.1631 29.8018 15.8 29.7925 15.438 29.7739V24.2302C15.4383 23.8369 15.3414 23.4495 15.1558 23.1027C14.9702 22.7559 14.7018 22.4603 14.3743 22.2423C14.1972 22.1245 14.0519 21.9648 13.9512 21.7773C13.8506 21.5899 13.7977 21.3805 13.7974 21.1677C14.4536 20.8992 14.8911 20.5038 14.8911 19.9646V16.6834C14.8911 15.5502 12.9683 15.0427 11.063 15.0427V14.3356ZM8.32861 19.9181V17.8865C9.20574 18.198 10.1325 18.3462 11.063 18.324C11.9935 18.3462 12.9202 18.198 13.7974 17.8865V19.9198C13.6366 20.1084 12.6976 20.5115 11.063 20.5115C9.42838 20.5115 8.48939 20.1084 8.32861 19.9181ZM11.063 16.1365C12.5746 16.1365 13.4906 16.481 13.7476 16.6834C13.4906 16.8857 12.5746 17.2302 11.063 17.2302C9.55143 17.2302 8.63541 16.8857 8.37838 16.6834C8.63541 16.481 9.55143 16.1365 11.063 16.1365ZM11.063 21.6052C11.6191 21.6071 12.1743 21.5603 12.7222 21.4652C12.7649 21.8053 12.8804 22.1321 13.0607 22.4235C13.241 22.7149 13.482 22.9641 13.7673 23.154C13.8785 23.2308 13.9769 23.3248 14.0588 23.4323C13.0802 23.683 12.073 23.8042 11.063 23.7927C10.0529 23.8042 9.04573 23.683 8.06721 23.4323C8.1491 23.3248 8.24747 23.2308 8.35869 23.154C8.64395 22.9641 8.88494 22.7149 9.06528 22.4235C9.24562 22.1321 9.36107 21.8053 9.40377 21.4652C9.95169 21.5603 10.5069 21.6071 11.063 21.6052Z" fill="white"/>
</g>
<defs>
<clipPath id="clip0_461_49929">
<rect width="35" height="35" fill="white" transform="translate(0.672363 0.277344)"/>
</clipPath>
</defs>
</svg>
