<svg width="51" height="51" viewBox="0 0 51 51" fill="none" xmlns="http://www.w3.org/2000/svg">
<path d="M6.72763 9.76375C7.12483 9.76373 7.50575 9.60594 7.78661 9.32508C8.06747 9.04422 8.22527 8.6633 8.22529 8.26611V5.13591H42.5254V33.9469C42.5254 34.3441 42.6832 34.7251 42.9641 35.0059C43.2449 35.2868 43.6259 35.4446 44.0231 35.4446C44.4203 35.4446 44.8012 35.2868 45.0821 35.0059C45.3629 34.7251 45.5207 34.3441 45.5207 33.9469V3.63827C45.5207 3.24108 45.3629 2.86016 45.082 2.5793C44.8012 2.29844 44.4202 2.14064 44.0231 2.14062H6.72763C6.33044 2.14064 5.94951 2.29844 5.66865 2.5793C5.38779 2.86016 5.23 3.24108 5.22998 3.63827V8.26611C5.23 8.6633 5.38779 9.04422 5.66865 9.32508C5.94951 9.60594 6.33044 9.76373 6.72763 9.76375Z" fill="#D1A132"/>
<path d="M44.0231 42.158C43.6259 42.158 43.2449 42.3158 42.9641 42.5967C42.6832 42.8775 42.5254 43.2584 42.5254 43.6556V45.4154H8.22529V18.1695C8.22529 17.7723 8.0675 17.3914 7.78663 17.1105C7.50577 16.8297 7.12484 16.6719 6.72763 16.6719C6.33043 16.6719 5.9495 16.8297 5.66863 17.1105C5.38777 17.3914 5.22998 17.7723 5.22998 18.1695V46.9131C5.23 47.3103 5.38779 47.6912 5.66865 47.972C5.94951 48.2529 6.33044 48.4107 6.72763 48.4107H44.0231C44.4202 48.4107 44.8012 48.2529 45.082 47.972C45.3629 47.6912 45.5207 47.3103 45.5207 46.9131V43.6556C45.5207 43.2584 45.3629 42.8775 45.082 42.5966C44.8012 42.3158 44.4202 42.158 44.0231 42.158Z" fill="#D1A132"/>
<path d="M24.5638 13.1695C24.5638 12.7723 24.406 12.3914 24.1252 12.1105C23.8443 11.8297 23.4634 11.6719 23.0662 11.6719H3.93711C3.5399 11.6719 3.15897 11.8297 2.87811 12.1105C2.59724 12.3914 2.43945 12.7723 2.43945 13.1695C2.43945 13.5667 2.59724 13.9477 2.87811 14.2285C3.15897 14.5094 3.5399 14.6672 3.93711 14.6672H23.0662C23.4634 14.6671 23.8443 14.5094 24.1252 14.2285C24.406 13.9476 24.5638 13.5667 24.5638 13.1695Z" fill="#D1A132"/>
<path d="M26.7106 21.7828C26.7106 21.3856 26.5528 21.0047 26.2719 20.7238C25.9911 20.443 25.6102 20.2852 25.213 20.2852H11.7999C11.4027 20.2852 11.0218 20.4429 10.7409 20.7238C10.46 21.0047 10.3022 21.3856 10.3022 21.7828C10.3022 22.18 10.46 22.5609 10.7409 22.8418C11.0218 23.1227 11.4027 23.2804 11.7999 23.2804H25.213C25.6102 23.2804 25.9911 23.1226 26.2719 22.8418C26.5528 22.5609 26.7106 22.18 26.7106 21.7828Z" fill="#D1A132"/>
<path d="M14.4205 31.8898H27.4591C27.8563 31.8898 28.2373 31.732 28.5181 31.4512C28.799 31.1703 28.9568 30.7894 28.9568 30.3922C28.9568 29.995 28.799 29.614 28.5181 29.3332C28.2373 29.0523 27.8563 28.8945 27.4591 28.8945H14.4205C14.0233 28.8945 13.6424 29.0523 13.3615 29.3332C13.0806 29.614 12.9229 29.995 12.9229 30.3922C12.9229 30.7894 13.0806 31.1703 13.3615 31.4512C13.6424 31.732 14.0233 31.8898 14.4205 31.8898Z" fill="#D1A132"/>
<path d="M46.8148 37.5078H18.9137C18.5165 37.5078 18.1355 37.6656 17.8547 37.9465C17.5738 38.2273 17.416 38.6083 17.416 39.0055C17.416 39.4027 17.5738 39.7836 17.8547 40.0645C18.1355 40.3453 18.5165 40.5031 18.9137 40.5031H46.8148C47.212 40.5031 47.5929 40.3453 47.8738 40.0645C48.1546 39.7836 48.3124 39.4027 48.3124 39.0055C48.3124 38.6083 48.1546 38.2273 47.8738 37.9465C47.5929 37.6656 47.212 37.5078 46.8148 37.5078Z" fill="#D1A132"/>
<path d="M30.6525 17.0941C30.6825 17.0959 30.7128 17.0969 30.7428 17.0969C31.1099 17.0968 31.4642 16.962 31.7384 16.7179L36.2939 12.6635C36.4409 12.5328 36.5607 12.3744 36.6465 12.1974C36.7322 12.0203 36.7823 11.8281 36.7938 11.6317C36.8052 11.4354 36.7779 11.2387 36.7133 11.0528C36.6487 10.867 36.5482 10.6958 36.4174 10.5488C36.2866 10.4019 36.1282 10.2821 35.9511 10.1964C35.774 10.1107 35.5818 10.0608 35.3854 10.0494C35.189 10.038 34.9923 10.0654 34.8065 10.1301C34.6208 10.1947 34.4495 10.2953 34.3026 10.4262L30.8708 13.4803L29.4276 11.8439C29.2975 11.6964 29.1396 11.576 28.963 11.4895C28.7863 11.403 28.5944 11.3522 28.3981 11.3399C28.2018 11.3276 28.005 11.354 27.8189 11.4178C27.6328 11.4815 27.4612 11.5813 27.3137 11.7114C27.1662 11.8415 27.0457 11.9994 26.9592 12.176C26.8727 12.3527 26.8219 12.5446 26.8096 12.7409C26.7973 12.9372 26.8237 13.134 26.8875 13.3201C26.9512 13.5061 27.051 13.6778 27.1811 13.8253L29.6196 16.5899C29.75 16.7378 29.9085 16.8585 30.0857 16.9451C30.263 17.0316 30.4556 17.0822 30.6525 17.0941Z" fill="#D1A132"/>
<path d="M32.2406 25.2032C32.3711 25.3511 32.5295 25.4718 32.7068 25.5583C32.8841 25.6449 33.0767 25.6955 33.2736 25.7074C33.3035 25.7092 33.3339 25.7101 33.3639 25.7101C33.731 25.7101 34.0853 25.5752 34.3595 25.3311L38.915 21.2768C39.062 21.1461 39.1818 20.9877 39.2676 20.8106C39.3533 20.6336 39.4034 20.4414 39.4148 20.245C39.4263 20.0486 39.399 19.8519 39.3344 19.6661C39.2698 19.4803 39.1693 19.309 39.0385 19.1621C38.9077 19.0151 38.7493 18.8954 38.5722 18.8097C38.3951 18.724 38.2029 18.6741 38.0065 18.6627C37.8101 18.6513 37.6134 18.6787 37.4276 18.7434C37.2419 18.808 37.0706 18.9086 36.9237 19.0395L33.4919 22.0936L32.0487 20.4572C31.9186 20.3097 31.7607 20.1893 31.5841 20.1028C31.4074 20.0163 31.2155 19.9655 31.0192 19.9531C30.8229 19.9408 30.6261 19.9673 30.44 20.0311C30.2539 20.0948 30.0823 20.1946 29.9348 20.3247C29.7872 20.4548 29.6668 20.6127 29.5803 20.7893C29.4938 20.9659 29.443 21.1579 29.4307 21.3542C29.4184 21.5505 29.4448 21.7473 29.5086 21.9334C29.5723 22.1194 29.6721 22.2911 29.8022 22.4386L32.2406 25.2032Z" fill="#D1A132"/>
<path d="M34.1127 34.1876C34.2432 34.3355 34.4016 34.4562 34.5789 34.5427C34.7561 34.6292 34.9487 34.6799 35.1456 34.6918C35.1756 34.6936 35.206 34.6945 35.236 34.6945C35.6031 34.6945 35.9574 34.5596 36.2316 34.3155L40.7871 30.2612C40.9341 30.1304 41.0539 29.972 41.1396 29.795C41.2254 29.618 41.2755 29.4258 41.2869 29.2294C41.2984 29.033 41.2711 28.8363 41.2065 28.6505C41.1419 28.4647 41.0414 28.2934 40.9106 28.1465C40.7798 27.9995 40.6213 27.8798 40.4443 27.7941C40.2672 27.7084 40.075 27.6584 39.8786 27.647C39.6822 27.6357 39.4855 27.6631 39.2997 27.7277C39.1139 27.7924 38.9427 27.893 38.7958 28.0238L35.3639 31.078L33.9208 29.4416C33.7907 29.2941 33.6328 29.1737 33.4561 29.0872C33.2795 29.0007 33.0875 28.9498 32.8912 28.9375C32.4948 28.9127 32.1047 29.0463 31.8068 29.3091C31.5089 29.5718 31.3276 29.9421 31.3027 30.3386C31.2779 30.735 31.4115 31.1251 31.6743 31.423L34.1127 34.1876Z" fill="#D1A132"/>
</svg>
