<svg width="46" height="46" viewBox="0 0 46 46" fill="none" xmlns="http://www.w3.org/2000/svg">
<path d="M15.5391 20.5762V30.5061C14.491 29.9847 13.336 29.7145 12.1655 29.7168H9.21094C9.02446 29.7168 8.84561 29.7909 8.71375 29.9227C8.58189 30.0546 8.50781 30.2334 8.50781 30.4199V36.187C8.51007 38.1999 9.3107 40.1297 10.7341 41.5531C12.1574 42.9764 14.0872 43.777 16.1002 43.7793H30.4467C32.4596 43.777 34.3895 42.9764 35.8128 41.5531C37.2362 40.1297 38.0368 38.1999 38.0391 36.187V30.4199C38.0391 30.2334 37.965 30.0546 37.8331 29.9227C37.7013 29.7909 37.5224 29.7168 37.3359 29.7168H34.3814C33.2109 29.7145 32.0558 29.9847 31.0078 30.5061V20.5762C31.0068 19.6441 30.636 18.7505 29.977 18.0914C29.3179 17.4323 28.4243 17.0616 27.4922 17.0605V15.6543C27.9896 15.6541 28.471 15.4781 28.8513 15.1574C29.2315 14.8367 29.4862 14.3919 29.5703 13.9016C29.6545 13.4114 29.5626 12.9071 29.311 12.478C29.0594 12.0489 28.6642 11.7225 28.1953 11.5565V7.91992C28.1947 7.36067 27.9722 6.82451 27.5768 6.42906C27.1813 6.03361 26.6452 5.81117 26.0859 5.81055V4.4043C26.0859 3.65838 25.7896 2.94301 25.2622 2.41556C24.7347 1.88811 24.0194 1.5918 23.2734 1.5918C22.5275 1.5918 21.8121 1.88811 21.2847 2.41556C20.7573 2.94301 20.4609 3.65838 20.4609 4.4043V5.81055C19.9017 5.81117 19.3655 6.03361 18.9701 6.42906C18.5746 6.82451 18.3522 7.36067 18.3516 7.91992V11.5565C17.8826 11.7225 17.4875 12.0489 17.2359 12.478C16.9843 12.9071 16.8924 13.4114 16.9765 13.9016C17.0607 14.3919 17.3154 14.8367 17.6956 15.1574C18.0759 15.4781 18.5572 15.6541 19.0547 15.6543V17.0605C18.1226 17.0616 17.229 17.4323 16.5699 18.0914C15.9108 18.7505 15.5401 19.6441 15.5391 20.5762ZM16.9453 38.1543V24.0918H29.6016V38.1543H16.9453ZM9.91406 36.187V31.123H12.1655C13.3636 31.1201 14.5365 31.4681 15.5391 32.1242V36.7628L13.3047 33.5353C13.1986 33.382 13.0358 33.2771 12.8524 33.2437C12.6689 33.2104 12.4796 33.2512 12.3263 33.3574C12.173 33.4636 12.0681 33.6263 12.0347 33.8098C12.0014 33.9932 12.0423 34.1825 12.1484 34.3358L15.5391 39.2333V40.2637C15.5383 41.0248 15.7858 41.7654 16.2441 42.373H16.1002C14.4601 42.3712 12.8877 41.7188 11.728 40.5591C10.5683 39.3994 9.91592 37.827 9.91406 36.187ZM19.0547 42.373C18.4954 42.3724 17.9593 42.15 17.5638 41.7545C17.1684 41.3591 16.9459 40.8229 16.9453 40.2637V39.5605H29.6016V40.2637C29.6009 40.8229 29.3785 41.3591 28.983 41.7545C28.5876 42.15 28.0514 42.3724 27.4922 42.373H19.0547ZM34.3814 31.123H36.6328V36.187C36.631 37.827 35.9786 39.3994 34.8189 40.5591C33.6592 41.7188 32.0868 42.3712 30.4467 42.373H30.3028C30.7611 41.7654 31.0086 41.0248 31.0078 40.2637V39.2333L34.3985 34.3358C34.5046 34.1825 34.5455 33.9932 34.5121 33.8098C34.4788 33.6263 34.3739 33.4636 34.2206 33.3574C34.1446 33.3048 34.0591 33.2677 33.9689 33.2482C33.8786 33.2287 33.7854 33.2272 33.6945 33.2437C33.511 33.2771 33.3483 33.382 33.2422 33.5353L31.0078 36.7627V32.1242C32.0104 31.4681 33.1832 31.1201 34.3814 31.123ZM29.6016 20.5762V22.6855H16.9453V20.5762C16.9459 20.0169 17.1684 19.4808 17.5638 19.0853C17.9593 18.6899 18.4954 18.4674 19.0547 18.4668H27.4922C28.0514 18.4674 28.5876 18.6899 28.983 19.0853C29.3785 19.4808 29.6009 20.0169 29.6016 20.5762ZM21.8672 4.4043C21.8672 4.03134 22.0153 3.67365 22.2791 3.40993C22.5428 3.1462 22.9005 2.99805 23.2734 2.99805C23.6464 2.99805 24.0041 3.1462 24.2678 3.40993C24.5315 3.67365 24.6797 4.03134 24.6797 4.4043V5.81055H21.8672V4.4043ZM20.4609 7.2168H26.0859C26.2724 7.21701 26.4511 7.29115 26.5829 7.42297C26.7147 7.55479 26.7889 7.73351 26.7891 7.91992V11.4355H25.3828V10.0293C25.3828 9.84282 25.3087 9.66397 25.1769 9.53211C25.045 9.40025 24.8662 9.32617 24.6797 9.32617C24.4932 9.32617 24.3144 9.40025 24.1825 9.53211C24.0506 9.66397 23.9766 9.84282 23.9766 10.0293V11.4355H22.5703V10.0293C22.5703 9.84282 22.4962 9.66397 22.3644 9.53211C22.2325 9.40025 22.0537 9.32617 21.8672 9.32617C21.6807 9.32617 21.5019 9.40025 21.37 9.53211C21.2381 9.66397 21.1641 9.84282 21.1641 10.0293V11.4355H19.7578V7.91992C19.758 7.73351 19.8322 7.55479 19.964 7.42297C20.0958 7.29115 20.2745 7.21701 20.4609 7.2168ZM18.3516 13.5449C18.3518 13.3585 18.4259 13.1798 18.5577 13.048C18.6896 12.9162 18.8683 12.842 19.0547 12.8418H27.4922C27.6787 12.8418 27.8575 12.9159 27.9894 13.0477C28.1212 13.1796 28.1953 13.3584 28.1953 13.5449C28.1953 13.7314 28.1212 13.9102 27.9894 14.0421C27.8575 14.174 27.6787 14.248 27.4922 14.248H19.0547C18.8683 14.2478 18.6896 14.1737 18.5577 14.0419C18.4259 13.9101 18.3518 13.7313 18.3516 13.5449ZM20.4609 15.6543H26.0859V17.0605H20.4609V15.6543Z" fill="white"/>
<path d="M23.7706 26.4071C23.7053 26.3418 23.6278 26.29 23.5425 26.2547C23.4572 26.2194 23.3658 26.2012 23.2734 26.2012C23.1811 26.2012 23.0897 26.2194 23.0044 26.2547C22.919 26.29 22.8415 26.3418 22.7762 26.4071C22.653 26.5304 19.7578 29.4609 19.7578 32.5293C19.7578 33.943 20.3953 35.0404 21.5527 35.6191C22.0891 35.8829 22.676 36.0281 23.2734 36.0449C23.8709 36.0281 24.4578 35.8829 24.9942 35.6191C26.1516 35.0404 26.7891 33.943 26.7891 32.5293C26.7891 29.4609 23.8939 26.5304 23.7706 26.4071ZM24.401 34.3431C24.0509 34.5184 23.6683 34.6191 23.2773 34.6387C22.8837 34.6203 22.4982 34.5196 22.1459 34.3431C21.4852 33.9977 21.1641 33.4045 21.1641 32.5293C21.1641 30.732 22.5167 28.8631 23.2734 27.9581C24.0302 28.8634 25.3828 30.732 25.3828 32.5293C25.3828 33.4045 25.0617 33.9977 24.401 34.3431Z" fill="white"/>
</svg>
