<svg width="36" height="36" viewBox="0 0 36 36" fill="none" xmlns="http://www.w3.org/2000/svg">
<path d="M32.6098 23.7276C32.6571 23.5384 32.5625 23.3492 32.3734 23.2546C32.1842 23.16 31.995 23.16 31.8531 23.3019L31.0017 23.9641C31.2382 22.7816 31.2855 21.5046 31.1436 20.133C31.1436 19.9438 31.0017 19.7546 30.8125 19.7073C30.718 19.7073 30.6707 19.7073 30.5761 19.7073C30.5761 18.4776 30.3869 17.2951 30.0558 16.16C30.0085 16.0181 29.8666 15.8762 29.7247 15.8289C29.5355 15.7816 29.3936 15.8289 29.2517 15.9708C29.2044 15.5451 29.299 15.1195 29.4409 14.6465C29.4882 14.4573 29.4409 14.2681 29.299 14.1262C29.1571 13.9843 28.9207 13.9843 28.7788 14.0789C28.3058 14.3627 27.8328 14.7411 27.4544 15.2613C27.4071 15.2141 27.3125 15.1668 27.2653 15.1195C27.0761 15.0722 26.9342 15.1195 26.7923 15.2141C25.7517 16.2546 24.9004 17.4843 24.3801 18.6668L24.1436 17.9573C24.0963 17.7681 23.9071 17.6262 23.718 17.6262C23.5288 17.6262 23.3396 17.7208 23.245 17.91C22.6774 19.2816 22.4882 21.3154 22.5355 22.7343C22.4409 22.7343 22.3936 22.7343 22.299 22.7816C22.1098 22.8762 22.0153 23.0181 22.0153 23.2546C22.0625 23.9168 22.1098 24.6735 22.3463 25.383C22.2517 25.383 22.2044 25.4303 22.1098 25.5249C22.0153 25.6195 21.968 25.7613 21.968 25.9032C21.5896 25.8086 21.2112 25.7613 20.8801 25.7141C20.6909 25.7141 20.5017 25.8086 20.4071 25.9505C20.3598 25.9978 20.3598 26.0451 20.3598 26.0924C20.218 26.0924 20.0761 26.0924 19.9342 26.1397C20.5963 22.5924 20.549 20.3695 19.6977 19.2816C18.9882 18.3357 17.8058 17.7681 16.6707 17.3897C17.0017 17.0586 17.1909 16.5857 17.1909 16.0654V12.187C17.1909 11.2411 16.5288 10.437 15.5828 10.2478C14.8734 9.25459 14.5896 8.02486 14.6842 6.79513L14.8261 5.04513V4.99784C14.7788 3.57892 13.5963 2.39648 12.1774 2.39648C10.7585 2.39648 9.57606 3.57892 9.52876 4.99784V5.04513L9.67066 6.79513C9.76525 8.02486 9.43417 9.25459 8.77201 10.2478C7.87336 10.437 7.2112 11.2411 7.2112 12.187V16.0654C7.2112 16.5857 7.40039 17.0586 7.73147 17.3897C6.59633 17.7681 5.4139 18.3357 4.70444 19.2816C2.76525 22.0722 6.07606 32.2411 6.45444 33.3762C6.50174 33.5654 6.69093 33.7073 6.88012 33.7073H17.6639C17.8531 33.7073 18.0423 33.5654 18.0896 33.3762C18.0896 33.3762 18.1369 33.2816 18.1369 33.187C19.0828 33.3289 19.9342 33.3289 20.7855 33.2343C20.7855 33.3289 20.7855 33.3762 20.8328 33.4708C20.9274 33.6127 21.0693 33.7073 21.2585 33.7073H21.3531C23.1504 33.3762 24.2855 32.9505 24.995 32.2411L25.0896 32.1465C25.1369 32.0519 25.4207 31.91 25.5625 31.7681C25.8936 31.5316 26.3193 31.2951 26.6031 30.9168H26.6504C26.9342 31.3897 27.3598 31.8154 27.8328 32.1465C28.1166 32.3357 28.5423 32.714 28.6842 33.0924C28.7315 33.2816 28.9207 33.4235 29.1098 33.4235C29.1571 33.4235 29.2044 33.4235 29.2517 33.3762C29.4882 33.2816 29.6301 32.9978 29.5355 32.7613C29.3463 32.2411 28.9207 31.7681 28.3531 31.3424C28.1166 31.1532 27.8801 30.9641 27.6909 30.7276C29.2044 30.2073 31.995 28.3154 32.6098 23.7276ZM10.7112 6.79513L10.5693 5.09243C10.6166 4.19378 11.3734 3.43702 12.272 3.43702C13.1707 3.43702 13.9274 4.19378 13.9747 5.09243L13.8328 6.79513C13.7382 8.02486 13.9747 9.2073 14.5423 10.2951H10.0017C10.5693 9.2073 10.8058 8.02486 10.7112 6.79513ZM8.25174 12.2343C8.25174 11.6668 8.72471 11.1938 9.29228 11.1938H15.3463C15.9139 11.1938 16.3869 11.6668 16.3869 12.2343V16.1127C16.3869 16.633 15.9612 17.0586 15.4409 17.1059H15.3936H15.3463H9.24498H9.19768H9.15039C8.63012 17.0586 8.20444 16.633 8.20444 16.1127V12.2343H8.25174ZM12.8869 18.0992V26.7546C12.8869 27.0857 12.6031 27.3695 12.272 27.3695C11.9409 27.3695 11.6571 27.0857 11.6571 26.7546V18.0992H12.8869ZM17.3328 32.7613H7.25849C6.21795 29.5451 4.13687 21.8357 5.55579 19.8965C6.17066 19.0924 7.44768 18.4303 9.15039 18.0992H9.24498H10.7112V26.7546C10.7112 27.6059 11.4207 28.3154 12.272 28.3154C13.1234 28.3154 13.8328 27.6059 13.8328 26.7546V18.0992H15.299H15.4409C17.1436 18.4776 18.4207 19.0924 19.0355 19.8965C19.4139 20.4168 19.8869 21.883 19.0355 26.3289C18.5625 26.4235 18.0423 26.5654 17.522 26.8019C17.3328 26.8492 17.2382 27.0384 17.1909 27.2276C17.1909 27.2749 17.1909 27.3695 17.2382 27.4168C16.245 27.7478 15.1571 28.41 14.2112 29.2613C14.0693 29.4032 14.022 29.5451 14.0693 29.7343C14.0693 29.7816 14.1166 29.8289 14.1166 29.8762C13.7382 30.16 13.4071 30.4911 13.1707 30.8222C13.0761 31.0113 13.0761 31.2005 13.1707 31.3897C13.3125 31.5316 13.5017 31.6262 13.6909 31.5789C13.9747 31.4843 14.2585 31.437 14.5423 31.4843C14.495 31.5789 14.495 31.6735 14.495 31.7681C14.5423 31.9573 14.6369 32.0519 14.7788 32.1465C15.5828 32.4303 16.4342 32.6195 17.3328 32.7141C17.3328 32.6668 17.3328 32.714 17.3328 32.7613ZM25.0423 30.9641C24.7585 31.1532 24.4747 31.3424 24.2855 31.5789C23.8125 32.0046 23.1504 32.2884 22.4409 32.4776C22.4409 32.4303 22.3936 32.3357 22.3936 32.2884C22.299 32.0992 22.0625 32.0046 21.8734 32.0519C21.022 32.2884 20.1707 32.383 19.1774 32.3357C19.1774 32.2411 19.1774 32.1465 19.1774 32.0992C19.1301 31.91 18.9409 31.7681 18.7044 31.7681C17.7112 31.8154 16.7653 31.7208 15.8666 31.4843C15.9139 31.3897 15.9612 31.2951 15.9612 31.1532C15.9612 31.0113 15.8193 30.8695 15.6774 30.7749C15.3936 30.633 15.1098 30.5384 14.7788 30.5384C14.968 30.4438 15.1571 30.3019 15.3463 30.2073C15.5355 30.1127 15.6301 29.9235 15.6301 29.7343C15.6301 29.5924 15.5355 29.4978 15.4882 29.4032C16.4342 28.6938 17.522 28.2208 18.3734 28.1262C18.5625 28.0789 18.7517 27.937 18.799 27.7478C18.799 27.6532 18.799 27.5113 18.7517 27.4168C19.745 27.133 20.549 27.0857 21.2112 27.2276C21.4004 27.2749 21.5896 27.1803 21.7315 26.9911C21.7788 26.9438 21.7788 26.8965 21.7788 26.8492C22.2044 26.9438 22.5355 27.0857 22.772 27.2749C23.1504 27.8424 23.5288 28.3627 23.9544 28.7884C22.2517 28.5046 19.9342 28.5046 17.3801 29.5451C17.1436 29.6397 17.049 29.9235 17.1436 30.16C17.2382 30.3492 17.3801 30.4438 17.5693 30.4438C17.6166 30.4438 17.7112 30.4438 17.7585 30.3965C20.9274 29.0249 23.718 29.4978 25.5153 30.1127C25.6098 30.2073 25.7044 30.2546 25.799 30.3019C25.6098 30.633 25.3261 30.8222 25.0423 30.9641ZM27.218 29.9708C27.1707 29.8762 27.1234 29.7816 27.0761 29.687C26.4612 27.7478 25.7044 23.9168 27.7855 19.6127C27.8801 19.3762 27.7855 19.0924 27.549 18.9978C27.3125 18.9032 27.0288 18.9978 26.9342 19.2343C24.9004 23.4438 25.3734 27.2749 25.9882 29.4505C26.6031 31.6262 25.9882 29.4505 25.9409 29.4505C24.995 28.7411 24.1909 27.8897 23.4815 26.8965C23.5761 26.8492 23.6707 26.8019 23.7653 26.7073C23.9071 26.5181 23.8598 26.2816 23.718 26.0924C23.3396 25.7141 23.1031 25.1465 22.9612 24.3424C23.0558 24.3424 23.1031 24.3424 23.1977 24.2951C23.3869 24.2005 23.4815 24.0113 23.4342 23.8222C23.245 22.7816 23.2923 21.1262 23.5761 19.7546L23.8125 20.4168C23.9071 20.6059 24.0963 20.7478 24.2855 20.7478C24.522 20.7478 24.6639 20.5586 24.7112 20.3695C24.9004 19.2343 25.6098 17.8627 26.6504 16.6803C26.6977 16.8222 26.8396 16.9641 27.0288 16.9641C27.218 17.0113 27.4071 16.9168 27.5017 16.7276C27.6909 16.3492 27.9274 16.0654 28.1639 15.7816C28.1639 16.2546 28.2585 16.7276 28.4477 17.2005C28.495 17.3424 28.6369 17.437 28.7788 17.4843C28.9207 17.5316 29.1098 17.437 29.2044 17.3424C29.4882 18.5722 29.5355 19.8492 29.4409 21.1262C29.4409 21.3627 29.5355 21.5519 29.772 21.5992C29.9139 21.6465 30.0558 21.6465 30.1504 21.5519C30.1504 22.8289 30.0085 24.0113 29.6301 25.0992C29.5828 25.2884 29.6301 25.5249 29.8193 25.6195C30.0085 25.7613 30.1977 25.7141 30.3869 25.6195L31.3801 24.8627C30.5761 28.2681 28.2112 29.6397 27.218 29.9708Z" fill="white"/>
<path d="M8.72437 19.6596C7.77842 19.9434 7.06896 20.3218 6.73788 20.7002C6.69058 20.7475 6.69058 20.7948 6.64328 20.8421C6.07572 22.1664 7.02166 27.0853 8.1568 31.011C8.20409 31.2002 8.39328 31.3421 8.62977 31.3421H8.77166C9.00815 31.2475 9.15004 31.011 9.10274 30.7745C7.73112 26.234 7.21085 22.3083 7.49464 21.315C7.68382 21.1731 8.1568 20.8421 8.96085 20.6056C9.19734 20.511 9.33923 20.2745 9.29193 20.038C9.24464 19.7069 8.96085 19.565 8.72437 19.6596Z" fill="white"/>
<path d="M10.1434 15.733C10.4272 15.733 10.6164 15.5438 10.6164 15.26V13.5573H14.4474C14.7312 13.5573 14.9204 13.3681 14.9204 13.0843C14.9204 12.8005 14.7312 12.6113 14.4474 12.6113H10.1434C9.8596 12.6113 9.67041 12.8005 9.67041 13.0843V15.26C9.67041 15.5438 9.8596 15.733 10.1434 15.733Z" fill="white"/>
</svg>
