<svg width="46" height="46" viewBox="0 0 46 46" fill="none" xmlns="http://www.w3.org/2000/svg">
<g clip-path="url(#clip0_461_49791)">
<path d="M14.481 31.1523H15.8886V32.472H14.481V31.1523Z" fill="white"/>
<path d="M17.2959 31.1523H18.7035V32.472H17.2959V31.1523Z" fill="white"/>
<path d="M11.6655 31.1523H13.0732V32.472H11.6655V31.1523Z" fill="white"/>
<path d="M7.39875 40.2149H20.1114V38.8952H7.39875V24.731H22.9706V26.8864H24.2902V20.2789L19.5929 15.5814H21.475V8.63129H17.9559V2.95681C17.9559 1.42874 16.7127 0.185547 15.1847 0.185547C13.6566 0.185547 12.4134 1.42874 12.4134 2.95681V7.17968H13.7331V2.95681C13.7331 2.1564 14.3843 1.50519 15.1847 1.50519C15.9851 1.50519 16.6363 2.1564 16.6363 2.95681V8.63129H8.89435V15.5814H10.7764L6.0791 20.2789V43.7339H18.7037V42.4143H7.39875V40.2149ZM7.39875 23.4114V21.2119H22.9706V23.4114H7.39875ZM13.0292 14.2618V9.95094H14.5248V14.2618H13.0292ZM15.8445 9.95094H17.3401V14.2618H15.8445V9.95094ZM20.1553 14.2618H18.6597V9.95094H20.1553V14.2618ZM10.214 9.95094H11.7096V14.2618H10.214V9.95094ZM17.7266 15.5814L22.0374 19.8923H8.33192L12.6428 15.5814H17.7266Z" fill="white"/>
<path d="M33.4836 38.1038C36.7277 38.1038 39.3267 36.6733 39.4357 36.6124L40.4675 36.0363L39.4357 35.4602C39.3267 35.3994 36.7277 33.9689 33.4836 33.9689C33.2848 33.9689 33.0886 33.9744 32.8952 33.9844C33.1328 33.7816 33.3681 33.5657 33.5982 33.3357C36.0239 30.9099 36.8976 27.8975 36.9336 27.7705L37.2557 26.6335L36.1188 26.9557C35.9918 26.9917 32.9793 27.8653 30.5535 30.2912C30.3234 30.5212 30.1075 30.7566 29.9048 30.9942C29.9149 30.8007 29.9203 30.6045 29.9203 30.4058C29.9203 27.1617 28.4898 24.5627 28.429 24.4536L27.8529 23.4219L27.2768 24.4536C27.2159 24.5627 25.7854 27.1617 25.7854 30.4058C25.7854 32.1352 26.1919 33.6809 26.5807 34.7642C26.4425 34.7145 26.2966 34.6647 26.1439 34.6154C25.2044 34.1363 24.0557 33.4175 23.0408 32.4026C21.8144 31.1763 21.0201 29.7544 20.5591 28.7426C21.571 29.2036 22.9927 29.9979 24.2191 31.2243L25.1523 30.2912C22.7265 27.8654 19.7141 26.9918 19.587 26.9557L18.45 26.6335L18.7722 27.7705C18.8082 27.8975 19.6819 30.9099 22.1076 33.3357C22.3376 33.5657 22.573 33.7817 22.8106 33.9844C22.6171 33.9743 22.4209 33.9689 22.2222 33.9689C18.9781 33.9689 16.3791 35.3994 16.2701 35.4602L15.2383 36.0363L16.2701 36.6124C16.3794 36.6733 18.9784 38.1038 22.2226 38.1038C22.5328 38.1038 22.837 38.0905 23.1338 38.0668C23.0849 38.1137 23.036 38.1607 22.9876 38.2091C20.9461 40.2506 20.2105 42.7875 20.1801 42.8945L19.8579 44.0314L20.9948 43.7093C21.1018 43.6789 23.6388 42.9432 25.6804 40.9017C26.2994 40.2827 26.7976 39.6184 27.1932 38.9899V45.1859H28.5129V38.9899C28.9085 39.6184 29.4067 40.2827 30.0257 40.9017C32.0673 42.9432 34.6043 43.6789 34.7113 43.7093L35.8482 44.0314L35.526 42.8945C35.4957 42.7875 34.76 40.2505 32.7185 38.2091C31.6948 37.1854 30.5466 36.4902 29.6427 36.0474C29.7777 35.9849 29.9185 35.9173 30.0642 35.8442C30.9922 35.5522 32.1878 35.2884 33.4836 35.2884C35.0612 35.2884 36.4917 35.6792 37.4693 36.0362C36.4917 36.3933 35.0612 36.7841 33.4836 36.7841V38.1038ZM31.4868 31.2243C32.7131 29.9979 34.135 29.2035 35.1468 28.7425C34.6858 29.7545 33.8915 31.1762 32.6651 32.4026C31.6495 33.4182 30.5005 34.1368 29.5608 34.6158C29.4086 34.665 29.2631 34.7147 29.1253 34.7642C29.1747 34.6264 29.2244 34.481 29.2735 34.3289C29.7526 33.3889 30.4711 32.2399 31.4868 31.2243ZM27.854 26.4175C28.2108 27.3926 28.6009 28.8213 28.6009 30.4058C28.6009 31.701 28.3374 32.8967 28.0455 33.8244C27.963 33.989 27.8869 34.1478 27.8179 34.2985C27.4709 33.3267 27.1052 31.94 27.1052 30.4058C27.1053 28.8269 27.4968 27.3951 27.854 26.4175ZM22.2226 36.7841C20.645 36.7841 19.2145 36.3933 18.2368 36.0363C19.2145 35.6793 20.645 35.2885 22.2226 35.2885C23.5178 35.2885 24.7134 35.552 25.6412 35.8439C25.7872 35.917 25.9282 35.9848 26.0635 36.0474C25.9827 36.087 25.8994 36.1292 25.8148 36.1729C24.8651 36.4862 23.6 36.7841 22.2226 36.7841ZM24.7471 39.9686C23.8433 40.8725 22.8097 41.4919 22.0048 41.8845C22.3975 41.0796 23.0168 40.0461 23.9208 39.1421C24.7043 38.3586 25.5849 37.7892 26.3298 37.3957C26.4342 37.3604 26.5346 37.3252 26.6314 37.29C26.2375 38.0853 25.6277 39.088 24.7471 39.9686ZM33.7013 41.8845C32.8964 41.4918 31.8629 40.8725 30.959 39.9686C30.055 39.0646 29.4356 38.0311 29.043 37.2263C29.8479 37.6189 30.8814 38.2383 31.7853 39.1421C32.6893 40.0461 33.3088 41.0797 33.7013 41.8845Z" fill="white"/>
</g>
<defs>
<clipPath id="clip0_461_49791">
<rect width="45" height="45" fill="white" transform="translate(0.773438 0.185547)"/>
</clipPath>
</defs>
</svg>
