<svg width="46" height="46" viewBox="0 0 46 46" fill="none" xmlns="http://www.w3.org/2000/svg">
<g clip-path="url(#clip0_461_49831)">
<path d="M32.4917 27.2914C32.4291 27.1815 32.337 27.0914 32.2258 27.0311C32.1146 26.9708 31.9887 26.9429 31.8624 26.9504C31.7364 26.9551 31.614 26.9937 31.508 27.0619C31.402 27.1302 31.3163 27.2258 31.2599 27.3385C30.4259 29.0053 29.0287 30.323 27.316 31.0581L26.7922 31.2824C26.2178 31.528 25.7283 31.937 25.3844 32.4585C25.0405 32.9801 24.8575 33.5911 24.8579 34.2158C24.8597 35.1283 25.1556 36.016 25.7017 36.7471C26.165 37.3594 26.7541 37.8655 27.4292 38.2314C26.998 38.7387 26.5196 39.2039 26.0005 39.6207L25.8247 39.7614L26.7036 40.8582L26.8794 40.7176C27.5931 40.1424 28.2377 39.4865 28.8003 38.7629C29.1982 38.856 29.6054 38.9032 30.0139 38.9035C31.2567 38.9021 32.4482 38.4077 33.327 37.5289C34.2058 36.6501 34.7002 35.4586 34.7017 34.2158C34.7016 32.0948 34.1252 30.0137 33.0338 28.195L32.4917 27.2914ZM30.0139 37.4973C29.9049 37.4973 29.7981 37.4868 29.6905 37.4783C30.4329 36.2199 30.9366 34.8352 31.1762 33.3939L29.7896 33.1632C29.5535 34.5616 29.0356 35.8974 28.2674 37.0895C27.7 36.8136 27.2063 36.4071 26.8267 35.9033C26.4623 35.4161 26.265 34.8242 26.2642 34.2158C26.2638 33.8665 26.3662 33.5248 26.5584 33.2332C26.7507 32.9415 27.0244 32.7128 27.3456 32.5754L27.8694 32.3511C29.5006 31.6513 30.8974 30.4992 31.8948 29.031C32.812 30.605 33.2953 32.3941 33.2954 34.2158C33.2943 35.0858 32.9482 35.9198 32.3331 36.5349C31.7179 37.1501 30.8839 37.4962 30.0139 37.4973Z" fill="white"/>
<path d="M10.0536 29.1778C9.6329 29.4579 9.28791 29.8375 9.04932 30.2831C8.81073 30.7286 8.68594 31.2262 8.68604 31.7316V43.1222C8.68604 45.1725 13.7359 45.2316 14.311 45.2316C14.8862 45.2316 19.936 45.1725 19.936 43.1222V40.2717C20.398 40.2942 20.8663 40.3097 21.3423 40.3097V42.4191C21.3423 44.6388 26.646 45.2316 29.7798 45.2316C32.9136 45.2316 38.2173 44.6388 38.2173 42.4191V23.6006C38.2188 22.9972 38.0515 22.4054 37.7343 21.8921C37.4171 21.3788 36.9626 20.9645 36.4222 20.696C36.1156 20.5443 35.8577 20.3096 35.6779 20.0187C35.498 19.7277 35.4034 19.3921 35.4048 19.05V18.8813C36.2654 18.4425 36.811 17.8519 36.811 17.1066V14.2941C36.811 13.7091 36.4524 12.9152 34.8943 12.293L35.3978 8.76891H35.3893C35.3893 8.73516 35.4048 8.70563 35.4048 8.67047C35.4048 6.62016 30.3549 6.56109 29.7798 6.56109C28.6861 6.56504 27.5955 6.67834 26.5243 6.8993L26.9603 3.84844H26.9518C26.9518 3.81469 26.9673 3.78516 26.9673 3.75C26.9673 1.69969 21.9174 1.64062 21.3423 1.64062C20.7671 1.64062 15.7173 1.69969 15.7173 3.75C15.7173 3.78516 15.7299 3.81469 15.7328 3.84844H15.7243L16.2278 7.3725C14.6696 7.99336 14.311 8.78719 14.311 9.37219V12.1847C14.311 12.93 14.8567 13.5171 15.7173 13.9594V14.1281C15.7187 14.4702 15.6241 14.8058 15.4442 15.0968C15.2644 15.3878 15.0065 15.6224 14.6999 15.7741C14.1596 16.0426 13.7052 16.4568 13.388 16.97C13.0708 17.4831 12.9034 18.0748 12.9048 18.678V19.9943C10.9972 20.2052 9.38916 20.8535 9.38916 22.0284V26.2472C9.38916 26.9384 9.95166 27.4467 10.7954 27.7941C10.7953 28.068 10.7275 28.3376 10.5981 28.579C10.4687 28.8204 10.2817 29.0261 10.0536 29.1778ZM10.0923 34.8197C11.2357 35.1605 12.4162 35.3619 13.6079 35.4194V41.0184C12.4113 40.9538 11.2288 40.7284 10.0923 40.3484V34.8197ZM14.311 43.8253C11.8656 43.8253 10.3876 43.3205 10.0923 43.0322V41.8207C11.4611 42.2308 12.8821 42.4404 14.311 42.443C14.5 42.4376 14.6793 42.3586 14.8107 42.2227C14.9421 42.0868 15.0152 41.9049 15.0142 41.7159V34.7325C15.0142 34.546 14.9401 34.3672 14.8082 34.2353C14.6764 34.1035 14.4975 34.0294 14.311 34.0294C12.8768 34.026 11.4524 33.7924 10.0923 33.3375V32.062C11.4702 32.4161 12.8884 32.5887 14.311 32.5753C15.7336 32.5887 17.1519 32.4161 18.5298 32.062V43.0308C18.2345 43.3205 16.7565 43.8253 14.311 43.8253ZM29.7798 43.8253C25.5301 43.8253 22.9405 42.8909 22.7485 42.4191V23.9318C25.0324 24.5905 27.4034 24.8971 29.7798 24.8409C32.1561 24.8971 34.5271 24.5905 36.811 23.9318L36.8153 42.3895C36.6191 42.8909 34.0295 43.8253 29.7798 43.8253ZM35.7936 21.9581C36.0719 22.0999 36.3094 22.3105 36.4834 22.5698C34.3076 23.2059 32.0457 23.4978 29.7798 23.4347C27.5137 23.4963 25.2518 23.2033 23.0762 22.5663C23.25 22.3066 23.4875 22.0957 23.766 21.9539C24.2518 21.7125 24.6689 21.3524 24.9784 20.9068C25.2879 20.4612 25.4799 19.9447 25.5364 19.4051C26.9225 19.7604 28.349 19.9332 29.7798 19.9191C31.2106 19.9332 32.6371 19.7604 34.0231 19.4051C34.0794 19.9453 34.2711 20.4626 34.5806 20.9089C34.8901 21.3552 35.3074 21.7161 35.7936 21.9581ZM29.7798 18.5128C26.0891 18.5128 24.1548 17.468 24.1548 17.1066V16.0688C25.9329 16.8166 27.8519 17.1706 29.7798 17.1066C31.7077 17.1706 33.6266 16.8166 35.4048 16.0688V17.1066C35.4048 17.468 33.4705 18.5128 29.7798 18.5128ZM15.7173 12.1847V11.1469C17.4954 11.8947 19.4144 12.2487 21.3423 12.1847C22.4375 12.1889 23.5307 12.0907 24.6076 11.8915L24.6653 12.293C23.9867 12.5066 23.395 12.9331 22.9778 13.5094C22.4476 13.5593 21.9048 13.5909 21.3423 13.5909C17.6516 13.5909 15.7173 12.5461 15.7173 12.1847ZM35.4048 14.2941C35.4048 14.6555 33.4705 15.7003 29.7798 15.7003C26.0891 15.7003 24.1548 14.6555 24.1548 14.2941C24.1548 14.2463 24.2996 14.0079 24.8762 13.7316C24.9003 13.8525 24.9559 13.9649 25.0372 14.0576C25.1185 14.1503 25.2228 14.22 25.3396 14.2596L25.4471 14.2955C26.8441 14.7613 28.3072 14.9983 29.7798 14.9972C31.2522 14.9979 32.7151 14.7605 34.1117 14.2941L34.22 14.2582C34.3368 14.2185 34.441 14.1489 34.5224 14.0562C34.6037 13.9635 34.6592 13.8511 34.6834 13.7302C35.2599 14.0079 35.4048 14.2463 35.4048 14.2941ZM25.7931 10.2405C27.0906 10.6039 28.4324 10.7849 29.7798 10.7784C31.1272 10.7849 32.469 10.6039 33.7665 10.2405L33.365 13.053C31.0271 13.7628 28.5311 13.7628 26.1931 13.053L25.7931 10.2405ZM33.8783 8.66906C32.5841 9.21443 31.1818 9.455 29.7798 9.37219C28.3778 9.455 26.9755 9.21443 25.6813 8.66906C26.9755 8.12369 28.3778 7.88312 29.7798 7.96594C31.1818 7.88312 32.5841 8.12369 33.8783 8.66906ZM24.2096 8.32172C22.08 8.83265 19.8528 8.7681 17.7563 8.13469L17.3549 5.32219C18.6528 5.68437 19.9948 5.86422 21.3423 5.85656C22.6897 5.86297 24.0315 5.68194 25.329 5.31867L25.0267 7.43578C24.6522 7.6173 24.3603 7.93381 24.2096 8.32172ZM21.3423 3.04406C22.7443 2.96125 24.1466 3.20182 25.4408 3.74719C24.1466 4.29256 22.7443 4.53313 21.3423 4.45031C19.9403 4.53313 18.538 4.29256 17.2438 3.74719C18.538 3.20182 19.9403 2.96125 21.3423 3.04406ZM16.4387 8.80969C16.4628 8.9306 16.5184 9.04305 16.5997 9.13573C16.681 9.22841 16.7853 9.29808 16.9021 9.33773L17.0096 9.37359C18.4066 9.83947 19.8697 10.0764 21.3423 10.0753C22.3377 10.074 23.3301 9.96417 24.3017 9.74766L24.4086 10.4965C23.3979 10.6888 22.3711 10.7832 21.3423 10.7784C17.6516 10.7784 15.7173 9.73359 15.7173 9.37219C15.7173 9.32438 15.8621 9.08602 16.4387 8.80969ZM15.3285 17.0363C15.8143 16.7949 16.2314 16.4347 16.5409 15.9891C16.8504 15.5435 17.0424 15.027 17.0989 14.4874C18.4852 14.8413 19.9117 15.0127 21.3423 14.9972C21.8204 14.9972 22.288 14.974 22.7485 14.9402V17.1066C22.759 17.3681 22.8291 17.6239 22.9535 17.8542C23.0779 18.0845 23.2534 18.2833 23.4664 18.4355C22.7767 18.4819 22.0721 18.5128 21.3423 18.5128C19.0762 18.5744 16.8143 18.2814 14.6387 17.6445C14.8125 17.3847 15.05 17.1739 15.3285 17.032V17.0363ZM14.311 19.0099C16.5949 19.6686 18.9659 19.9752 21.3423 19.9191C22.2514 19.9191 23.1254 19.8727 23.9762 19.8038C23.8081 20.1892 23.5117 20.5044 23.1374 20.696C22.5971 20.9645 22.1427 21.3787 21.8255 21.8918C21.5083 22.405 21.3409 22.9966 21.3423 23.5999V38.895C20.8684 38.895 20.4015 38.883 19.936 38.8591V31.7316C19.9365 31.2258 19.8119 30.7278 19.5732 30.2819C19.3346 29.8359 18.9895 29.4559 18.5685 29.1757C18.3407 29.0242 18.1539 28.8188 18.0245 28.5778C17.8951 28.3368 17.8271 28.0676 17.8267 27.7941C18.6704 27.4488 19.2329 26.9405 19.2329 26.2472V22.0284C19.2329 20.5716 16.7607 19.9191 14.311 19.9191V19.0099ZM10.7954 26.1874V23.5753C11.9231 23.9758 13.1147 24.1664 14.311 24.1378C15.5074 24.1664 16.6989 23.9758 17.8267 23.5753V26.1895C17.6199 26.4321 16.4127 26.9503 14.311 26.9503C12.2094 26.9503 11.0021 26.4321 10.7954 26.1874ZM14.311 21.3253C16.2545 21.3253 17.4322 21.7683 17.7627 22.0284C17.4322 22.2886 16.2545 22.7316 14.311 22.7316C12.3676 22.7316 11.1899 22.2886 10.8594 22.0284C11.1899 21.7683 12.3676 21.3253 14.311 21.3253ZM14.311 28.3566C15.026 28.359 15.7398 28.2988 16.4443 28.1766C16.4992 28.6137 16.6477 29.034 16.8795 29.4086C17.1114 29.7833 17.4212 30.1036 17.788 30.3478C17.931 30.4466 18.0575 30.5674 18.1628 30.7057C16.9047 31.028 15.6097 31.1838 14.311 31.1691C13.0124 31.1838 11.7174 31.028 10.4593 30.7057C10.5646 30.5674 10.6911 30.4466 10.8341 30.3478C11.2008 30.1036 11.5107 29.7833 11.7426 29.4086C11.9744 29.034 12.1228 28.6137 12.1778 28.1766C12.8822 28.2988 13.596 28.359 14.311 28.3566Z" fill="white"/>
</g>
<defs>
<clipPath id="clip0_461_49831">
<rect width="45" height="45" fill="white" transform="translate(0.95166 0.935547)"/>
</clipPath>
</defs>
</svg>
