<svg width="30" height="30" viewBox="0 0 30 30" fill="none" xmlns="http://www.w3.org/2000/svg">
<path d="M27.203 19.8238C27.2435 19.6617 27.1624 19.4995 27.0003 19.4184C26.8381 19.3373 26.6759 19.3373 26.5543 19.459L25.8246 20.0265C26.0273 19.013 26.0678 17.9184 25.9462 16.7427C25.9462 16.5806 25.8246 16.4184 25.6624 16.3779C25.5813 16.3779 25.5408 16.3779 25.4597 16.3779C25.4597 15.3238 25.2976 14.3103 25.0138 13.3373C24.9732 13.2157 24.8516 13.0941 24.73 13.0536C24.5678 13.013 24.4462 13.0536 24.3246 13.1752C24.2841 12.8103 24.3651 12.4454 24.4868 12.04C24.5273 11.8779 24.4868 11.7157 24.3651 11.5941C24.2435 11.4725 24.0408 11.4725 23.9192 11.5536C23.5138 11.7968 23.1084 12.1211 22.7841 12.5671C22.7435 12.5265 22.6624 12.486 22.6219 12.4454C22.4597 12.4049 22.3381 12.4454 22.2165 12.5265C21.3246 13.4184 20.5949 14.4725 20.1489 15.486L19.9462 14.8779C19.9057 14.7157 19.7435 14.5941 19.5813 14.5941C19.4192 14.5941 19.257 14.6752 19.1759 14.8373C18.6895 16.013 18.5273 17.7563 18.5678 18.9725C18.4868 18.9725 18.4462 18.9725 18.3651 19.013C18.203 19.0941 18.1219 19.2157 18.1219 19.4184C18.1624 19.986 18.203 20.6346 18.4057 21.2427C18.3246 21.2427 18.2841 21.2833 18.203 21.3644C18.1219 21.4454 18.0813 21.5671 18.0813 21.6887C17.757 21.6076 17.4327 21.5671 17.1489 21.5265C16.9868 21.5265 16.8246 21.6076 16.7435 21.7292C16.703 21.7698 16.703 21.8103 16.703 21.8508C16.5813 21.8508 16.4597 21.8508 16.3381 21.8914C16.9057 18.8508 16.8651 16.9454 16.1354 16.013C15.5273 15.2022 14.5138 14.7157 13.5408 14.3914C13.8246 14.1076 13.9868 13.7022 13.9868 13.2563V9.93193C13.9868 9.12112 13.4192 8.43193 12.6084 8.26977C12.0003 7.41842 11.757 6.36436 11.8381 5.31031L11.9597 3.81031V3.76977C11.9192 2.55355 10.9057 1.54004 9.68946 1.54004C8.47324 1.54004 7.45973 2.55355 7.41919 3.76977V3.81031L7.54081 5.31031C7.62189 6.36436 7.33811 7.41842 6.77054 8.26977C6.00027 8.43193 5.4327 9.12112 5.4327 9.93193V13.2563C5.4327 13.7022 5.59486 14.1076 5.87865 14.3914C4.90567 14.7157 3.89216 15.2022 3.28405 16.013C1.62189 18.4049 4.45973 27.1211 4.78405 28.0941C4.82459 28.2563 4.98675 28.3779 5.14892 28.3779H14.3922C14.5543 28.3779 14.7165 28.2563 14.757 28.0941C14.757 28.0941 14.7976 28.013 14.7976 27.9319C15.6084 28.0535 16.3381 28.0535 17.0678 27.9725C17.0678 28.0535 17.0678 28.0941 17.1084 28.1752C17.1895 28.2968 17.3111 28.3779 17.4732 28.3779H17.5543C19.0949 28.0941 20.0678 27.7292 20.6759 27.1211L20.757 27.04C20.7976 26.959 21.0408 26.8373 21.1624 26.7157C21.4462 26.513 21.8111 26.3103 22.0543 25.986H22.0949C22.3381 26.3914 22.703 26.7563 23.1084 27.04C23.3516 27.2022 23.7165 27.5265 23.8381 27.8508C23.8786 28.013 24.0408 28.1346 24.203 28.1346C24.2435 28.1346 24.2841 28.1346 24.3246 28.0941C24.5273 28.013 24.6489 27.7698 24.5678 27.5671C24.4057 27.1211 24.0408 26.7157 23.5543 26.3508C23.3516 26.1887 23.1489 26.0265 22.9868 25.8238C24.2841 25.3779 26.6759 23.7563 27.203 19.8238ZM8.4327 5.31031L8.31108 3.85085C8.35162 3.08058 9.00027 2.43193 9.77054 2.43193C10.5408 2.43193 11.1895 3.08058 11.23 3.85085L11.1084 5.31031C11.0273 6.36436 11.23 7.37788 11.7165 8.31031H7.82459C8.31108 7.37788 8.51378 6.36436 8.4327 5.31031ZM6.32459 9.97247C6.32459 9.48598 6.73 9.08058 7.21648 9.08058H12.4057C12.8922 9.08058 13.2976 9.48598 13.2976 9.97247V13.2968C13.2976 13.7427 12.9327 14.1076 12.4868 14.1481H12.4462H12.4057H7.17594H7.1354H7.09486C6.64892 14.1076 6.28405 13.7427 6.28405 13.2968V9.97247H6.32459ZM10.2976 14.9995V22.4184C10.2976 22.7022 10.0543 22.9454 9.77054 22.9454C9.48675 22.9454 9.24351 22.7022 9.24351 22.4184V14.9995H10.2976ZM14.1084 27.5671H5.47324C4.58135 24.8103 2.79756 18.2022 4.01378 16.54C4.54081 15.8508 5.6354 15.2833 7.09486 14.9995H7.17594H8.4327V22.4184C8.4327 23.1481 9.04081 23.7563 9.77054 23.7563C10.5003 23.7563 11.1084 23.1481 11.1084 22.4184V14.9995H12.3651H12.4868C13.9462 15.3238 15.0408 15.8508 15.5678 16.54C15.8922 16.986 16.2976 18.2427 15.5678 22.0536C15.1624 22.1346 14.7165 22.2563 14.2705 22.459C14.1084 22.4995 14.0273 22.6617 13.9868 22.8238C13.9868 22.8644 13.9868 22.9454 14.0273 22.986C13.1759 23.2698 12.2435 23.8373 11.4327 24.5671C11.3111 24.6887 11.2705 24.8103 11.3111 24.9725C11.3111 25.013 11.3516 25.0536 11.3516 25.0941C11.0273 25.3373 10.7435 25.6211 10.5408 25.9049C10.4597 26.0671 10.4597 26.2292 10.5408 26.3914C10.6624 26.513 10.8246 26.5941 10.9868 26.5536C11.23 26.4725 11.4732 26.4319 11.7165 26.4725C11.6759 26.5536 11.6759 26.6346 11.6759 26.7157C11.7165 26.8779 11.7976 26.959 11.9192 27.04C12.6084 27.2833 13.3381 27.4454 14.1084 27.5265C14.1084 27.486 14.1084 27.5265 14.1084 27.5671ZM20.7165 26.0265C20.4732 26.1887 20.23 26.3508 20.0678 26.5536C19.6624 26.9184 19.0949 27.1617 18.4868 27.3238C18.4868 27.2833 18.4462 27.2022 18.4462 27.1617C18.3651 26.9995 18.1624 26.9184 18.0003 26.959C17.2705 27.1617 16.5408 27.2427 15.6895 27.2022C15.6895 27.1211 15.6895 27.04 15.6895 26.9995C15.6489 26.8373 15.4868 26.7157 15.2841 26.7157C14.4327 26.7563 13.6219 26.6752 12.8516 26.4725C12.8922 26.3914 12.9327 26.3103 12.9327 26.1887C12.9327 26.0671 12.8111 25.9454 12.6895 25.8644C12.4462 25.7427 12.203 25.6617 11.9192 25.6617C12.0813 25.5806 12.2435 25.459 12.4057 25.3779C12.5678 25.2968 12.6489 25.1346 12.6489 24.9725C12.6489 24.8508 12.5678 24.7698 12.5273 24.6887C13.3381 24.0806 14.2705 23.6752 15.0003 23.5941C15.1624 23.5536 15.3246 23.4319 15.3651 23.2698C15.3651 23.1887 15.3651 23.0671 15.3246 22.986C16.1759 22.7427 16.8651 22.7022 17.4327 22.8238C17.5949 22.8644 17.757 22.7833 17.8786 22.6211C17.9192 22.5806 17.9192 22.54 17.9192 22.4995C18.2841 22.5806 18.5678 22.7022 18.7705 22.8644C19.0949 23.3508 19.4192 23.7968 19.7841 24.1617C18.3246 23.9184 16.3381 23.9184 14.1489 24.8103C13.9462 24.8914 13.8651 25.1346 13.9462 25.3373C14.0273 25.4995 14.1489 25.5806 14.3111 25.5806C14.3516 25.5806 14.4327 25.5806 14.4732 25.54C17.1895 24.3644 19.5813 24.7698 21.1219 25.2968C21.203 25.3779 21.2841 25.4184 21.3651 25.459C21.203 25.7427 20.9597 25.9049 20.7165 26.0265ZM22.5813 25.1752C22.5408 25.0941 22.5003 25.013 22.4597 24.9319C21.9327 23.2698 21.2841 19.986 23.0678 16.2968C23.1489 16.0941 23.0678 15.8508 22.8651 15.7698C22.6624 15.6887 22.4192 15.7698 22.3381 15.9725C20.5949 19.5806 21.0003 22.8644 21.5273 24.7292C22.0543 26.5941 21.5273 24.7292 21.4868 24.7292C20.6759 24.1211 19.9868 23.3914 19.3786 22.54C19.4597 22.4995 19.5408 22.459 19.6219 22.3779C19.7435 22.2157 19.703 22.013 19.5813 21.8508C19.257 21.5265 19.0543 21.04 18.9327 20.3508C19.0138 20.3508 19.0543 20.3508 19.1354 20.3103C19.2976 20.2292 19.3786 20.0671 19.3381 19.9049C19.1759 19.013 19.2165 17.5941 19.4597 16.4184L19.6624 16.986C19.7435 17.1481 19.9057 17.2698 20.0678 17.2698C20.2705 17.2698 20.3922 17.1076 20.4327 16.9454C20.5949 15.9725 21.203 14.7968 22.0949 13.7833C22.1354 13.9049 22.257 14.0265 22.4192 14.0265C22.5813 14.0671 22.7435 13.986 22.8246 13.8238C22.9868 13.4995 23.1895 13.2563 23.3922 13.013C23.3922 13.4184 23.4732 13.8238 23.6354 14.2292C23.6759 14.3508 23.7976 14.4319 23.9192 14.4725C24.0408 14.513 24.203 14.4319 24.2841 14.3508C24.5273 15.4049 24.5678 16.4995 24.4868 17.5941C24.4868 17.7968 24.5678 17.959 24.7705 17.9995C24.8922 18.04 25.0138 18.04 25.0949 17.959C25.0949 19.0536 24.9732 20.0671 24.6489 20.9995C24.6084 21.1617 24.6489 21.3644 24.8111 21.4454C24.9732 21.5671 25.1354 21.5265 25.2976 21.4454L26.1489 20.7968C25.4597 23.7157 23.4327 24.8914 22.5813 25.1752Z" fill="white"/>
<path d="M6.72998 16.3372C5.91917 16.5804 5.31106 16.9047 5.02728 17.2291C4.98674 17.2696 4.98674 17.3101 4.9462 17.3507C4.45971 18.4858 5.27052 22.702 6.24349 26.0669C6.28403 26.2291 6.4462 26.3507 6.6489 26.3507H6.77052C6.97322 26.2696 7.09485 26.0669 7.0543 25.8642C5.87863 21.9723 5.43268 18.6074 5.67593 17.7561C5.83809 17.6345 6.24349 17.3507 6.93268 17.148C7.13539 17.0669 7.25701 16.8642 7.21647 16.6615C7.17593 16.3777 6.93268 16.2561 6.72998 16.3372Z" fill="white"/>
<path d="M7.94447 12.973C8.18771 12.973 8.34987 12.8109 8.34987 12.5676V11.1082H11.6337C11.8769 11.1082 12.0391 10.946 12.0391 10.7028C12.0391 10.4595 11.8769 10.2974 11.6337 10.2974H7.94447C7.70122 10.2974 7.53906 10.4595 7.53906 10.7028V12.5676C7.53906 12.8109 7.70122 12.973 7.94447 12.973Z" fill="white"/>
</svg>
