<svg width="46" height="46" viewBox="0 0 46 46" fill="none" xmlns="http://www.w3.org/2000/svg">
<path d="M41.7556 30.6718C41.8164 30.4285 41.6948 30.1853 41.4516 30.0637C41.2083 29.942 40.9651 29.942 40.7827 30.1245L39.6881 30.9758C39.9921 29.4556 40.0529 27.8137 39.8705 26.0501C39.8705 25.8069 39.6881 25.5637 39.4448 25.5028C39.3232 25.5028 39.2624 25.5028 39.1408 25.5028C39.1408 23.9218 38.8975 22.4015 38.4718 20.942C38.411 20.7596 38.2286 20.5772 38.0462 20.5164C37.8029 20.4556 37.6205 20.5164 37.4381 20.6988C37.3772 20.1515 37.4989 19.6042 37.6813 18.9961C37.7421 18.7528 37.6813 18.5096 37.4989 18.3272C37.3164 18.1447 37.0124 18.1447 36.83 18.2664C36.2218 18.6312 35.6137 19.1177 35.1272 19.7866C35.0664 19.7258 34.9448 19.665 34.884 19.6042C34.6408 19.5434 34.4583 19.6042 34.2759 19.7258C32.9381 21.0637 31.8435 22.6447 31.1745 24.165L30.8705 23.2528C30.8097 23.0096 30.5664 22.8272 30.3232 22.8272C30.08 22.8272 29.8367 22.9488 29.7151 23.192C28.9854 24.9556 28.7421 27.5704 28.8029 29.3947C28.6813 29.3947 28.6205 29.3947 28.4989 29.4556C28.2556 29.5772 28.134 29.7596 28.134 30.0637C28.1948 30.915 28.2556 31.888 28.5597 32.8001C28.4381 32.8001 28.3772 32.861 28.2556 32.9826C28.134 33.1042 28.0732 33.2866 28.0732 33.4691C27.5867 33.3474 27.1002 33.2866 26.6745 33.2258C26.4313 33.2258 26.1881 33.3474 26.0664 33.5299C26.0056 33.5907 26.0056 33.6515 26.0056 33.7123C25.8232 33.7123 25.6408 33.7123 25.4583 33.7731C26.3097 29.2123 26.2489 26.3542 25.1543 24.9556C24.2421 23.7393 22.7218 23.0096 21.2624 22.5231C21.6881 22.0974 21.9313 21.4893 21.9313 20.8204V15.8339C21.9313 14.6177 21.08 13.5839 19.8637 13.3407C18.9516 12.0637 18.5867 10.4826 18.7083 8.9015L18.8908 6.6515V6.59069C18.83 4.76636 17.3097 3.24609 15.4854 3.24609C13.661 3.24609 12.1408 4.76636 12.08 6.59069V6.6515L12.2624 8.9015C12.384 10.4826 11.9583 12.0637 11.107 13.3407C9.95157 13.5839 9.10022 14.6177 9.10022 15.8339V20.8204C9.10022 21.4893 9.34346 22.0974 9.76914 22.5231C8.30968 23.0096 6.78941 23.7393 5.87725 24.9556C3.384 28.5434 7.64076 41.6177 8.12725 43.0772C8.18806 43.3204 8.4313 43.5028 8.67455 43.5028H22.5394C22.7827 43.5028 23.0259 43.3204 23.0867 43.0772C23.0867 43.0772 23.1475 42.9555 23.1475 42.8339C24.3637 43.0164 25.4583 43.0164 26.5529 42.8947C26.5529 43.0164 26.5529 43.0772 26.6137 43.1988C26.7354 43.3812 26.9178 43.5028 27.161 43.5028H27.2827C29.5935 43.0772 31.0529 42.5299 31.9651 41.6177L32.0867 41.4961C32.1475 41.3745 32.5124 41.192 32.6948 41.0096C33.1205 40.7056 33.6678 40.4015 34.0327 39.915H34.0935C34.4583 40.5231 35.0056 41.0704 35.6137 41.4961C35.9786 41.7393 36.5259 42.2258 36.7083 42.7123C36.7691 42.9555 37.0124 43.138 37.2556 43.138C37.3164 43.138 37.3772 43.138 37.4381 43.0772C37.7421 42.9555 37.9245 42.5907 37.8029 42.2866C37.5597 41.6177 37.0124 41.0096 36.2827 40.4623C35.9786 40.2191 35.6745 39.9758 35.4313 39.6718C37.3772 39.0028 40.9651 36.5704 41.7556 30.6718ZM13.6002 8.9015L13.4178 6.71231C13.4786 5.5569 14.4516 4.58393 15.607 4.58393C16.7624 4.58393 17.7354 5.5569 17.7962 6.71231L17.6137 8.9015C17.4921 10.4826 17.7962 12.0029 18.5259 13.4015H12.6881C13.4178 12.0029 13.7218 10.4826 13.6002 8.9015ZM10.4381 15.8947C10.4381 15.165 11.0462 14.5569 11.7759 14.5569H19.5597C20.2894 14.5569 20.8975 15.165 20.8975 15.8947V20.8812C20.8975 21.5501 20.3502 22.0974 19.6813 22.1583H19.6205H19.5597H11.7151H11.6543H11.5935C10.9245 22.0974 10.3772 21.5501 10.3772 20.8812V15.8947H10.4381ZM16.3975 23.4353V34.5637C16.3975 34.9893 16.0327 35.3542 15.607 35.3542C15.1813 35.3542 14.8164 34.9893 14.8164 34.5637V23.4353H16.3975ZM22.1137 42.2866H9.16103C7.82319 38.1515 5.14752 28.2393 6.97184 25.7461C7.76238 24.7123 9.40427 23.861 11.5935 23.4353H11.7151H13.6002V34.5637C13.6002 35.6583 14.5124 36.5704 15.607 36.5704C16.7016 36.5704 17.6137 35.6583 17.6137 34.5637V23.4353H19.4989H19.6813C21.8705 23.9218 23.5124 24.7123 24.3029 25.7461C24.7894 26.415 25.3975 28.3001 24.3029 34.0164C23.6948 34.138 23.0259 34.3204 22.357 34.6245C22.1137 34.6853 21.9921 34.9285 21.9313 35.1718C21.9313 35.2326 21.9313 35.3542 21.9921 35.415C20.7151 35.8407 19.3164 36.692 18.1002 37.7866C17.9178 37.9691 17.857 38.1515 17.9178 38.3947C17.9178 38.4555 17.9786 38.5164 17.9786 38.5772C17.4921 38.942 17.0664 39.3677 16.7624 39.7934C16.6408 40.0366 16.6408 40.2799 16.7624 40.5231C16.9448 40.7055 17.1881 40.8272 17.4313 40.7664C17.7962 40.6447 18.161 40.5839 18.5259 40.6447C18.4651 40.7664 18.4651 40.888 18.4651 41.0096C18.5259 41.2528 18.6475 41.3745 18.83 41.4961C19.8637 41.861 20.9583 42.1042 22.1137 42.2258C22.1137 42.165 22.1137 42.2258 22.1137 42.2866ZM32.0259 39.9758C31.661 40.2191 31.2962 40.4623 31.0529 40.7664C30.4448 41.3137 29.5935 41.6785 28.6813 41.9218C28.6813 41.861 28.6205 41.7393 28.6205 41.6785C28.4989 41.4353 28.1948 41.3137 27.9516 41.3745C26.857 41.6785 25.7624 41.8001 24.4854 41.7393C24.4854 41.6177 24.4854 41.4961 24.4854 41.4353C24.4245 41.192 24.1813 41.0096 23.8772 41.0096C22.6002 41.0704 21.384 40.9488 20.2286 40.6447C20.2894 40.5231 20.3502 40.4015 20.3502 40.2191C20.3502 40.0366 20.1678 39.8542 19.9854 39.7326C19.6205 39.5501 19.2556 39.4285 18.83 39.4285C19.0732 39.3069 19.3164 39.1245 19.5597 39.0028C19.8029 38.8812 19.9245 38.638 19.9245 38.3947C19.9245 38.2123 19.8029 38.0907 19.7421 37.9691C20.9583 37.0569 22.357 36.4488 23.4516 36.3272C23.6948 36.2664 23.9381 36.0839 23.9989 35.8407C23.9989 35.7191 23.9989 35.5366 23.9381 35.415C25.2151 35.0501 26.2489 34.9893 27.1002 35.1718C27.3435 35.2326 27.5867 35.111 27.7691 34.8677C27.83 34.8069 27.83 34.7461 27.83 34.6853C28.3772 34.8069 28.8029 34.9893 29.107 35.2326C29.5935 35.9623 30.08 36.6312 30.6272 37.1785C28.4381 36.8137 25.4583 36.8137 22.1745 38.1515C21.8705 38.2731 21.7489 38.638 21.8705 38.942C21.9921 39.1853 22.1745 39.3069 22.4178 39.3069C22.4786 39.3069 22.6002 39.3069 22.661 39.2461C26.7354 37.4826 30.3232 38.0907 32.634 38.8812C32.7556 39.0028 32.8772 39.0637 32.9989 39.1245C32.7556 39.5501 32.3908 39.7934 32.0259 39.9758ZM34.8232 38.6988C34.7624 38.5772 34.7016 38.4556 34.6408 38.3339C33.8502 35.8407 32.8772 30.915 35.5529 25.3812C35.6745 25.0772 35.5529 24.7123 35.2489 24.5907C34.9448 24.4691 34.58 24.5907 34.4583 24.8947C31.8435 30.3069 32.4516 35.2326 33.2421 38.0299C34.0327 40.8272 33.2421 38.0299 33.1813 38.0299C31.9651 37.1177 30.9313 36.0231 30.0191 34.7461C30.1408 34.6853 30.2624 34.6245 30.384 34.5028C30.5664 34.2596 30.5056 33.9556 30.3232 33.7123C29.8367 33.2258 29.5327 32.4961 29.3502 31.4623C29.4718 31.4623 29.5327 31.4623 29.6543 31.4015C29.8975 31.2799 30.0191 31.0366 29.9583 30.7934C29.7151 29.4555 29.7759 27.3272 30.1408 25.5637L30.4448 26.415C30.5664 26.6583 30.8097 26.8407 31.0529 26.8407C31.357 26.8407 31.5394 26.5974 31.6002 26.3542C31.8435 24.8947 32.7556 23.1312 34.0935 21.611C34.1543 21.7934 34.3367 21.9758 34.58 21.9758C34.8232 22.0366 35.0664 21.915 35.1881 21.6718C35.4313 21.1853 35.7354 20.8204 36.0394 20.4556C36.0394 21.0637 36.161 21.6718 36.4043 22.2799C36.4651 22.4623 36.6475 22.5839 36.83 22.6447C37.0124 22.7056 37.2556 22.5839 37.3772 22.4623C37.7421 24.0434 37.8029 25.6853 37.6813 27.3272C37.6813 27.6312 37.8029 27.8745 38.107 27.9353C38.2894 27.9961 38.4718 27.9961 38.5935 27.8745C38.5935 29.5164 38.411 31.0366 37.9245 32.4353C37.8637 32.6785 37.9245 32.9826 38.1678 33.1042C38.411 33.2866 38.6543 33.2258 38.8975 33.1042L40.1745 32.1312C39.1408 36.5096 36.1002 38.2731 34.8232 38.6988Z" fill="white"/>
<path d="M11.0461 25.4413C9.82993 25.8062 8.91776 26.2926 8.49209 26.7791C8.43128 26.8399 8.43128 26.9007 8.37047 26.9616C7.64074 28.6643 8.85695 34.9886 10.3164 40.0359C10.3772 40.2791 10.6205 40.4616 10.9245 40.4616H11.107C11.411 40.3399 11.5934 40.0359 11.5326 39.7318C9.76912 33.894 9.1002 28.8467 9.46506 27.5697C9.7083 27.3872 10.3164 26.9616 11.3502 26.6575C11.6543 26.5359 11.8367 26.2318 11.7759 25.9278C11.7151 25.5021 11.3502 25.3197 11.0461 25.4413Z" fill="white"/>
<path d="M12.8708 20.3944C13.2357 20.3944 13.4789 20.1511 13.4789 19.7863V17.5971H18.4046C18.7695 17.5971 19.0127 17.3538 19.0127 16.989C19.0127 16.6241 18.7695 16.3809 18.4046 16.3809H12.8708C12.5059 16.3809 12.2627 16.6241 12.2627 16.989V19.7863C12.2627 20.1511 12.5059 20.3944 12.8708 20.3944Z" fill="white"/>
</svg>
