<svg width="36" height="36" viewBox="0 0 36 36" fill="none" xmlns="http://www.w3.org/2000/svg">
<g clip-path="url(#clip0_461_49956)">
<path d="M10.3253 13.3148L8.78854 14.6312C8.12928 15.1957 7.60014 15.8964 7.23753 16.6849C6.87492 17.4735 6.68744 18.3313 6.68799 19.1992V31.9961C6.68886 32.721 6.97722 33.416 7.48983 33.9286C8.00244 34.4412 8.69743 34.7296 9.42236 34.7305H18.1724C18.8973 34.7296 19.5923 34.4412 20.1049 33.9286C20.6175 33.416 20.9059 32.721 20.9067 31.9961V19.1992C20.9073 18.3313 20.7198 17.4737 20.3572 16.6852C19.9946 15.8967 19.4655 15.1961 18.8062 14.6317L17.2695 13.3143C17.2096 13.263 17.1616 13.1993 17.1286 13.1276C17.0957 13.056 17.0786 12.9781 17.0786 12.8992V11.7617H17.6255C17.7705 11.7617 17.9096 11.7041 18.0122 11.6015C18.1147 11.499 18.1724 11.3599 18.1724 11.2148V7.93359C18.1724 7.78855 18.1147 7.64945 18.0122 7.5469C17.9096 7.44434 17.7705 7.38672 17.6255 7.38672H16.5317V3.55859C16.5317 2.83339 16.2437 2.13789 15.7309 1.6251C15.2181 1.1123 14.5226 0.824219 13.7974 0.824219C13.0722 0.824219 12.3767 1.1123 11.8639 1.6251C11.3511 2.13789 11.063 2.83339 11.063 3.55859V7.38672H9.96924C9.8242 7.38672 9.6851 7.44434 9.58254 7.5469C9.47998 7.64945 9.42236 7.78855 9.42236 7.93359V11.2148C9.42236 11.3599 9.47998 11.499 9.58254 11.6015C9.6851 11.7041 9.8242 11.7617 9.96924 11.7617H10.5161V12.8992C10.5162 12.9782 10.4992 13.0562 10.4662 13.1279C10.4333 13.1997 10.3852 13.2634 10.3253 13.3148ZM12.1567 3.55859C12.1567 3.12347 12.3296 2.70617 12.6373 2.3985C12.9449 2.09082 13.3622 1.91797 13.7974 1.91797C14.2325 1.91797 14.6498 2.09082 14.9575 2.3985C15.2651 2.70617 15.438 3.12347 15.438 3.55859V7.38672H12.1567V3.55859ZM10.5161 8.48047H17.0786V10.668H10.5161V8.48047ZM15.9849 11.7617V12.8992C15.9849 13.1358 16.0361 13.3696 16.1349 13.5845C16.2337 13.7994 16.3779 13.9904 16.5574 14.1445L18.0942 15.4624C18.6336 15.9242 19.0666 16.4973 19.3633 17.1424C19.66 17.7874 19.8134 18.4892 19.813 19.1992V31.9961C19.813 32.4312 19.6401 32.8485 19.3325 33.1562C19.0248 33.4639 18.6075 33.6367 18.1724 33.6367H9.42236C8.98724 33.6367 8.56994 33.4639 8.26227 33.1562C7.95459 32.8485 7.78174 32.4312 7.78174 31.9961V19.1992C7.78133 18.4891 7.93476 17.7873 8.23148 17.1421C8.52819 16.497 8.96115 15.9237 9.50057 15.4619L11.0373 14.145C11.2169 13.9909 11.3611 13.7998 11.46 13.5848C11.5588 13.3698 11.6099 13.1359 11.6099 12.8992V11.7617H15.9849Z" fill="white"/>
<path d="M25.2817 0.824219C24.5568 0.825087 23.8618 1.11345 23.3492 1.62606C22.8366 2.13866 22.5482 2.83366 22.5474 3.55859V7.38672H21.4536C21.3086 7.38672 21.1695 7.44434 21.0669 7.5469C20.9644 7.64945 20.9067 7.78855 20.9067 7.93359V11.2148C20.9067 11.3599 20.9644 11.499 21.0669 11.6015C21.1695 11.7041 21.3086 11.7617 21.4536 11.7617H23.0942V21.6055C23.0942 21.6642 23.1036 21.7225 23.1221 21.7783L23.6411 23.3347V25.4336C23.6411 25.5786 23.6987 25.7177 23.8013 25.8203C23.9038 25.9229 24.0429 25.9805 24.188 25.9805H26.3755C26.5205 25.9805 26.6596 25.9229 26.7622 25.8203C26.8647 25.7177 26.9224 25.5786 26.9224 25.4336V23.3347L27.4413 21.7783C27.4599 21.7225 27.4693 21.6642 27.4692 21.6055V11.7617H29.1099C29.2549 11.7617 29.394 11.7041 29.4966 11.6015C29.5991 11.499 29.6567 11.3599 29.6567 11.2148V7.93359C29.6567 7.78855 29.5991 7.64945 29.4966 7.5469C29.394 7.44434 29.2549 7.38672 29.1099 7.38672H28.0161V3.55859C28.0152 2.83366 27.7269 2.13866 27.2143 1.62606C26.7017 1.11345 26.0067 0.825087 25.2817 0.824219ZM23.6411 3.55859C23.6411 3.12347 23.814 2.70617 24.1216 2.3985C24.4293 2.09082 24.8466 1.91797 25.2817 1.91797C25.7169 1.91797 26.1342 2.09082 26.4418 2.3985C26.7495 2.70617 26.9224 3.12347 26.9224 3.55859V7.38672H23.6411V3.55859ZM26.3755 21.5169L25.8565 23.0733C25.838 23.129 25.8286 23.1874 25.8286 23.2461V24.8867H24.7349V23.2461C24.7349 23.1874 24.7255 23.129 24.707 23.0733L24.188 21.5169V11.7617H26.3755V21.5169ZM28.563 10.668H22.0005V8.48047H28.563V10.668Z" fill="white"/>
<path d="M8.87549 19.418V30.3555C8.87549 30.5005 8.93311 30.6396 9.03566 30.7422C9.13822 30.8447 9.27732 30.9023 9.42236 30.9023H18.1724C18.3174 30.9023 18.4565 30.8447 18.5591 30.7422C18.6616 30.6396 18.7192 30.5005 18.7192 30.3555V19.418C18.7192 19.2729 18.6616 19.1338 18.5591 19.0313C18.4565 18.9287 18.3174 18.8711 18.1724 18.8711H9.42236C9.27732 18.8711 9.13822 18.9287 9.03566 19.0313C8.93311 19.1338 8.87549 19.2729 8.87549 19.418ZM9.96924 19.9648H17.6255V29.8086H9.96924V19.9648Z" fill="white"/>
<path d="M14.2524 21.3021C14.1995 21.2313 14.1308 21.1739 14.0518 21.1344C13.9728 21.0948 13.8857 21.0742 13.7974 21.0742C13.709 21.0742 13.6219 21.0948 13.5429 21.1344C13.4639 21.1739 13.3953 21.2313 13.3424 21.3021L11.7613 23.6733C11.3054 24.3564 11.0624 25.1594 11.063 25.9806C11.063 26.7058 11.3511 27.4013 11.8639 27.9141C12.3767 28.4269 13.0722 28.715 13.7974 28.715C14.5226 28.715 15.2181 28.4269 15.7309 27.9141C16.2437 27.4013 16.5317 26.7058 16.5317 25.9806C16.5324 25.1594 16.2893 24.3564 15.8334 23.6733L14.2524 21.3021ZM13.7974 27.6212C13.3622 27.6212 12.9449 27.4484 12.6373 27.1407C12.3296 26.833 12.1567 26.4157 12.1567 25.9806C12.1563 25.3754 12.3354 24.7837 12.6713 24.2804L13.7974 22.59L14.9234 24.2787C15.2597 24.7825 15.4388 25.3749 15.438 25.9806C15.438 26.4157 15.2651 26.833 14.9575 27.1407C14.6498 27.4484 14.2325 27.6212 13.7974 27.6212Z" fill="white"/>
<path d="M25.7367 27.3177C25.6838 27.247 25.6152 27.1895 25.5362 27.15C25.4572 27.1104 25.3701 27.0898 25.2817 27.0898C25.1934 27.0898 25.1063 27.1104 25.0273 27.15C24.9483 27.1895 24.8796 27.247 24.8267 27.3177L23.2457 29.689C22.7898 30.372 22.5467 31.175 22.5474 31.9962C22.5474 32.7214 22.8354 33.4169 23.3482 33.9297C23.861 34.4425 24.5565 34.7306 25.2817 34.7306C26.0069 34.7306 26.7024 34.4425 27.2152 33.9297C27.728 33.4169 28.0161 32.7214 28.0161 31.9962C28.0167 31.175 27.7737 30.372 27.3178 29.689L25.7367 27.3177ZM25.2817 33.6369C24.8466 33.6369 24.4293 33.464 24.1216 33.1563C23.814 32.8486 23.6411 32.4313 23.6411 31.9962C23.6406 31.391 23.8197 30.7993 24.1557 30.296L25.2817 28.6056L26.4078 30.2944C26.7441 30.7982 26.9232 31.3905 26.9224 31.9962C26.9224 32.4313 26.7495 32.8486 26.4418 33.1563C26.1342 33.464 25.7169 33.6369 25.2817 33.6369Z" fill="white"/>
</g>
<defs>
<clipPath id="clip0_461_49956">
<rect width="35" height="35" fill="white" transform="translate(0.672363 0.277344)"/>
</clipPath>
</defs>
</svg>
