<svg width="36" height="36" viewBox="0 0 36 36" fill="none" xmlns="http://www.w3.org/2000/svg">
<g clip-path="url(#clip0_795_14072)">
<path d="M9.78815 13.2836L8.25143 14.5999C7.59217 15.1645 7.06303 15.8651 6.70042 16.6537C6.33781 17.4423 6.15033 18.3 6.15088 19.168V31.9648C6.15175 32.6898 6.44011 33.3848 6.95272 33.8974C7.46533 34.41 8.16032 34.6983 8.88526 34.6992H17.6353C18.3602 34.6983 19.0552 34.41 19.5678 33.8974C20.0804 33.3848 20.3688 32.6898 20.3696 31.9648V19.168C20.3702 18.3001 20.1827 17.4424 19.8201 16.6539C19.4575 15.8654 18.9284 15.1649 18.2691 14.6005L16.7324 13.283C16.6725 13.2317 16.6245 13.168 16.5915 13.0964C16.5586 13.0247 16.5415 12.9468 16.5415 12.868V11.7305H17.0884C17.2334 11.7305 17.3725 11.6729 17.4751 11.5703C17.5776 11.4677 17.6353 11.3286 17.6353 11.1836V7.90234C17.6353 7.7573 17.5776 7.6182 17.4751 7.51565C17.3725 7.41309 17.2334 7.35547 17.0884 7.35547H15.9946V3.52734C15.9946 2.80214 15.7065 2.10664 15.1938 1.59385C14.681 1.08105 13.9855 0.792969 13.2603 0.792969C12.5351 0.792969 11.8396 1.08105 11.3268 1.59385C10.814 2.10664 10.5259 2.80214 10.5259 3.52734V7.35547H9.43213C9.28709 7.35547 9.14799 7.41309 9.04543 7.51565C8.94287 7.6182 8.88526 7.7573 8.88526 7.90234V11.1836C8.88526 11.3286 8.94287 11.4677 9.04543 11.5703C9.14799 11.6729 9.28709 11.7305 9.43213 11.7305H9.97901V12.868C9.97908 12.9469 9.96206 13.0249 9.92911 13.0967C9.89616 13.1684 9.84807 13.2322 9.78815 13.2836ZM11.6196 3.52734C11.6196 3.09222 11.7925 2.67492 12.1002 2.36725C12.4078 2.05957 12.8251 1.88672 13.2603 1.88672C13.6954 1.88672 14.1127 2.05957 14.4204 2.36725C14.728 2.67492 14.9009 3.09222 14.9009 3.52734V7.35547H11.6196V3.52734ZM9.97901 8.44922H16.5415V10.6367H9.97901V8.44922ZM15.4478 11.7305V12.868C15.4478 13.1045 15.499 13.3383 15.5978 13.5532C15.6966 13.7682 15.8408 13.9592 16.0203 14.1132L17.5571 15.4312C18.0965 15.8929 18.5295 16.466 18.8262 17.1111C19.1229 17.7562 19.2763 18.4579 19.2759 19.168V31.9648C19.2759 32.4 19.103 32.8173 18.7954 33.1249C18.4877 33.4326 18.0704 33.6055 17.6353 33.6055H8.88526C8.45013 33.6055 8.03283 33.4326 7.72516 33.1249C7.41748 32.8173 7.24463 32.4 7.24463 31.9648V19.168C7.24422 18.4578 7.39765 17.7561 7.69437 17.1109C7.99109 16.4657 8.42404 15.8925 8.96346 15.4306L10.5002 14.1137C10.6798 13.9597 10.824 13.7686 10.9228 13.5535C11.0217 13.3385 11.0728 13.1046 11.0728 12.868V11.7305H15.4478Z" fill="white"/>
<path d="M24.7446 0.792969C24.0197 0.793837 23.3247 1.0822 22.8121 1.59481C22.2995 2.10741 22.0111 2.80241 22.0103 3.52734V7.35547H20.9165C20.7715 7.35547 20.6324 7.41309 20.5298 7.51565C20.4272 7.6182 20.3696 7.7573 20.3696 7.90234V11.1836C20.3696 11.3286 20.4272 11.4677 20.5298 11.5703C20.6324 11.6729 20.7715 11.7305 20.9165 11.7305H22.5571V21.5742C22.5571 21.6329 22.5665 21.6913 22.585 21.747L23.104 23.3034V25.4023C23.104 25.5474 23.1616 25.6865 23.2642 25.789C23.3667 25.8916 23.5058 25.9492 23.6509 25.9492H25.8384C25.9834 25.9492 26.1225 25.8916 26.2251 25.789C26.3276 25.6865 26.3853 25.5474 26.3853 25.4023V23.3034L26.9042 21.747C26.9228 21.6913 26.9322 21.6329 26.9321 21.5742V11.7305H28.5728C28.7178 11.7305 28.8569 11.6729 28.9595 11.5703C29.062 11.4677 29.1196 11.3286 29.1196 11.1836V7.90234C29.1196 7.7573 29.062 7.6182 28.9595 7.51565C28.8569 7.41309 28.7178 7.35547 28.5728 7.35547H27.479V3.52734C27.4781 2.80241 27.1898 2.10741 26.6772 1.59481C26.1646 1.0822 25.4696 0.793837 24.7446 0.792969ZM23.104 3.52734C23.104 3.09222 23.2769 2.67492 23.5845 2.36725C23.8922 2.05957 24.3095 1.88672 24.7446 1.88672C25.1797 1.88672 25.597 2.05957 25.9047 2.36725C26.2124 2.67492 26.3853 3.09222 26.3853 3.52734V7.35547H23.104V3.52734ZM25.8384 21.4856L25.3194 23.042C25.3009 23.0978 25.2915 23.1561 25.2915 23.2148V24.8555H24.1978V23.2148C24.1978 23.1561 24.1884 23.0978 24.1699 23.042L23.6509 21.4856V11.7305H25.8384V21.4856ZM28.0259 10.6367H21.4634V8.44922H28.0259V10.6367Z" fill="white"/>
<path d="M8.33838 19.3867V30.3242C8.33838 30.4693 8.396 30.6084 8.49855 30.7109C8.60111 30.8135 8.74021 30.8711 8.88525 30.8711H17.6353C17.7803 30.8711 17.9194 30.8135 18.022 30.7109C18.1245 30.6084 18.1821 30.4693 18.1821 30.3242V19.3867C18.1821 19.2417 18.1245 19.1026 18.022 19C17.9194 18.8975 17.7803 18.8398 17.6353 18.8398H8.88525C8.74021 18.8398 8.60111 18.8975 8.49855 19C8.396 19.1026 8.33838 19.2417 8.33838 19.3867ZM9.43213 19.9336H17.0884V29.7773H9.43213V19.9336Z" fill="white"/>
<path d="M13.7153 21.2708C13.6623 21.2001 13.5937 21.1427 13.5147 21.1031C13.4357 21.0636 13.3486 21.043 13.2603 21.043C13.1719 21.043 13.0848 21.0636 13.0058 21.1031C12.9268 21.1427 12.8582 21.2001 12.8053 21.2708L11.2242 23.6421C10.7683 24.3251 10.5253 25.1281 10.5259 25.9493C10.5259 26.6746 10.814 27.37 11.3268 27.8828C11.8396 28.3956 12.5351 28.6837 13.2603 28.6837C13.9855 28.6837 14.681 28.3956 15.1937 27.8828C15.7065 27.37 15.9946 26.6746 15.9946 25.9493C15.9953 25.1281 15.7522 24.3251 15.2963 23.6421L13.7153 21.2708ZM13.2603 27.59C12.8251 27.59 12.4078 27.4171 12.1002 27.1094C11.7925 26.8018 11.6196 26.3845 11.6196 25.9493C11.6192 25.3442 11.7983 24.7525 12.1342 24.2491L13.2603 22.5587L14.3863 24.2475C14.7226 24.7513 14.9017 25.3436 14.9009 25.9493C14.9009 26.3845 14.728 26.8018 14.4204 27.1094C14.1127 27.4171 13.6954 27.59 13.2603 27.59Z" fill="white"/>
<path d="M25.1996 27.2865C25.1467 27.2157 25.078 27.1583 24.9991 27.1187C24.9201 27.0792 24.833 27.0586 24.7446 27.0586C24.6563 27.0586 24.5692 27.0792 24.4902 27.1187C24.4112 27.1583 24.3425 27.2157 24.2896 27.2865L22.7086 29.6577C22.2527 30.3408 22.0096 31.1437 22.0103 31.965C22.0103 32.6902 22.2983 33.3857 22.8111 33.8985C23.3239 34.4113 24.0194 34.6993 24.7446 34.6993C25.4698 34.6993 26.1653 34.4113 26.6781 33.8985C27.1909 33.3857 27.479 32.6902 27.479 31.965C27.4796 31.1437 27.2366 30.3408 26.7806 29.6577L25.1996 27.2865ZM24.7446 33.6056C24.3095 33.6056 23.8922 33.4327 23.5845 33.1251C23.2769 32.8174 23.104 32.4001 23.104 31.965C23.1035 31.3598 23.2826 30.7681 23.6186 30.2647L24.7446 28.5743L25.8706 30.2631C26.2069 30.7669 26.3861 31.3592 26.3853 31.965C26.3853 32.4001 26.2124 32.8174 25.9047 33.1251C25.597 33.4327 25.1798 33.6056 24.7446 33.6056Z" fill="white"/>
</g>
<defs>
<clipPath id="clip0_795_14072">
<rect width="35" height="35" fill="white" transform="translate(0.135254 0.246094)"/>
</clipPath>
</defs>
</svg>
