<svg width="35" height="35" viewBox="0 0 35 35" fill="none" xmlns="http://www.w3.org/2000/svg">
<path d="M11.4844 15.8594V23.5827C10.6693 23.1771 9.7709 22.9669 8.86047 22.9688H6.5625C6.41746 22.9688 6.27836 23.0264 6.1758 23.1289C6.07324 23.2315 6.01562 23.3706 6.01562 23.5156V28.0011C6.01738 29.5667 6.64009 31.0677 7.74714 32.1747C8.85419 33.2818 10.3552 33.9045 11.9208 33.9062H23.0792C24.6448 33.9045 26.1458 33.2818 27.2529 32.1747C28.3599 31.0677 28.9826 29.5667 28.9844 28.0011V23.5156C28.9844 23.3706 28.9268 23.2315 28.8242 23.1289C28.7216 23.0264 28.5825 22.9688 28.4375 22.9688H26.1395C25.2291 22.9669 24.3308 23.1771 23.5156 23.5826V15.8594C23.5148 15.1344 23.2265 14.4394 22.7138 13.9268C22.2012 13.4142 21.5062 13.1258 20.7812 13.125V12.0312C21.1681 12.0311 21.5425 11.8942 21.8383 11.6448C22.1341 11.3953 22.3322 11.0494 22.3976 10.6681C22.463 10.2868 22.3916 9.89457 22.1959 9.56081C22.0002 9.22705 21.6928 8.97319 21.3281 8.84406V6.01562C21.3276 5.58065 21.1546 5.16364 20.8471 4.85607C20.5395 4.5485 20.1225 4.37549 19.6875 4.375V3.28125C19.6875 2.70109 19.457 2.14469 19.0468 1.73445C18.6366 1.32422 18.0802 1.09375 17.5 1.09375C16.9198 1.09375 16.3634 1.32422 15.9532 1.73445C15.543 2.14469 15.3125 2.70109 15.3125 3.28125V4.375C14.8775 4.37549 14.4605 4.5485 14.1529 4.85607C13.8454 5.16364 13.6724 5.58065 13.6719 6.01562V8.84406C13.3072 8.97319 12.9998 9.22705 12.8041 9.56081C12.6084 9.89457 12.537 10.2868 12.6024 10.6681C12.6678 11.0494 12.8659 11.3953 13.1617 11.6448C13.4575 11.8942 13.8319 12.0311 14.2188 12.0312V13.125C13.4938 13.1258 12.7988 13.4142 12.2862 13.9268C11.7735 14.4394 11.4852 15.1344 11.4844 15.8594ZM12.5781 29.5312V18.5938H22.4219V29.5312H12.5781ZM7.10938 28.0011V24.0625H8.86047C9.79239 24.0602 10.7046 24.3309 11.4844 24.8412V28.449L9.74654 25.9387C9.66398 25.8194 9.53742 25.7379 9.39471 25.7119C9.252 25.686 9.10483 25.7178 8.98557 25.8003C8.86631 25.8829 8.78473 26.0095 8.75878 26.1522C8.73284 26.2949 8.76464 26.442 8.84721 26.5613L11.4844 30.3705V31.1719C11.4838 31.7639 11.6763 32.3399 12.0328 32.8125H11.9208C10.6452 32.8111 9.4222 32.3037 8.5202 31.4017C7.6182 30.4997 7.11082 29.2767 7.10938 28.0011ZM14.2188 32.8125C13.7838 32.812 13.3668 32.639 13.0592 32.3314C12.7516 32.0239 12.5786 31.6068 12.5781 31.1719V30.625H22.4219V31.1719C22.4214 31.6068 22.2484 32.0239 21.9408 32.3314C21.6332 32.639 21.2162 32.812 20.7812 32.8125H14.2188ZM26.1395 24.0625H27.8906V28.0011C27.8892 29.2767 27.3818 30.4997 26.4798 31.4017C25.5778 32.3037 24.3548 32.8111 23.0792 32.8125H22.9672C23.3237 32.3399 23.5162 31.7639 23.5156 31.1719V30.3705L26.1528 26.5613C26.2354 26.442 26.2672 26.2949 26.2412 26.1522C26.2153 26.0095 26.1337 25.8829 26.0144 25.8003C25.9554 25.7595 25.8889 25.7306 25.8187 25.7154C25.7485 25.7003 25.676 25.6991 25.6053 25.7119C25.4626 25.7379 25.336 25.8194 25.2535 25.9387L23.5156 28.4489V24.8412C24.2954 24.3309 25.2076 24.0602 26.1395 24.0625ZM22.4219 15.8594V17.5H12.5781V15.8594C12.5786 15.4244 12.7516 15.0074 13.0592 14.6998C13.3668 14.3922 13.7838 14.2192 14.2188 14.2188H20.7812C21.2162 14.2192 21.6332 14.3922 21.9408 14.6998C22.2484 15.0074 22.4214 15.4244 22.4219 15.8594ZM16.4062 3.28125C16.4062 2.99117 16.5215 2.71297 16.7266 2.50785C16.9317 2.30273 17.2099 2.1875 17.5 2.1875C17.7901 2.1875 18.0683 2.30273 18.2734 2.50785C18.4785 2.71297 18.5938 2.99117 18.5938 3.28125V4.375H16.4062V3.28125ZM15.3125 5.46875H19.6875C19.8325 5.46891 19.9715 5.52658 20.074 5.62911C20.1765 5.73163 20.2342 5.87063 20.2344 6.01562V8.75H19.1406V7.65625C19.1406 7.51121 19.083 7.37211 18.9804 7.26955C18.8779 7.16699 18.7388 7.10938 18.5938 7.10938C18.4487 7.10938 18.3096 7.16699 18.2071 7.26955C18.1045 7.37211 18.0469 7.51121 18.0469 7.65625V8.75H16.9531V7.65625C16.9531 7.51121 16.8955 7.37211 16.7929 7.26955C16.6904 7.16699 16.5513 7.10938 16.4062 7.10938C16.2612 7.10938 16.1221 7.16699 16.0196 7.26955C15.917 7.37211 15.8594 7.51121 15.8594 7.65625V8.75H14.7656V6.01562C14.7658 5.87063 14.8235 5.73163 14.926 5.62911C15.0285 5.52658 15.1675 5.46891 15.3125 5.46875ZM13.6719 10.3906C13.672 10.2456 13.7297 10.1066 13.8322 10.0041C13.9348 9.90158 14.0738 9.84391 14.2188 9.84375H20.7812C20.9263 9.84375 21.0654 9.90137 21.1679 10.0039C21.2705 10.1065 21.3281 10.2456 21.3281 10.3906C21.3281 10.5357 21.2705 10.6748 21.1679 10.7773C21.0654 10.8799 20.9263 10.9375 20.7812 10.9375H14.2188C14.0738 10.9373 13.9348 10.8797 13.8322 10.7771C13.7297 10.6746 13.672 10.5356 13.6719 10.3906ZM15.3125 12.0312H19.6875V13.125H15.3125V12.0312Z" fill="white"/>
<path d="M17.8867 20.3946C17.8359 20.3438 17.7756 20.3035 17.7093 20.276C17.6429 20.2485 17.5718 20.2344 17.5 20.2344C17.4282 20.2344 17.3571 20.2485 17.2907 20.276C17.2244 20.3035 17.1641 20.3438 17.1133 20.3946C17.0175 20.4905 14.7656 22.7697 14.7656 25.1563C14.7656 26.2558 15.2614 27.1094 16.1617 27.5594C16.5788 27.7646 17.0353 27.8775 17.5 27.8906C17.9647 27.8775 18.4212 27.7646 18.8383 27.5594C19.7386 27.1094 20.2344 26.2558 20.2344 25.1563C20.2344 22.7697 17.9825 20.4905 17.8867 20.3946ZM18.377 26.567C18.1047 26.7033 17.8071 26.7816 17.503 26.7969C17.1968 26.7826 16.8971 26.7043 16.623 26.567C16.1092 26.2984 15.8594 25.8369 15.8594 25.1563C15.8594 23.7583 16.9114 22.3047 17.5 21.6009C18.0886 22.305 19.1406 23.7583 19.1406 25.1563C19.1406 25.8369 18.8908 26.2984 18.377 26.567Z" fill="white"/>
</svg>
