<svg width="26" height="26" viewBox="0 0 26 26" fill="none" xmlns="http://www.w3.org/2000/svg">
<g clip-path="url(#clip0_22_133)">
<path d="M20.3242 2.125H14.4648C11.6381 2.125 9.33789 4.42524 9.33789 7.25195C9.33789 9.83047 11.2512 11.9705 13.7324 12.3267V14.5762C13.7324 14.8723 13.9105 15.1398 14.1845 15.2528C14.4546 15.3655 14.7715 15.3051 14.9827 15.094L17.6978 12.3789H20.3242C23.1509 12.3789 25.5 10.0787 25.5 7.25195C25.5 4.42524 23.1509 2.125 20.3242 2.125ZM14.4648 7.98428C14.0603 7.98428 13.7324 7.65635 13.7324 7.25186C13.7324 6.84736 14.0603 6.51943 14.4648 6.51943C14.8693 6.51943 15.1973 6.84736 15.1973 7.25186C15.1973 7.65635 14.8693 7.98428 14.4648 7.98428ZM17.3945 7.98428C16.9899 7.98428 16.6621 7.65635 16.6621 7.25186C16.6621 6.84736 16.9899 6.51943 17.3945 6.51943C17.799 6.51943 18.127 6.84736 18.127 7.25186C18.127 7.65635 17.799 7.98428 17.3945 7.98428ZM20.3242 7.98428C19.9196 7.98428 19.5918 7.65635 19.5918 7.25186C19.5918 6.84736 19.9196 6.51943 20.3242 6.51943C20.7287 6.51943 21.0566 6.84736 21.0566 7.25186C21.0566 7.65635 20.7287 7.98428 20.3242 7.98428Z" fill="white"/>
<path d="M16.9551 24.0977C18.1667 24.0977 19.1523 23.112 19.1523 21.9004V18.9707C19.1523 18.6553 18.9506 18.3756 18.6517 18.2762L14.2674 16.8113C14.0528 16.7391 13.8183 16.772 13.6294 16.8964L11.7655 18.1388C9.79136 17.1976 7.44893 14.8551 6.50762 12.881L7.75 11.017C7.87515 10.8289 7.90664 10.5936 7.83511 10.379L6.37026 5.99478C6.2709 5.69585 5.99121 5.49414 5.67578 5.49414H2.69727C1.48564 5.49414 0.5 6.46948 0.5 7.6811C0.5 16.1197 8.5165 24.0977 16.9551 24.0977Z" fill="white"/>
</g>
<defs>
<clipPath id="clip0_22_133">
<rect width="25" height="25" fill="white" transform="translate(0.5 0.611328)"/>
</clipPath>
</defs>
</svg>
