<svg width="36" height="36" viewBox="0 0 36 36" fill="none" xmlns="http://www.w3.org/2000/svg">
<g clip-path="url(#clip0_461_31899)">
<path d="M10.1529 13.3578L8.61617 14.6741C7.95692 15.2387 7.42778 15.9393 7.06517 16.7279C6.70256 17.5165 6.51508 18.3742 6.51563 19.2422V32.0391C6.51649 32.764 6.80486 33.459 7.31747 33.9716C7.83007 34.4842 8.52507 34.7726 9.25 34.7734H18C18.7249 34.7726 19.4199 34.4842 19.9325 33.9716C20.4451 33.459 20.7335 32.764 20.7344 32.0391V19.2422C20.735 18.3743 20.5475 17.5166 20.1849 16.7281C19.8223 15.9397 19.2931 15.2391 18.6338 14.6747L17.0971 13.3573C17.0373 13.3059 16.9892 13.2423 16.9563 13.1706C16.9233 13.099 16.9063 13.021 16.9063 12.9422V11.8047H17.4531C17.5982 11.8047 17.7373 11.7471 17.8398 11.6445C17.9424 11.542 18 11.4029 18 11.2578V7.97656C18 7.83152 17.9424 7.69242 17.8398 7.58986C17.7373 7.4873 17.5982 7.42969 17.4531 7.42969H16.3594V3.60156C16.3594 2.87636 16.0713 2.18086 15.5585 1.66807C15.0457 1.15527 14.3502 0.867188 13.625 0.867188C12.8998 0.867188 12.2043 1.15527 11.6915 1.66807C11.1787 2.18086 10.8906 2.87636 10.8906 3.60156V7.42969H9.79688C9.65184 7.42969 9.51274 7.4873 9.41018 7.58986C9.30762 7.69242 9.25 7.83152 9.25 7.97656V11.2578C9.25 11.4029 9.30762 11.542 9.41018 11.6445C9.51274 11.7471 9.65184 11.8047 9.79688 11.8047H10.3438V12.9422C10.3438 13.0211 10.3268 13.0992 10.2939 13.1709C10.2609 13.2427 10.2128 13.3064 10.1529 13.3578ZM11.9844 3.60156C11.9844 3.16644 12.1572 2.74914 12.4649 2.44147C12.7726 2.13379 13.1899 1.96094 13.625 1.96094C14.0601 1.96094 14.4774 2.13379 14.7851 2.44147C15.0928 2.74914 15.2656 3.16644 15.2656 3.60156V7.42969H11.9844V3.60156ZM10.3438 8.52344H16.9063V10.7109H10.3438V8.52344ZM15.8125 11.8047V12.9422C15.8125 13.1788 15.8637 13.4125 15.9625 13.6275C16.0614 13.8424 16.2055 14.0334 16.3851 14.1874L17.9218 15.5054C18.4612 15.9671 18.8942 16.5402 19.1909 17.1853C19.4876 17.8304 19.6411 18.5321 19.6406 19.2422V32.0391C19.6406 32.4742 19.4678 32.8915 19.1601 33.1992C18.8524 33.5068 18.4351 33.6797 18 33.6797H9.25C8.81488 33.6797 8.39758 33.5068 8.0899 33.1992C7.78223 32.8915 7.60938 32.4742 7.60938 32.0391V19.2422C7.60897 18.5321 7.7624 17.8303 8.05911 17.1851C8.35583 16.5399 8.78879 15.9667 9.3282 15.5048L10.8649 14.188C11.0446 14.0339 11.1888 13.8428 11.2876 13.6278C11.3864 13.4127 11.4376 13.1788 11.4375 12.9422V11.8047H15.8125Z" fill="white"/>
<path d="M25.1094 0.867188C24.3844 0.868056 23.6894 1.15642 23.1768 1.66903C22.6642 2.18163 22.3759 2.87663 22.375 3.60156V7.42969H21.2812C21.1362 7.42969 20.9971 7.4873 20.8946 7.58986C20.792 7.69242 20.7344 7.83152 20.7344 7.97656V11.2578C20.7344 11.4029 20.792 11.542 20.8946 11.6445C20.9971 11.7471 21.1362 11.8047 21.2812 11.8047H22.9219V21.6484C22.9218 21.7072 22.9312 21.7655 22.9498 21.8213L23.4688 23.3777V25.4766C23.4688 25.6216 23.5264 25.7607 23.6289 25.8633C23.7315 25.9658 23.8706 26.0234 24.0156 26.0234H26.2031C26.3482 26.0234 26.4873 25.9658 26.5898 25.8633C26.6924 25.7607 26.75 25.6216 26.75 25.4766V23.3777L27.269 21.8213C27.2875 21.7655 27.2969 21.7072 27.2969 21.6484V11.8047H28.9375C29.0825 11.8047 29.2216 11.7471 29.3242 11.6445C29.4268 11.542 29.4844 11.4029 29.4844 11.2578V7.97656C29.4844 7.83152 29.4268 7.69242 29.3242 7.58986C29.2216 7.4873 29.0825 7.42969 28.9375 7.42969H27.8438V3.60156C27.8429 2.87663 27.5545 2.18163 27.0419 1.66903C26.5293 1.15642 25.8343 0.868056 25.1094 0.867188ZM23.4688 3.60156C23.4688 3.16644 23.6416 2.74914 23.9493 2.44147C24.257 2.13379 24.6743 1.96094 25.1094 1.96094C25.5445 1.96094 25.9618 2.13379 26.2695 2.44147C26.5771 2.74914 26.75 3.16644 26.75 3.60156V7.42969H23.4688V3.60156ZM26.2031 21.5598L25.6841 23.1162C25.6656 23.172 25.6562 23.2303 25.6562 23.2891V24.9297H24.5625V23.2891C24.5625 23.2303 24.5531 23.172 24.5346 23.1162L24.0156 21.5598V11.8047H26.2031V21.5598ZM28.3906 10.7109H21.8281V8.52344H28.3906V10.7109Z" fill="white"/>
<path d="M8.70312 19.4609V30.3984C8.70312 30.5435 8.76074 30.6826 8.8633 30.7851C8.96586 30.8877 9.10496 30.9453 9.25 30.9453H18C18.145 30.9453 18.2841 30.8877 18.3867 30.7851C18.4893 30.6826 18.5469 30.5435 18.5469 30.3984V19.4609C18.5469 19.3159 18.4893 19.1768 18.3867 19.0742C18.2841 18.9717 18.145 18.9141 18 18.9141H9.25C9.10496 18.9141 8.96586 18.9717 8.8633 19.0742C8.76074 19.1768 8.70312 19.3159 8.70312 19.4609ZM9.79688 20.0078H17.4531V29.8516H9.79688V20.0078Z" fill="white"/>
<path d="M14.08 21.3451C14.0271 21.2743 13.9584 21.2169 13.8794 21.1773C13.8005 21.1378 13.7133 21.1172 13.625 21.1172C13.5367 21.1172 13.4495 21.1378 13.3706 21.1773C13.2916 21.2169 13.2229 21.2743 13.17 21.3451L11.589 23.7163C11.133 24.3994 10.89 25.2023 10.8906 26.0236C10.8906 26.7488 11.1787 27.4443 11.6915 27.9571C12.2043 28.4699 12.8998 28.7579 13.625 28.7579C14.3502 28.7579 15.0457 28.4699 15.5585 27.9571C16.0713 27.4443 16.3594 26.7488 16.3594 26.0236C16.36 25.2023 16.117 24.3994 15.661 23.7163L14.08 21.3451ZM13.625 27.6642C13.1899 27.6642 12.7726 27.4913 12.4649 27.1837C12.1572 26.876 11.9844 26.4587 11.9844 26.0236C11.9839 25.4184 12.163 24.8267 12.499 24.3233L13.625 22.6329L14.751 24.3217C15.0873 24.8255 15.2664 25.4178 15.2656 26.0236C15.2656 26.4587 15.0928 26.876 14.7851 27.1837C14.4774 27.4913 14.0601 27.6642 13.625 27.6642Z" fill="white"/>
<path d="M25.5644 27.3607C25.5115 27.2899 25.4428 27.2325 25.3638 27.193C25.2848 27.1534 25.1977 27.1328 25.1094 27.1328C25.021 27.1328 24.9339 27.1534 24.8549 27.193C24.776 27.2325 24.7073 27.2899 24.6544 27.3607L23.0734 29.7319C22.6174 30.415 22.3744 31.2179 22.375 32.0392C22.375 32.7644 22.6631 33.4599 23.1759 33.9727C23.6887 34.4855 24.3842 34.7736 25.1094 34.7736C25.8346 34.7736 26.5301 34.4855 27.0429 33.9727C27.5557 33.4599 27.8438 32.7644 27.8438 32.0392C27.8444 31.2179 27.6013 30.415 27.1454 29.7319L25.5644 27.3607ZM25.1094 33.6798C24.6743 33.6798 24.257 33.507 23.9493 33.1993C23.6416 32.8916 23.4688 32.4743 23.4688 32.0392C23.4683 31.434 23.6474 30.8423 23.9834 30.339L25.1094 28.6486L26.2354 30.3373C26.5717 30.8411 26.7508 31.4335 26.75 32.0392C26.75 32.4743 26.5771 32.8916 26.2695 33.1993C25.9618 33.507 25.5445 33.6798 25.1094 33.6798Z" fill="white"/>
</g>
<defs>
<clipPath id="clip0_461_31899">
<rect width="35" height="35" fill="white" transform="translate(0.5 0.320312)"/>
</clipPath>
</defs>
</svg>
