<svg width="35" height="35" viewBox="0 0 35 35" fill="none" xmlns="http://www.w3.org/2000/svg">
<path d="M9.65289 13.0375L8.11617 14.3538C7.45692 14.9184 6.92778 15.619 6.56517 16.4076C6.20256 17.1962 6.01508 18.0539 6.01563 18.9219V31.7188C6.01649 32.4437 6.30486 33.1387 6.81747 33.6513C7.33007 34.1639 8.02507 34.4523 8.75 34.4531H17.5C18.2249 34.4523 18.9199 34.1639 19.4325 33.6513C19.9451 33.1387 20.2335 32.4437 20.2344 31.7188V18.9219C20.235 18.054 20.0475 17.1963 19.6849 16.4078C19.3223 15.6193 18.7931 14.9188 18.1338 14.3544L16.5971 13.037C16.5373 12.9856 16.4892 12.9219 16.4563 12.8503C16.4233 12.7787 16.4063 12.7007 16.4063 12.6219V11.4844H16.9531C17.0982 11.4844 17.2373 11.4268 17.3398 11.3242C17.4424 11.2216 17.5 11.0825 17.5 10.9375V7.65625C17.5 7.51121 17.4424 7.37211 17.3398 7.26955C17.2373 7.16699 17.0982 7.10938 16.9531 7.10938H15.8594V3.28125C15.8594 2.55605 15.5713 1.86055 15.0585 1.34775C14.5457 0.83496 13.8502 0.546875 13.125 0.546875C12.3998 0.546875 11.7043 0.83496 11.1915 1.34775C10.6787 1.86055 10.3906 2.55605 10.3906 3.28125V7.10938H9.29688C9.15184 7.10938 9.01274 7.16699 8.91018 7.26955C8.80762 7.37211 8.75 7.51121 8.75 7.65625V10.9375C8.75 11.0825 8.80762 11.2216 8.91018 11.3242C9.01274 11.4268 9.15184 11.4844 9.29688 11.4844H9.84375V12.6219C9.84382 12.7008 9.8268 12.7789 9.79386 12.8506C9.76091 12.9223 9.71282 12.9861 9.65289 13.0375ZM11.4844 3.28125C11.4844 2.84613 11.6572 2.42883 11.9649 2.12115C12.2726 1.81348 12.6899 1.64063 13.125 1.64062C13.5601 1.64063 13.9774 1.81348 14.2851 2.12115C14.5928 2.42883 14.7656 2.84613 14.7656 3.28125V7.10938H11.4844V3.28125ZM9.84375 8.20312H16.4063V10.3906H9.84375V8.20312ZM15.3125 11.4844V12.6219C15.3125 12.8584 15.3637 13.0922 15.4625 13.3071C15.5614 13.5221 15.7055 13.7131 15.8851 13.8671L17.4218 15.1851C17.9612 15.6468 18.3942 16.2199 18.6909 16.865C18.9876 17.5101 19.1411 18.2118 19.1406 18.9219V31.7188C19.1406 32.1539 18.9678 32.5712 18.6601 32.8788C18.3524 33.1865 17.9351 33.3594 17.5 33.3594H8.75C8.31488 33.3594 7.89758 33.1865 7.5899 32.8788C7.28223 32.5712 7.10938 32.1539 7.10938 31.7188V18.9219C7.10897 18.2117 7.2624 17.51 7.55911 16.8648C7.85583 16.2196 8.28879 15.6464 8.8282 15.1845L10.3649 13.8677C10.5446 13.7136 10.6888 13.5225 10.7876 13.3074C10.8864 13.0924 10.9376 12.8585 10.9375 12.6219V11.4844H15.3125Z" fill="white"/>
<path d="M24.6094 0.546875C23.8844 0.547743 23.1894 0.836107 22.6768 1.34871C22.1642 1.86132 21.8759 2.55632 21.875 3.28125V7.10938H20.7812C20.6362 7.10938 20.4971 7.16699 20.3946 7.26955C20.292 7.37211 20.2344 7.51121 20.2344 7.65625V10.9375C20.2344 11.0825 20.292 11.2216 20.3946 11.3242C20.4971 11.4268 20.6362 11.4844 20.7812 11.4844H22.4219V21.3281C22.4218 21.3869 22.4312 21.4452 22.4498 21.5009L22.9688 23.0573V25.1562C22.9688 25.3013 23.0264 25.4404 23.1289 25.5429C23.2315 25.6455 23.3706 25.7031 23.5156 25.7031H25.7031C25.8482 25.7031 25.9873 25.6455 26.0898 25.5429C26.1924 25.4404 26.25 25.3013 26.25 25.1562V23.0573L26.769 21.5009C26.7875 21.4452 26.7969 21.3869 26.7969 21.3281V11.4844H28.4375C28.5825 11.4844 28.7216 11.4268 28.8242 11.3242C28.9268 11.2216 28.9844 11.0825 28.9844 10.9375V7.65625C28.9844 7.51121 28.9268 7.37211 28.8242 7.26955C28.7216 7.16699 28.5825 7.10938 28.4375 7.10938H27.3438V3.28125C27.3429 2.55632 27.0545 1.86132 26.5419 1.34871C26.0293 0.836107 25.3343 0.547743 24.6094 0.546875ZM22.9688 3.28125C22.9688 2.84613 23.1416 2.42883 23.4493 2.12115C23.757 1.81348 24.1743 1.64063 24.6094 1.64062C25.0445 1.64063 25.4618 1.81348 25.7695 2.12115C26.0771 2.42883 26.25 2.84613 26.25 3.28125V7.10938H22.9688V3.28125ZM25.7031 21.2395L25.1841 22.7959C25.1656 22.8517 25.1562 22.91 25.1562 22.9688V24.6094H24.0625V22.9688C24.0625 22.91 24.0531 22.8517 24.0346 22.7959L23.5156 21.2395V11.4844H25.7031V21.2395ZM27.8906 10.3906H21.3281V8.20312H27.8906V10.3906Z" fill="white"/>
<path d="M8.20312 19.1406V30.0781C8.20312 30.2232 8.26074 30.3623 8.3633 30.4648C8.46586 30.5674 8.60496 30.625 8.75 30.625H17.5C17.645 30.625 17.7841 30.5674 17.8867 30.4648C17.9893 30.3623 18.0469 30.2232 18.0469 30.0781V19.1406C18.0469 18.9956 17.9893 18.8565 17.8867 18.7539C17.7841 18.6514 17.645 18.5938 17.5 18.5938H8.75C8.60496 18.5938 8.46586 18.6514 8.3633 18.7539C8.26074 18.8565 8.20312 18.9956 8.20312 19.1406ZM9.29688 19.6875H16.9531V29.5312H9.29688V19.6875Z" fill="white"/>
<path d="M13.58 21.0243C13.5271 20.9535 13.4584 20.8961 13.3794 20.8565C13.3005 20.817 13.2133 20.7964 13.125 20.7964C13.0367 20.7964 12.9495 20.817 12.8706 20.8565C12.7916 20.8961 12.7229 20.9535 12.67 21.0243L11.089 23.3955C10.633 24.0786 10.39 24.8815 10.3906 25.7028C10.3906 26.428 10.6787 27.1235 11.1915 27.6363C11.7043 28.1491 12.3998 28.4371 13.125 28.4371C13.8502 28.4371 14.5457 28.1491 15.0585 27.6363C15.5713 27.1235 15.8594 26.428 15.8594 25.7028C15.86 24.8815 15.617 24.0786 15.161 23.3955L13.58 21.0243ZM13.125 27.3434C12.6899 27.3434 12.2726 27.1705 11.9649 26.8629C11.6572 26.5552 11.4844 26.1379 11.4844 25.7028C11.4839 25.0976 11.663 24.5059 11.999 24.0025L13.125 22.3121L14.251 24.0009C14.5873 24.5047 14.7664 25.097 14.7656 25.7028C14.7656 26.1379 14.5928 26.5552 14.2851 26.8629C13.9774 27.1705 13.5601 27.3434 13.125 27.3434Z" fill="white"/>
<path d="M25.0644 27.0399C25.0115 26.9691 24.9428 26.9117 24.8638 26.8722C24.7848 26.8326 24.6977 26.812 24.6094 26.812C24.521 26.812 24.4339 26.8326 24.3549 26.8722C24.276 26.9117 24.2073 26.9691 24.1544 27.0399L22.5734 29.4111C22.1174 30.0942 21.8744 30.8971 21.875 31.7184C21.875 32.4436 22.1631 33.1391 22.6759 33.6519C23.1887 34.1647 23.8842 34.4528 24.6094 34.4528C25.3346 34.4528 26.0301 34.1647 26.5429 33.6519C27.0557 33.1391 27.3438 32.4436 27.3438 31.7184C27.3444 30.8971 27.1013 30.0942 26.6454 29.4111L25.0644 27.0399ZM24.6094 33.359C24.1743 33.359 23.757 33.1862 23.4493 32.8785C23.1416 32.5708 22.9688 32.1535 22.9688 31.7184C22.9683 31.1132 23.1474 30.5215 23.4834 30.0182L24.6094 28.3278L25.7354 30.0165C26.0717 30.5203 26.2508 31.1127 26.25 31.7184C26.25 32.1535 26.0771 32.5708 25.7695 32.8785C25.4618 33.1862 25.0445 33.359 24.6094 33.359Z" fill="white"/>
</svg>
