<svg width="36" height="36" viewBox="0 0 36 36" fill="none" xmlns="http://www.w3.org/2000/svg">
<path d="M32.2368 23.4483C32.2841 23.2591 32.1895 23.0699 32.0003 22.9753C31.8111 22.8807 31.6219 22.8807 31.48 23.0226L30.6287 23.6848C30.8652 22.5023 30.9125 21.2253 30.7706 19.8537C30.7706 19.6645 30.6287 19.4753 30.4395 19.428C30.3449 19.428 30.2976 19.428 30.203 19.428C30.203 18.1983 30.0138 17.0158 29.6827 15.8807C29.6354 15.7388 29.4936 15.5969 29.3517 15.5496C29.1625 15.5023 29.0206 15.5496 28.8787 15.6915C28.8314 15.2658 28.926 14.8402 29.0679 14.3672C29.1152 14.178 29.0679 13.9888 28.926 13.8469C28.7841 13.705 28.5476 13.705 28.4057 13.7996C27.9327 14.0834 27.4598 14.4618 27.0814 14.9821C27.0341 14.9348 26.9395 14.8875 26.8922 14.8402C26.703 14.7929 26.5611 14.8402 26.4192 14.9348C25.3787 15.9753 24.5273 17.205 24.0071 18.3875L23.7706 17.678C23.7233 17.4888 23.5341 17.3469 23.3449 17.3469C23.1557 17.3469 22.9665 17.4415 22.8719 17.6307C22.3044 19.0023 22.1152 21.0361 22.1625 22.455C22.0679 22.455 22.0206 22.455 21.926 22.5023C21.7368 22.5969 21.6422 22.7388 21.6422 22.9753C21.6895 23.6375 21.7368 24.3942 21.9733 25.1037C21.8787 25.1037 21.8314 25.151 21.7368 25.2456C21.6422 25.3402 21.5949 25.4821 21.5949 25.6239C21.2165 25.5294 20.8382 25.4821 20.5071 25.4348C20.3179 25.4348 20.1287 25.5293 20.0341 25.6712C19.9868 25.7185 19.9868 25.7658 19.9868 25.8131C19.8449 25.8131 19.703 25.8131 19.5611 25.8604C20.2233 22.3131 20.176 20.0902 19.3246 19.0023C18.6152 18.0564 17.4327 17.4888 16.2976 17.1104C16.6287 16.7793 16.8179 16.3064 16.8179 15.7861V11.9077C16.8179 10.9618 16.1557 10.1577 15.2098 9.96854C14.5003 8.9753 14.2165 7.74557 14.3111 6.51584L14.453 4.76584V4.71854C14.4057 3.29962 13.2233 2.11719 11.8044 2.11719C10.3854 2.11719 9.20301 3.29962 9.15572 4.71854V4.76584L9.29761 6.51584C9.3922 7.74557 9.06112 8.9753 8.39896 9.96854C7.50031 10.1577 6.83815 10.9618 6.83815 11.9077V15.7861C6.83815 16.3064 7.02734 16.7793 7.35842 17.1104C6.22328 17.4888 5.04085 18.0564 4.33139 19.0023C2.3922 21.7929 5.70301 31.9618 6.08139 33.0969C6.12869 33.2861 6.31788 33.428 6.50707 33.428H17.2909C17.48 33.428 17.6692 33.2861 17.7165 33.0969C17.7165 33.0969 17.7638 33.0023 17.7638 32.9077C18.7098 33.0496 19.5611 33.0496 20.4125 32.955C20.4125 33.0496 20.4125 33.0969 20.4598 33.1915C20.5544 33.3334 20.6963 33.428 20.8854 33.428H20.98C22.7773 33.0969 23.9125 32.6712 24.6219 31.9618L24.7165 31.8672C24.7638 31.7726 25.0476 31.6307 25.1895 31.4888C25.5206 31.2523 25.9463 31.0158 26.23 30.6375H26.2773C26.5611 31.1104 26.9868 31.5361 27.4598 31.8672C27.7436 32.0564 28.1692 32.4348 28.3111 32.8131C28.3584 33.0023 28.5476 33.1442 28.7368 33.1442C28.7841 33.1442 28.8314 33.1442 28.8787 33.0969C29.1152 33.0023 29.2571 32.7185 29.1625 32.482C28.9733 31.9618 28.5476 31.4888 27.98 31.0631C27.7436 30.8739 27.5071 30.6848 27.3179 30.4483C28.8314 29.928 31.6219 28.0361 32.2368 23.4483ZM10.3381 6.51584L10.1963 4.81313C10.2436 3.91448 11.0003 3.15773 11.899 3.15773C12.7976 3.15773 13.5544 3.91448 13.6017 4.81313L13.4598 6.51584C13.3652 7.74557 13.6017 8.928 14.1692 10.0158H9.62869C10.1963 8.928 10.4327 7.74557 10.3381 6.51584ZM7.87869 11.955C7.87869 11.3875 8.35166 10.9145 8.91923 10.9145H14.9733C15.5409 10.9145 16.0138 11.3875 16.0138 11.955V15.8334C16.0138 16.3537 15.5881 16.7794 15.0679 16.8266H15.0206H14.9733H8.87193H8.82464H8.77734C8.25707 16.7794 7.83139 16.3537 7.83139 15.8334V11.955H7.87869ZM12.5138 17.8199V26.4753C12.5138 26.8064 12.23 27.0902 11.899 27.0902C11.5679 27.0902 11.2841 26.8064 11.2841 26.4753V17.8199H12.5138ZM16.9598 32.482H6.88545C5.84491 29.2658 3.76382 21.5564 5.18274 19.6172C5.79761 18.8131 7.07464 18.151 8.77734 17.8199H8.87193H10.3381V26.4753C10.3381 27.3266 11.0476 28.0361 11.899 28.0361C12.7503 28.0361 13.4598 27.3266 13.4598 26.4753V17.8199H14.926H15.0679C16.7706 18.1983 18.0476 18.8131 18.6625 19.6172C19.0409 20.1375 19.5138 21.6037 18.6625 26.0496C18.1895 26.1442 17.6692 26.2861 17.149 26.5226C16.9598 26.5699 16.8652 26.7591 16.8179 26.9483C16.8179 26.9956 16.8179 27.0902 16.8652 27.1375C15.8719 27.4685 14.7841 28.1307 13.8382 28.9821C13.6963 29.1239 13.649 29.2658 13.6963 29.455C13.6963 29.5023 13.7436 29.5496 13.7436 29.5969C13.3652 29.8807 13.0341 30.2118 12.7976 30.5429C12.703 30.7321 12.703 30.9212 12.7976 31.1104C12.9395 31.2523 13.1287 31.3469 13.3179 31.2996C13.6017 31.205 13.8854 31.1577 14.1692 31.205C14.1219 31.2996 14.1219 31.3942 14.1219 31.4888C14.1692 31.678 14.2638 31.7726 14.4057 31.8672C15.2098 32.151 16.0611 32.3402 16.9598 32.4348C16.9598 32.3875 16.9598 32.4348 16.9598 32.482ZM24.6692 30.6848C24.3854 30.8739 24.1017 31.0631 23.9125 31.2996C23.4395 31.7253 22.7773 32.0091 22.0679 32.1983C22.0679 32.151 22.0206 32.0564 22.0206 32.0091C21.926 31.8199 21.6895 31.7253 21.5003 31.7726C20.649 32.0091 19.7976 32.1037 18.8044 32.0564C18.8044 31.9618 18.8044 31.8672 18.8044 31.8199C18.7571 31.6307 18.5679 31.4888 18.3314 31.4888C17.3382 31.5361 16.3922 31.4415 15.4936 31.205C15.5409 31.1104 15.5881 31.0158 15.5881 30.8739C15.5881 30.7321 15.4463 30.5902 15.3044 30.4956C15.0206 30.3537 14.7368 30.2591 14.4057 30.2591C14.5949 30.1645 14.7841 30.0226 14.9733 29.928C15.1625 29.8334 15.2571 29.6442 15.2571 29.455C15.2571 29.3131 15.1625 29.2185 15.1152 29.1239C16.0611 28.4145 17.149 27.9415 18.0003 27.8469C18.1895 27.7996 18.3787 27.6577 18.426 27.4685C18.426 27.3739 18.426 27.2321 18.3787 27.1375C19.3719 26.8537 20.176 26.8064 20.8382 26.9483C21.0273 26.9956 21.2165 26.901 21.3584 26.7118C21.4057 26.6645 21.4057 26.6172 21.4057 26.5699C21.8314 26.6645 22.1625 26.8064 22.399 26.9956C22.7773 27.5631 23.1557 28.0834 23.5814 28.5091C21.8787 28.2253 19.5611 28.2253 17.0071 29.2658C16.7706 29.3604 16.676 29.6442 16.7706 29.8807C16.8652 30.0699 17.0071 30.1645 17.1963 30.1645C17.2436 30.1645 17.3382 30.1645 17.3854 30.1172C20.5544 28.7456 23.3449 29.2185 25.1422 29.8334C25.2368 29.928 25.3314 29.9753 25.426 30.0226C25.2368 30.3537 24.953 30.5429 24.6692 30.6848ZM26.8449 29.6915C26.7976 29.5969 26.7503 29.5023 26.703 29.4077C26.0882 27.4685 25.3314 23.6375 27.4125 19.3334C27.5071 19.0969 27.4125 18.8131 27.176 18.7185C26.9395 18.6239 26.6557 18.7185 26.5611 18.955C24.5273 23.1645 25.0003 26.9956 25.6152 29.1712C26.23 31.3469 25.6152 29.1712 25.5679 29.1712C24.6219 28.4618 23.8179 27.6104 23.1084 26.6172C23.203 26.5699 23.2976 26.5226 23.3922 26.428C23.5341 26.2388 23.4868 26.0023 23.3449 25.8131C22.9665 25.4348 22.73 24.8672 22.5882 24.0631C22.6827 24.0631 22.73 24.0631 22.8246 24.0158C23.0138 23.9212 23.1084 23.7321 23.0611 23.5429C22.8719 22.5023 22.9192 20.8469 23.203 19.4753L23.4395 20.1375C23.5341 20.3266 23.7233 20.4685 23.9125 20.4685C24.149 20.4685 24.2909 20.2793 24.3382 20.0902C24.5273 18.955 25.2368 17.5834 26.2773 16.401C26.3246 16.5429 26.4665 16.6848 26.6557 16.6848C26.8449 16.7321 27.0341 16.6375 27.1287 16.4483C27.3179 16.0699 27.5544 15.7861 27.7909 15.5023C27.7909 15.9753 27.8854 16.4483 28.0746 16.9212C28.1219 17.0631 28.2638 17.1577 28.4057 17.205C28.5476 17.2523 28.7368 17.1577 28.8314 17.0631C29.1152 18.2929 29.1625 19.5699 29.0679 20.8469C29.0679 21.0834 29.1625 21.2726 29.399 21.3199C29.5409 21.3672 29.6827 21.3672 29.7773 21.2726C29.7773 22.5496 29.6354 23.7321 29.2571 24.8199C29.2098 25.0091 29.2571 25.2456 29.4463 25.3402C29.6354 25.4821 29.8246 25.4348 30.0138 25.3402L31.0071 24.5834C30.203 27.9888 27.8382 29.3604 26.8449 29.6915Z" fill="white"/>
<path d="M8.35132 19.3803C7.40537 19.6641 6.69591 20.0425 6.36483 20.4209C6.31753 20.4682 6.31753 20.5155 6.27024 20.5628C5.70267 21.8871 6.64862 26.806 7.78375 30.7317C7.83105 30.9209 8.02024 31.0628 8.25672 31.0628H8.39862C8.6351 30.9682 8.77699 30.7317 8.7297 30.4952C7.35808 25.9547 6.8378 22.029 7.12159 21.0357C7.31078 20.8938 7.78375 20.5628 8.58781 20.3263C8.82429 20.2317 8.96618 19.9952 8.91889 19.7587C8.87159 19.4276 8.58781 19.2857 8.35132 19.3803Z" fill="white"/>
<path d="M9.77082 15.4556C10.0546 15.4556 10.2438 15.2664 10.2438 14.9826V13.2799H14.0749C14.3587 13.2799 14.5479 13.0907 14.5479 12.807C14.5479 12.5232 14.3587 12.334 14.0749 12.334H9.77082C9.48704 12.334 9.29785 12.5232 9.29785 12.807V14.9826C9.29785 15.2664 9.48704 15.4556 9.77082 15.4556Z" fill="white"/>
</svg>
