<svg width="46" height="46" viewBox="0 0 46 46" fill="none" xmlns="http://www.w3.org/2000/svg">
<g clip-path="url(#clip0_461_49804)">
<path d="M41.9273 12.8997V14.335C41.9273 15.5215 40.9614 16.4865 39.7749 16.4865H37.6225V29.9487C37.6225 30.7696 37.1663 31.507 36.4333 31.8744L36.1881 31.9975V32.9889C36.1881 34.1754 35.2222 35.1413 34.0356 35.1413C32.8491 35.1413 31.8832 34.1754 31.8832 32.9889V31.9975L31.638 31.8753C30.9041 31.5079 30.448 30.7705 30.448 29.9496V16.4865H28.2955C27.109 16.4865 26.1431 15.5215 26.1431 14.335V12.8997C26.1431 11.7132 27.109 10.7473 28.2955 10.7473H29.0136V5.7252C29.0136 2.95664 31.2671 0.703125 34.0356 0.703125C36.8042 0.703125 39.0577 2.95664 39.0577 5.7252V10.7473H39.7749C40.9614 10.7473 41.9273 11.7123 41.9273 12.8997ZM40.493 14.335V12.8997C40.493 12.5033 40.1713 12.1825 39.7749 12.1825H28.2955C27.9 12.1825 27.5783 12.5033 27.5783 12.8997V14.335C27.5783 14.7305 27.9 15.0521 28.2955 15.0521H39.7749C40.1713 15.0521 40.493 14.7305 40.493 14.335ZM37.6225 10.7473V5.7252C37.6225 3.74678 36.0132 2.1375 34.0356 2.1375C32.0572 2.1375 30.448 3.74678 30.448 5.7252V10.7473H37.6225ZM36.1881 29.9487V16.4865H31.8832V29.9487C31.8832 30.2229 32.0353 30.469 32.2796 30.5912L33.3176 31.1106V32.9889C33.3176 33.3844 33.6393 33.7061 34.0356 33.7061C34.4312 33.7061 34.7528 33.3844 34.7528 32.9889V31.1106L35.7908 30.5912C36.036 30.469 36.1881 30.2229 36.1881 29.9487Z" fill="white"/>
<path d="M34.0359 36.5762C36.2262 36.5762 37.6228 39.8738 37.6228 41.5982C37.6228 43.5767 36.0135 45.1859 34.0359 45.1859C32.0575 45.1859 30.4482 43.5767 30.4482 41.5982C30.4482 39.8747 31.8448 36.5762 34.0359 36.5762ZM34.0359 43.7507C35.2225 43.7507 36.1884 42.7856 36.1884 41.5982C36.1884 40.1814 35.0335 38.0114 34.0359 38.0114C33.0375 38.0114 31.8835 40.1814 31.8835 41.5982C31.8835 42.7856 32.8494 43.7507 34.0359 43.7507Z" fill="white"/>
<path d="M26.1432 7.73535V8.59492C26.1432 11.3828 24.6859 13.9211 22.3524 15.3388C23.1874 16.1781 23.7736 17.2741 23.9819 18.5213L24.1208 19.3562H19.6858C17.8577 19.3562 16.2607 18.371 15.3818 16.9076C14.5029 18.371 12.9051 19.3562 11.077 19.3562H6.64287L6.78174 18.5213C6.98916 17.2732 7.57539 16.1772 8.41035 15.3388C6.07686 13.9211 4.61963 11.3819 4.61963 8.59404V7.73447L9.82803 8.68281C10.2666 8.76191 10.6938 8.88057 11.1086 9.03086C11.0928 8.83926 11.077 8.64678 11.077 8.45166C11.077 6.98652 11.5261 5.58203 12.3777 4.39023L15.3818 0.185547L18.3851 4.39111C19.2367 5.58291 19.6858 6.9874 19.6858 8.45166C19.6858 8.6459 19.67 8.83838 19.6542 9.03086C20.069 8.87969 20.4962 8.76103 20.9348 8.68193L26.1432 7.73535ZM24.6508 9.46504L21.1914 10.0935C20.5261 10.2147 19.8906 10.4433 19.2956 10.7632C18.9168 11.8504 18.2603 12.826 17.3884 13.617H18.1917C19.2429 13.617 20.2325 13.8938 21.0912 14.3808C23.0336 13.4271 24.3634 11.5867 24.6508 9.46504ZM19.6858 17.9219H22.3419C21.7047 16.2177 20.0743 15.0522 18.1917 15.0522H16.1711C16.5042 16.687 17.9535 17.9219 19.6858 17.9219ZM18.2515 8.45166C18.2515 7.28711 17.8938 6.17178 17.217 5.22432L15.3818 2.65439L13.5458 5.22432C12.869 6.17178 12.5113 7.28711 12.5113 8.45166C12.5113 10.1471 13.2716 11.7265 14.5952 12.7873L15.3818 13.4157L16.1676 12.7873C17.4912 11.7265 18.2515 10.1471 18.2515 8.45166ZM14.5917 15.0522H12.5711C10.6885 15.0522 9.05811 16.2177 8.4209 17.9219H11.077C12.8093 17.9219 14.2586 16.687 14.5917 15.0522ZM12.5711 13.617H13.3744C12.5025 12.826 11.8469 11.8504 11.4672 10.7632C10.8722 10.4433 10.2376 10.2156 9.57139 10.0943L6.11289 9.46504C6.39941 11.5867 7.7292 13.4271 9.67158 14.3808C10.5303 13.8938 11.5199 13.617 12.5711 13.617Z" fill="white"/>
<path d="M23.9906 30.118V41.5974C23.9906 43.5758 22.3813 45.1851 20.4038 45.1851H10.3588C8.38125 45.1851 6.77197 43.5758 6.77197 41.5974V30.118C6.77197 28.6247 7.45576 27.2 8.60273 26.2517C7.9418 25.8843 7.48916 25.1873 7.48916 24.3787V22.9435C7.48916 21.7569 8.45508 20.791 9.6416 20.791H21.121C22.3075 20.791 23.2734 21.7569 23.2734 22.9435V24.3787C23.2734 25.1864 22.8208 25.8834 22.1607 26.2508C23.3068 27.2 23.9906 28.6238 23.9906 30.118ZM22.5571 41.5974V30.118C22.5571 28.9956 22.0201 27.9225 21.1219 27.2483L20.1647 26.5312H10.5987L9.64248 27.2483C8.74336 27.9225 8.20635 28.9956 8.20635 30.118V41.5974C8.20635 42.7848 9.17227 43.7498 10.3588 43.7498H20.4038C21.5903 43.7498 22.5562 42.7848 22.5562 41.5974H22.5571ZM21.8382 24.3787V22.9435C21.8382 22.5479 21.5174 22.2263 21.121 22.2263H9.6416C9.24521 22.2263 8.92441 22.5479 8.92441 22.9435V24.3787C8.92441 24.7751 9.24521 25.0959 9.6416 25.0959H21.121C21.5174 25.0959 21.8382 24.7751 21.8382 24.3787Z" fill="white"/>
<path d="M21.121 29.4004V40.1626C21.121 41.3491 20.1551 42.315 18.9686 42.315H11.794C10.6075 42.315 9.6416 41.3491 9.6416 40.1626V29.4004H11.0769V40.1626C11.0769 40.5581 11.3977 40.8798 11.794 40.8798H18.9686C19.3649 40.8798 19.6857 40.5581 19.6857 40.1626V29.4004H21.121Z" fill="white"/>
<path d="M16.0987 29.4004C17.2853 29.4004 18.2512 30.3663 18.2512 31.5528C18.2512 32.7394 17.2853 33.7053 16.0987 33.7053C14.9122 33.7053 13.9463 32.7394 13.9463 31.5528C13.9463 30.3663 14.9122 29.4004 16.0987 29.4004ZM16.8159 31.5528C16.8159 31.1564 16.4942 30.8356 16.0987 30.8356C15.7023 30.8356 15.3815 31.1564 15.3815 31.5528C15.3815 31.9492 15.7023 32.27 16.0987 32.27C16.4942 32.27 16.8159 31.9492 16.8159 31.5528Z" fill="white"/>
<path d="M14.6637 35.1406C15.8502 35.1406 16.8161 36.1057 16.8161 37.2931C16.8161 38.4796 15.8502 39.4446 14.6637 39.4446C13.4771 39.4446 12.5112 38.4796 12.5112 37.2931C12.5112 36.1057 13.4771 35.1406 14.6637 35.1406ZM15.3817 37.2931C15.3817 36.8967 15.0601 36.575 14.6637 36.575C14.2682 36.575 13.9465 36.8967 13.9465 37.2931C13.9465 37.6886 14.2682 38.0103 14.6637 38.0103C15.0601 38.0103 15.3817 37.6886 15.3817 37.2931Z" fill="white"/>
</g>
<defs>
<clipPath id="clip0_461_49804">
<rect width="45" height="45" fill="white" transform="translate(0.773438 0.185547)"/>
</clipPath>
</defs>
</svg>
