<svg width="36" height="36" viewBox="0 0 36 36" fill="none" xmlns="http://www.w3.org/2000/svg">
<g clip-path="url(#clip0_795_11868)">
<path d="M10.1529 13.1742L8.61617 14.4905C7.95692 15.0551 7.42778 15.7557 7.06517 16.5443C6.70256 17.3329 6.51508 18.1906 6.51563 19.0586V31.8555C6.51649 32.5804 6.80486 33.2754 7.31747 33.788C7.83007 34.3006 8.52507 34.589 9.25 34.5898H18C18.7249 34.589 19.4199 34.3006 19.9325 33.788C20.4451 33.2754 20.7335 32.5804 20.7344 31.8555V19.0586C20.735 18.1907 20.5475 17.333 20.1849 16.5445C19.8223 15.7561 19.2931 15.0555 18.6338 14.4911L17.0971 13.1737C17.0373 13.1223 16.9892 13.0587 16.9563 12.987C16.9233 12.9154 16.9063 12.8375 16.9063 12.7586V11.6211H17.4531C17.5982 11.6211 17.7373 11.5635 17.8398 11.4609C17.9424 11.3584 18 11.2193 18 11.0742V7.79297C18 7.64793 17.9424 7.50883 17.8398 7.40627C17.7373 7.30371 17.5982 7.24609 17.4531 7.24609H16.3594V3.41797C16.3594 2.69277 16.0713 1.99727 15.5585 1.48447C15.0457 0.971679 14.3502 0.683594 13.625 0.683594C12.8998 0.683594 12.2043 0.971679 11.6915 1.48447C11.1787 1.99727 10.8906 2.69277 10.8906 3.41797V7.24609H9.79688C9.65184 7.24609 9.51274 7.30371 9.41018 7.40627C9.30762 7.50883 9.25 7.64793 9.25 7.79297V11.0742C9.25 11.2193 9.30762 11.3584 9.41018 11.4609C9.51274 11.5635 9.65184 11.6211 9.79688 11.6211H10.3438V12.7586C10.3438 12.8375 10.3268 12.9156 10.2939 12.9873C10.2609 13.0591 10.2128 13.1228 10.1529 13.1742ZM11.9844 3.41797C11.9844 2.98285 12.1572 2.56555 12.4649 2.25787C12.7726 1.95019 13.1899 1.77734 13.625 1.77734C14.0601 1.77734 14.4774 1.95019 14.7851 2.25787C15.0928 2.56555 15.2656 2.98285 15.2656 3.41797V7.24609H11.9844V3.41797ZM10.3438 8.33984H16.9063V10.5273H10.3438V8.33984ZM15.8125 11.6211V12.7586C15.8125 12.9952 15.8637 13.2289 15.9625 13.4439C16.0614 13.6588 16.2055 13.8498 16.3851 14.0038L17.9218 15.3218C18.4612 15.7835 18.8942 16.3567 19.1909 17.0017C19.4876 17.6468 19.6411 18.3485 19.6406 19.0586V31.8555C19.6406 32.2906 19.4678 32.7079 19.1601 33.0156C18.8524 33.3232 18.4351 33.4961 18 33.4961H9.25C8.81488 33.4961 8.39758 33.3232 8.0899 33.0156C7.78223 32.7079 7.60938 32.2906 7.60938 31.8555V19.0586C7.60897 18.3485 7.7624 17.6467 8.05911 17.0015C8.35583 16.3563 8.78879 15.7831 9.3282 15.3212L10.8649 14.0044C11.0446 13.8503 11.1888 13.6592 11.2876 13.4442C11.3864 13.2291 11.4376 12.9953 11.4375 12.7586V11.6211H15.8125Z" fill="white"/>
<path d="M25.1094 0.683594C24.3844 0.684462 23.6894 0.972826 23.1768 1.48543C22.6642 1.99804 22.3759 2.69303 22.375 3.41797V7.24609H21.2812C21.1362 7.24609 20.9971 7.30371 20.8946 7.40627C20.792 7.50883 20.7344 7.64793 20.7344 7.79297V11.0742C20.7344 11.2193 20.792 11.3584 20.8946 11.4609C20.9971 11.5635 21.1362 11.6211 21.2812 11.6211H22.9219V21.4648C22.9218 21.5236 22.9312 21.5819 22.9498 21.6377L23.4688 23.1941V25.293C23.4688 25.438 23.5264 25.5771 23.6289 25.6797C23.7315 25.7822 23.8706 25.8398 24.0156 25.8398H26.2031C26.3482 25.8398 26.4873 25.7822 26.5898 25.6797C26.6924 25.5771 26.75 25.438 26.75 25.293V23.1941L27.269 21.6377C27.2875 21.5819 27.2969 21.5236 27.2969 21.4648V11.6211H28.9375C29.0825 11.6211 29.2216 11.5635 29.3242 11.4609C29.4268 11.3584 29.4844 11.2193 29.4844 11.0742V7.79297C29.4844 7.64793 29.4268 7.50883 29.3242 7.40627C29.2216 7.30371 29.0825 7.24609 28.9375 7.24609H27.8438V3.41797C27.8429 2.69303 27.5545 1.99804 27.0419 1.48543C26.5293 0.972826 25.8343 0.684462 25.1094 0.683594ZM23.4688 3.41797C23.4688 2.98285 23.6416 2.56555 23.9493 2.25787C24.257 1.95019 24.6743 1.77734 25.1094 1.77734C25.5445 1.77734 25.9618 1.95019 26.2695 2.25787C26.5771 2.56555 26.75 2.98285 26.75 3.41797V7.24609H23.4688V3.41797ZM26.2031 21.3763L25.6841 22.9327C25.6656 22.9884 25.6562 23.0467 25.6562 23.1055V24.7461H24.5625V23.1055C24.5625 23.0467 24.5531 22.9884 24.5346 22.9327L24.0156 21.3763V11.6211H26.2031V21.3763ZM28.3906 10.5273H21.8281V8.33984H28.3906V10.5273Z" fill="white"/>
<path d="M8.70312 19.2773V30.2148C8.70312 30.3599 8.76074 30.499 8.8633 30.6015C8.96586 30.7041 9.10496 30.7617 9.25 30.7617H18C18.145 30.7617 18.2841 30.7041 18.3867 30.6015C18.4893 30.499 18.5469 30.3599 18.5469 30.2148V19.2773C18.5469 19.1323 18.4893 18.9932 18.3867 18.8906C18.2841 18.7881 18.145 18.7305 18 18.7305H9.25C9.10496 18.7305 8.96586 18.7881 8.8633 18.8906C8.76074 18.9932 8.70312 19.1323 8.70312 19.2773ZM9.79688 19.8242H17.4531V29.668H9.79688V19.8242Z" fill="white"/>
<path d="M14.08 21.1615C14.0271 21.0907 13.9584 21.0333 13.8794 20.9937C13.8005 20.9542 13.7133 20.9336 13.625 20.9336C13.5367 20.9336 13.4495 20.9542 13.3706 20.9937C13.2916 21.0333 13.2229 21.0907 13.17 21.1615L11.589 23.5327C11.133 24.2158 10.89 25.0187 10.8906 25.84C10.8906 26.5652 11.1787 27.2607 11.6915 27.7735C12.2043 28.2863 12.8998 28.5743 13.625 28.5743C14.3502 28.5743 15.0457 28.2863 15.5585 27.7735C16.0713 27.2607 16.3594 26.5652 16.3594 25.84C16.36 25.0187 16.117 24.2158 15.661 23.5327L14.08 21.1615ZM13.625 27.4806C13.1899 27.4806 12.7726 27.3077 12.4649 27.0001C12.1572 26.6924 11.9844 26.2751 11.9844 25.84C11.9839 25.2348 12.163 24.6431 12.499 24.1397L13.625 22.4493L14.751 24.1381C15.0873 24.6419 15.2664 25.2342 15.2656 25.84C15.2656 26.2751 15.0928 26.6924 14.7851 27.0001C14.4774 27.3077 14.0601 27.4806 13.625 27.4806Z" fill="white"/>
<path d="M25.5644 27.1771C25.5115 27.1063 25.4428 27.0489 25.3638 27.0094C25.2848 26.9698 25.1977 26.9492 25.1094 26.9492C25.021 26.9492 24.9339 26.9698 24.8549 27.0094C24.776 27.0489 24.7073 27.1063 24.6544 27.1771L23.0734 29.5483C22.6174 30.2314 22.3744 31.0344 22.375 31.8556C22.375 32.5808 22.6631 33.2763 23.1759 33.7891C23.6887 34.3019 24.3842 34.59 25.1094 34.59C25.8346 34.59 26.5301 34.3019 27.0429 33.7891C27.5557 33.2763 27.8438 32.5808 27.8438 31.8556C27.8444 31.0344 27.6013 30.2314 27.1454 29.5483L25.5644 27.1771ZM25.1094 33.4962C24.6743 33.4962 24.257 33.3234 23.9493 33.0157C23.6416 32.708 23.4688 32.2907 23.4688 31.8556C23.4683 31.2504 23.6474 30.6587 23.9834 30.1554L25.1094 28.465L26.2354 30.1537C26.5717 30.6575 26.7508 31.2499 26.75 31.8556C26.75 32.2907 26.5771 32.708 26.2695 33.0157C25.9618 33.3234 25.5445 33.4962 25.1094 33.4962Z" fill="white"/>
</g>
<defs>
<clipPath id="clip0_795_11868">
<rect width="35" height="35" fill="white" transform="translate(0.5 0.136719)"/>
</clipPath>
</defs>
</svg>
