<svg width="35" height="35" viewBox="0 0 35 35" fill="none" xmlns="http://www.w3.org/2000/svg">
<g clip-path="url(#clip0_311_15492)">
<path d="M32.011 9.88906V11.0054C32.011 11.9282 31.2598 12.6788 30.3369 12.6788H28.6628V23.1494C28.6628 23.7879 28.308 24.3614 27.7379 24.6472L27.5472 24.7429V25.514C27.5472 26.4368 26.7959 27.1881 25.873 27.1881C24.9502 27.1881 24.1989 26.4368 24.1989 25.514V24.7429L24.0082 24.6479C23.4374 24.3621 23.0826 23.7886 23.0826 23.1501V12.6788H21.4085C20.4856 12.6788 19.7344 11.9282 19.7344 11.0054V9.88906C19.7344 8.96621 20.4856 8.21494 21.4085 8.21494H21.967V4.30889C21.967 2.15557 23.7197 0.402832 25.873 0.402832C28.0264 0.402832 29.7791 2.15557 29.7791 4.30889V8.21494H30.3369C31.2598 8.21494 32.011 8.96553 32.011 9.88906ZM30.8954 11.0054V9.88906C30.8954 9.58076 30.6452 9.33125 30.3369 9.33125H21.4085C21.1009 9.33125 20.8507 9.58076 20.8507 9.88906V11.0054C20.8507 11.313 21.1009 11.5632 21.4085 11.5632H30.3369C30.6452 11.5632 30.8954 11.313 30.8954 11.0054ZM28.6628 8.21494V4.30889C28.6628 2.77012 27.4111 1.51846 25.873 1.51846C24.3343 1.51846 23.0826 2.77012 23.0826 4.30889V8.21494H28.6628ZM27.5472 23.1494V12.6788H24.1989V23.1494C24.1989 23.3627 24.3172 23.5541 24.5072 23.6491L25.3146 24.0531V25.514C25.3146 25.8216 25.5647 26.0718 25.873 26.0718C26.1807 26.0718 26.4309 25.8216 26.4309 25.514V24.0531L27.2382 23.6491C27.4289 23.5541 27.5472 23.3627 27.5472 23.1494Z" fill="white"/>
<path d="M25.8725 28.3037C27.576 28.3037 28.6622 30.8686 28.6622 32.2098C28.6622 33.7485 27.4105 35.0002 25.8725 35.0002C24.3337 35.0002 23.082 33.7485 23.082 32.2098C23.082 30.8692 24.1683 28.3037 25.8725 28.3037ZM25.8725 33.8839C26.7953 33.8839 27.5466 33.1333 27.5466 32.2098C27.5466 31.1078 26.6483 29.42 25.8725 29.42C25.0959 29.42 24.1983 31.1078 24.1983 32.2098C24.1983 33.1333 24.9496 33.8839 25.8725 33.8839Z" fill="white"/>
<path d="M19.7327 5.87207V6.54062C19.7327 8.70898 18.5993 10.6832 16.7844 11.7858C17.4338 12.4387 17.8897 13.2911 18.0518 14.2611L18.1598 14.9105H14.7104C13.2885 14.9105 12.0464 14.1442 11.3628 13.0061C10.6792 14.1442 9.43643 14.9105 8.01455 14.9105H4.56582L4.67383 14.2611C4.83516 13.2904 5.29111 12.438 5.94053 11.7858C4.12559 10.6832 2.99219 8.7083 2.99219 6.53994V5.87139L7.04316 6.60898C7.38428 6.67051 7.7165 6.76279 8.03916 6.87969C8.02686 6.73066 8.01455 6.58096 8.01455 6.4292C8.01455 5.28965 8.36387 4.19727 9.02627 3.27031L11.3628 0L13.6986 3.271C14.361 4.19795 14.7104 5.29033 14.7104 6.4292C14.7104 6.58027 14.698 6.72998 14.6857 6.87969C15.0084 6.76211 15.3406 6.66982 15.6817 6.6083L19.7327 5.87207ZM18.572 7.21738L15.8813 7.70615C15.3639 7.80049 14.8696 7.97822 14.4068 8.22705C14.1122 9.07266 13.6016 9.83144 12.9234 10.4467H13.5482C14.3658 10.4467 15.1355 10.662 15.8034 11.0407C17.3142 10.299 18.3484 8.86758 18.572 7.21738ZM14.7104 13.7949H16.7762C16.2806 12.4694 15.0125 11.563 13.5482 11.563H11.9767C12.2357 12.8345 13.363 13.7949 14.7104 13.7949ZM13.5947 6.4292C13.5947 5.52344 13.3165 4.65596 12.7901 3.91904L11.3628 1.92021L9.93477 3.91904C9.4084 4.65596 9.13018 5.52344 9.13018 6.4292C9.13018 7.74785 9.72148 8.97627 10.751 9.80137L11.3628 10.2901L11.9739 9.80137C13.0034 8.97627 13.5947 7.74785 13.5947 6.4292ZM10.7482 11.563H9.17666C7.7124 11.563 6.44434 12.4694 5.94873 13.7949H8.01455C9.36191 13.7949 10.4892 12.8345 10.7482 11.563ZM9.17666 10.4467H9.80146C9.12334 9.83144 8.61338 9.07266 8.31807 8.22705C7.85527 7.97822 7.36172 7.80117 6.84355 7.70683L4.15361 7.21738C4.37646 8.86758 5.41074 10.299 6.92148 11.0407C7.58935 10.662 8.35908 10.4467 9.17666 10.4467Z" fill="white"/>
<path d="M18.0603 23.2807V32.2091C18.0603 33.7478 16.8086 34.9995 15.2705 34.9995H7.45771C5.91963 34.9995 4.66797 33.7478 4.66797 32.2091V23.2807C4.66797 22.1192 5.1998 21.0111 6.09189 20.2735C5.57783 19.9878 5.22578 19.4457 5.22578 18.8168V17.7005C5.22578 16.7776 5.97705 16.0264 6.8999 16.0264H15.8283C16.7512 16.0264 17.5024 16.7776 17.5024 17.7005V18.8168C17.5024 19.445 17.1504 19.9871 16.637 20.2729C17.5284 21.0111 18.0603 22.1186 18.0603 23.2807ZM16.9453 32.2091V23.2807C16.9453 22.4077 16.5276 21.573 15.829 21.0487L15.0846 20.4909H7.64434L6.90059 21.0487C6.20127 21.573 5.78359 22.4077 5.78359 23.2807V32.2091C5.78359 33.1326 6.53486 33.8832 7.45771 33.8832H15.2705C16.1934 33.8832 16.9446 33.1326 16.9446 32.2091H16.9453ZM16.3861 18.8168V17.7005C16.3861 17.3929 16.1366 17.1427 15.8283 17.1427H6.8999C6.5916 17.1427 6.34209 17.3929 6.34209 17.7005V18.8168C6.34209 19.1251 6.5916 19.3746 6.8999 19.3746H15.8283C16.1366 19.3746 16.3861 19.1251 16.3861 18.8168Z" fill="white"/>
<path d="M15.8269 22.7227V31.0933C15.8269 32.0161 15.0756 32.7674 14.1527 32.7674H8.57256C7.64971 32.7674 6.89844 32.0161 6.89844 31.0933V22.7227H8.01475V31.0933C8.01475 31.4009 8.26426 31.6511 8.57256 31.6511H14.1527C14.461 31.6511 14.7105 31.4009 14.7105 31.0933V22.7227H15.8269Z" fill="white"/>
<path d="M11.9202 22.7227C12.8431 22.7227 13.5943 23.4739 13.5943 24.3968C13.5943 25.3196 12.8431 26.0709 11.9202 26.0709C10.9974 26.0709 10.2461 25.3196 10.2461 24.3968C10.2461 23.4739 10.9974 22.7227 11.9202 22.7227ZM12.478 24.3968C12.478 24.0885 12.2278 23.839 11.9202 23.839C11.6119 23.839 11.3624 24.0885 11.3624 24.3968C11.3624 24.7051 11.6119 24.9546 11.9202 24.9546C12.2278 24.9546 12.478 24.7051 12.478 24.3968Z" fill="white"/>
<path d="M10.803 27.1875C11.7259 27.1875 12.4771 27.9381 12.4771 28.8616C12.4771 29.7845 11.7259 30.5351 10.803 30.5351C9.88018 30.5351 9.12891 29.7845 9.12891 28.8616C9.12891 27.9381 9.88018 27.1875 10.803 27.1875ZM11.3615 28.8616C11.3615 28.5533 11.1113 28.3031 10.803 28.3031C10.4954 28.3031 10.2452 28.5533 10.2452 28.8616C10.2452 29.1692 10.4954 29.4194 10.803 29.4194C11.1113 29.4194 11.3615 29.1692 11.3615 28.8616Z" fill="white"/>
</g>
<defs>
<clipPath id="clip0_311_15492">
<rect width="35" height="35" fill="white"/>
</clipPath>
</defs>
</svg>
