<svg width="35" height="35" viewBox="0 0 35 35" fill="none" xmlns="http://www.w3.org/2000/svg">
<path d="M24.5312 20.4991C24.4825 20.4136 24.4108 20.3435 24.3243 20.2966C24.2378 20.2497 24.1399 20.228 24.0417 20.2338C23.9437 20.2375 23.8485 20.2675 23.766 20.3206C23.6836 20.3737 23.6169 20.448 23.573 20.5357C22.9244 21.8321 21.8377 22.857 20.5056 23.4287L20.0982 23.6031C19.6515 23.7942 19.2707 24.1123 19.0033 24.5179C18.7358 24.9236 18.5934 25.3988 18.5938 25.8847C18.5952 26.5944 18.8253 27.2848 19.25 27.8535C19.6104 28.3297 20.0685 28.7234 20.5937 29.0079C20.2583 29.4025 19.8862 29.7643 19.4824 30.0885L19.3457 30.1979L20.0293 31.051L20.166 30.9417C20.7211 30.4943 21.2225 29.9841 21.6601 29.4213C21.9695 29.4937 22.2862 29.5304 22.604 29.5307C23.5706 29.5296 24.4973 29.1451 25.1808 28.4615C25.8643 27.778 26.2488 26.8513 26.25 25.8847C26.25 24.235 25.8016 22.6164 24.9528 21.2018L24.5312 20.4991ZM22.604 28.437C22.5192 28.437 22.4361 28.4288 22.3524 28.4222C22.9299 27.4434 23.3216 26.3664 23.508 25.2454L22.4295 25.066C22.2458 26.1537 21.843 27.1926 21.2455 28.1198C20.8043 27.9052 20.4203 27.5891 20.125 27.1972C19.8416 26.8182 19.6882 26.3579 19.6875 25.8847C19.6873 25.613 19.7668 25.3473 19.9164 25.1204C20.0659 24.8936 20.2788 24.7157 20.5286 24.6088L20.936 24.4344C22.2047 23.8901 23.2911 22.994 24.0669 21.8521C24.7803 23.0763 25.1562 24.4678 25.1563 25.8847C25.1554 26.5613 24.8862 27.21 24.4078 27.6885C23.9293 28.1669 23.2806 28.4361 22.604 28.437Z" fill="white"/>
<path d="M7.0793 21.9661C6.75207 22.184 6.48375 22.4793 6.29818 22.8258C6.11261 23.1723 6.01555 23.5593 6.01563 23.9524V32.8118C6.01563 34.4065 9.94328 34.4524 10.3906 34.4524C10.838 34.4524 14.7656 34.4065 14.7656 32.8118V30.5947C15.1249 30.6122 15.4891 30.6243 15.8594 30.6243V32.2649C15.8594 33.9914 19.9845 34.4524 22.4219 34.4524C24.8593 34.4524 28.9844 33.9914 28.9844 32.2649V17.6283C28.9856 17.159 28.8554 16.6987 28.6087 16.2995C28.362 15.9003 28.0085 15.578 27.5882 15.3692C27.3497 15.2512 27.1492 15.0687 27.0093 14.8424C26.8694 14.616 26.7958 14.355 26.7969 14.089V13.9577C27.4662 13.6165 27.8906 13.1571 27.8906 12.5774V10.3899C27.8906 9.9349 27.6117 9.31748 26.3998 8.83349L26.7914 6.09256H26.7848C26.7848 6.06631 26.7969 6.04334 26.7969 6.016C26.7969 4.42131 22.8692 4.37537 22.4219 4.37537C21.5712 4.37844 20.723 4.46656 19.8898 4.63842L20.2289 2.26553H20.2223C20.2223 2.23928 20.2344 2.21631 20.2344 2.18896C20.2344 0.594278 16.3067 0.54834 15.8594 0.54834C15.412 0.54834 11.4844 0.594278 11.4844 2.18896C11.4844 2.21631 11.4942 2.23928 11.4964 2.26553H11.4898L11.8814 5.00646C10.6695 5.48936 10.3906 6.10678 10.3906 6.56178V8.74928C10.3906 9.32896 10.815 9.7856 11.4844 10.1296V10.2608C11.4855 10.5269 11.4119 10.7879 11.272 11.0142C11.1321 11.2406 10.9315 11.4231 10.693 11.5411C10.2728 11.7499 9.91942 12.072 9.6727 12.4712C9.42597 12.8703 9.2958 13.3304 9.29688 13.7997V14.8234C7.8132 14.9875 6.5625 15.4917 6.5625 16.4055V19.6868C6.5625 20.2244 7 20.6197 7.65625 20.8899C7.65616 21.1029 7.60344 21.3126 7.50279 21.5004C7.40214 21.6882 7.25666 21.8481 7.0793 21.9661ZM7.10938 26.3543C7.99871 26.6194 8.91683 26.776 9.84375 26.8208V31.1755C8.91304 31.1252 7.99333 30.9499 7.10938 30.6544V26.3543ZM10.3906 33.3586C8.48859 33.3586 7.33906 32.966 7.10938 32.7418V31.7995C8.17401 32.1185 9.27924 32.2815 10.3906 32.2835C10.5376 32.2794 10.6771 32.2179 10.7793 32.1122C10.8815 32.0065 10.9383 31.865 10.9375 31.718V26.2865C10.9375 26.1414 10.8799 26.0023 10.7773 25.8998C10.6748 25.7972 10.5357 25.7396 10.3906 25.7396C9.27512 25.737 8.16727 25.5553 7.10938 25.2015V24.2094C8.18107 24.4848 9.28416 24.619 10.3906 24.6086C11.4971 24.619 12.6002 24.4848 13.6719 24.2094V32.7407C13.4422 32.966 12.2927 33.3586 10.3906 33.3586ZM22.4219 33.3586C19.1166 33.3586 17.1024 32.6319 16.9531 32.2649V17.8859C18.7295 18.3983 20.5736 18.6367 22.4219 18.593C24.2701 18.6367 26.1143 18.3983 27.8906 17.8859L27.8939 32.2419C27.7413 32.6319 25.7272 33.3586 22.4219 33.3586ZM27.0993 16.3508C27.3158 16.4611 27.5004 16.6249 27.6358 16.8266C25.9435 17.3214 24.1843 17.5483 22.4219 17.4993C20.6593 17.5472 18.9001 17.3193 17.208 16.8239C17.3431 16.6219 17.5278 16.4579 17.7445 16.3476C18.1224 16.1598 18.4467 15.8797 18.6875 15.5331C18.9282 15.1866 19.0775 14.7848 19.1215 14.3651C20.1995 14.6415 21.309 14.7759 22.4219 14.7649C23.5347 14.7759 24.6442 14.6415 25.7223 14.3651C25.766 14.7853 25.9151 15.1876 26.1559 15.5348C26.3966 15.8819 26.7211 16.1626 27.0993 16.3508ZM22.4219 13.6712C19.5513 13.6712 18.0469 12.8585 18.0469 12.5774V11.7702C19.4299 12.3518 20.9224 12.6272 22.4219 12.5774C23.9214 12.6272 25.4139 12.3518 26.7969 11.7702V12.5774C26.7969 12.8585 25.2924 13.6712 22.4219 13.6712ZM11.4844 8.74928V7.94209C12.8674 8.52372 14.3599 8.79909 15.8594 8.74928C16.7112 8.75254 17.5615 8.6762 18.3991 8.52123L18.4439 8.83349C17.9161 8.99967 17.4559 9.33141 17.1314 9.77959C16.7191 9.81842 16.2969 9.84303 15.8594 9.84303C12.9888 9.84303 11.4844 9.03037 11.4844 8.74928ZM26.7969 10.3899C26.7969 10.671 25.2924 11.4837 22.4219 11.4837C19.5513 11.4837 18.0469 10.671 18.0469 10.3899C18.0469 10.3527 18.1595 10.1673 18.608 9.9524C18.6268 10.0464 18.6699 10.1339 18.7332 10.206C18.7965 10.2781 18.8776 10.3323 18.9684 10.3631L19.052 10.391C20.1386 10.7533 21.2765 10.9376 22.4219 10.9368C23.5671 10.9373 24.7049 10.7527 25.7912 10.3899L25.8754 10.362C25.9662 10.3312 26.0473 10.277 26.1106 10.2049C26.1738 10.1328 26.217 10.0454 26.2358 9.95131C26.6842 10.1673 26.7969 10.3527 26.7969 10.3899ZM19.3211 7.23717C20.3303 7.51974 21.3739 7.66054 22.4219 7.65553C23.4699 7.66054 24.5135 7.51974 25.5227 7.23717L25.2104 9.42467C23.392 9.97668 21.4507 9.97668 19.6323 9.42467L19.3211 7.23717ZM25.6096 6.0149C24.603 6.43908 23.5123 6.62619 22.4219 6.56178C21.3314 6.62619 20.2408 6.43908 19.2341 6.0149C20.2408 5.59072 21.3314 5.40362 22.4219 5.46803C23.5123 5.40362 24.603 5.59072 25.6096 6.0149ZM18.0895 5.74475C16.4332 6.14214 14.7009 6.09193 13.0703 5.59928L12.758 3.41178C13.7675 3.69348 14.8113 3.83336 15.8594 3.8274C16.9074 3.83238 17.951 3.69158 18.9602 3.40904L18.725 5.05568C18.4338 5.19687 18.2067 5.44304 18.0895 5.74475ZM15.8594 1.6399C16.9498 1.57549 18.0405 1.7626 19.0471 2.18678C18.0405 2.61095 16.9498 2.79806 15.8594 2.73365C14.7689 2.79806 13.6783 2.61095 12.6716 2.18678C13.6783 1.7626 14.7689 1.57549 15.8594 1.6399ZM12.0455 6.12428C12.0643 6.21832 12.1074 6.30578 12.1707 6.37786C12.234 6.44995 12.3151 6.50413 12.4059 6.53498L12.4895 6.56287C13.5761 6.92522 14.714 7.10952 15.8594 7.10865C16.6336 7.10766 17.4055 7.02221 18.1612 6.85381L18.2443 7.43623C17.4582 7.58581 16.6595 7.65925 15.8594 7.65553C12.9888 7.65553 11.4844 6.84287 11.4844 6.56178C11.4844 6.52459 11.597 6.3392 12.0455 6.12428ZM11.182 12.5227C11.5599 12.335 11.8842 12.0548 12.125 11.7083C12.3657 11.3617 12.515 10.96 12.559 10.5403C13.6372 10.8155 14.7467 10.9488 15.8594 10.9368C16.2313 10.9368 16.5949 10.9187 16.9531 10.8925V12.5774C16.9612 12.7809 17.0158 12.9797 17.1125 13.1589C17.2093 13.338 17.3458 13.4927 17.5115 13.611C16.975 13.6471 16.427 13.6712 15.8594 13.6712C14.0968 13.719 12.3376 13.4912 10.6455 12.9958C10.7806 12.7937 10.9654 12.6297 11.182 12.5194V12.5227ZM10.3906 14.0578C12.167 14.5701 14.0111 14.8086 15.8594 14.7649C16.5665 14.7649 17.2462 14.7288 17.908 14.6752C17.7772 14.975 17.5467 15.2202 17.2555 15.3692C16.8353 15.578 16.4819 15.9002 16.2352 16.2993C15.9885 16.6984 15.8583 17.1586 15.8594 17.6278V29.524C15.4908 29.524 15.1277 29.5147 14.7656 29.4961V23.9524C14.766 23.559 14.669 23.1717 14.4835 22.8249C14.2979 22.478 14.0294 22.1825 13.702 21.9645C13.5248 21.8467 13.3795 21.6869 13.2788 21.4995C13.1782 21.312 13.1254 21.1027 13.125 20.8899C13.7813 20.6214 14.2188 20.226 14.2188 19.6868V16.4055C14.2188 15.2724 12.2959 14.7649 10.3906 14.7649V14.0578ZM7.65625 19.6403V17.6087C8.53337 17.9201 9.46011 18.0684 10.3906 18.0462C11.3211 18.0684 12.2479 17.9201 13.125 17.6087V19.6419C12.9642 19.8306 12.0252 20.2336 10.3906 20.2336C8.75602 20.2336 7.81703 19.8306 7.65625 19.6403ZM10.3906 15.8587C11.9022 15.8587 12.8182 16.2032 13.0752 16.4055C12.8182 16.6079 11.9022 16.9524 10.3906 16.9524C8.87906 16.9524 7.96305 16.6079 7.70602 16.4055C7.96305 16.2032 8.87906 15.8587 10.3906 15.8587ZM10.3906 21.3274C10.9467 21.3293 11.5019 21.2825 12.0498 21.1874C12.0925 21.5274 12.208 21.8543 12.3883 22.1457C12.5687 22.4371 12.8097 22.6862 13.0949 22.8761C13.2061 22.953 13.3045 23.0469 13.3864 23.1545C12.4079 23.4052 11.4007 23.5264 10.3906 23.5149C9.38056 23.5264 8.37337 23.4052 7.39484 23.1545C7.47673 23.0469 7.57511 22.953 7.68633 22.8761C7.97158 22.6862 8.21258 22.4371 8.39292 22.1457C8.57325 21.8543 8.6887 21.5274 8.73141 21.1874C9.27933 21.2825 9.83452 21.3293 10.3906 21.3274Z" fill="white"/>
</svg>
