<svg width="26" height="26" viewBox="0 0 26 26" fill="none" xmlns="http://www.w3.org/2000/svg">
<path d="M18.7522 4.00852C17.6716 3.12369 16.408 2.48972 15.0527 2.15233C13.6974 1.81494 12.2841 1.78254 10.9147 2.05748C9.15401 2.41846 7.53418 3.27795 6.24818 4.53357C4.96219 5.78919 4.06422 7.38801 3.66127 9.13958C3.25831 10.8912 3.36734 12.7216 3.97537 14.413C4.5834 16.1043 5.6648 17.5853 7.09075 18.6794C8.71881 19.8709 10.105 21.3617 11.1751 23.0721L11.9043 24.2846C11.9969 24.4386 12.1278 24.566 12.2842 24.6545C12.4406 24.7429 12.6173 24.7894 12.797 24.7894C12.9767 24.7894 13.1534 24.7429 13.3098 24.6545C13.4662 24.566 13.5971 24.4386 13.6897 24.2846L14.3887 23.12C15.3206 21.4818 16.5912 20.0613 18.1158 18.9533C19.3112 18.1308 20.2991 17.0418 21.0016 15.7722C21.7041 14.5026 22.102 13.0871 22.1638 11.6373C22.2256 10.1876 21.9497 8.74338 21.3578 7.41855C20.766 6.09373 19.8743 4.92456 18.7533 4.00331L18.7522 4.00852ZM12.796 15.4158C11.9719 15.4158 11.1663 15.1714 10.4811 14.7136C9.79588 14.2558 9.26183 13.605 8.94646 12.8437C8.6311 12.0823 8.54858 11.2445 8.70936 10.4363C8.87013 9.62802 9.26696 8.88559 9.84968 8.30287C10.4324 7.72015 11.1748 7.32331 11.9831 7.16254C12.7913 7.00177 13.6291 7.08428 14.3905 7.39965C15.1518 7.71501 15.8026 8.24906 16.2604 8.93427C16.7183 9.61947 16.9626 10.4251 16.9626 11.2491C16.9626 12.3542 16.5236 13.414 15.7422 14.1954C14.9608 14.9768 13.901 15.4158 12.796 15.4158Z" fill="white"/>
</svg>
