<svg width="36" height="36" viewBox="0 0 36 36" fill="none" xmlns="http://www.w3.org/2000/svg">
<g clip-path="url(#clip0_461_49941)">
<path d="M11.3337 24.3633H12.4286V25.3897H11.3337V24.3633Z" fill="white"/>
<path d="M13.5237 24.3633H14.6185V25.3897H13.5237V24.3633Z" fill="white"/>
<path d="M9.14429 24.3633H10.2391V25.3897H9.14429V24.3633Z" fill="white"/>
<path d="M5.82547 31.4113H15.7131V30.3849H5.82547V19.3683H17.9369V21.0447H18.9633V15.9055L15.3098 12.2519H16.7737V6.84626H14.0366V2.43277C14.0366 1.24427 13.0697 0.277344 11.8812 0.277344C10.6927 0.277344 9.72576 1.24427 9.72576 2.43277V5.71723H10.7522V2.43277C10.7522 1.81023 11.2586 1.30374 11.8812 1.30374C12.5037 1.30374 13.0102 1.81023 13.0102 2.43277V6.84626H6.98871V12.2519H8.45255L4.79907 15.9055V34.1483H14.6182V33.1219H5.82547V31.4113ZM5.82547 18.3419V16.6312H17.9369V18.3419H5.82547ZM10.2047 11.2255V7.87265H11.368V11.2255H10.2047ZM12.3944 7.87265H13.5576V11.2255H12.3944V7.87265ZM15.7473 11.2255H14.584V7.87265H15.7473V11.2255ZM8.0151 7.87265H9.17835V11.2255H8.0151V7.87265ZM13.8582 12.2519L17.2111 15.6048H6.55126L9.90415 12.2519H13.8582Z" fill="white"/>
<path d="M26.1139 29.7708C28.6371 29.7708 30.6585 28.6582 30.7433 28.6108L31.5458 28.1628L30.7433 27.7147C30.6585 27.6674 28.6371 26.5548 26.1139 26.5548C25.9593 26.5548 25.8067 26.5591 25.6562 26.5669C25.8411 26.4092 26.0241 26.2412 26.203 26.0623C28.0897 24.1756 28.7692 21.8326 28.7972 21.7338L29.0478 20.8495L28.1635 21.1001C28.0647 21.1281 25.7216 21.8076 23.8349 23.6943C23.656 23.8733 23.4881 24.0563 23.3304 24.2411C23.3382 24.0907 23.3425 23.9381 23.3425 23.7835C23.3425 21.2603 22.2299 19.2388 22.1825 19.154L21.7345 18.3516L21.2864 19.154C21.239 19.2388 20.1264 21.2603 20.1264 23.7835C20.1264 25.1286 20.4426 26.3308 20.745 27.1733C20.6375 27.1348 20.524 27.096 20.4052 27.0576C19.6745 26.685 18.7811 26.1259 17.9917 25.3366C17.0379 24.3828 16.4201 23.2769 16.0615 22.4899C16.8485 22.8485 17.9543 23.4663 18.9082 24.4201L19.634 23.6943C17.7473 21.8076 15.4043 21.1282 15.3054 21.1001L14.4211 20.8495L14.6717 21.7338C14.6997 21.8326 15.3792 24.1756 17.2659 26.0623C17.4448 26.2412 17.6279 26.4092 17.8127 26.5669C17.6622 26.559 17.5096 26.5548 17.355 26.5548C14.8318 26.5548 12.8104 27.6674 12.7256 27.7147L11.9231 28.1628L12.7256 28.6108C12.8107 28.6582 14.8321 29.7708 17.3553 29.7708C17.5966 29.7708 17.8332 29.7605 18.0641 29.7421C18.026 29.7785 17.988 29.8151 17.9503 29.8527C16.3625 31.4405 15.7903 33.4137 15.7667 33.4969L15.5162 34.3812L16.4004 34.1306C16.4836 34.107 18.4568 33.5348 20.0447 31.947C20.5262 31.4655 20.9137 30.9488 21.2214 30.46V35.2791H22.2478V30.46C22.5555 30.9488 22.943 31.4655 23.4244 31.947C25.0123 33.5348 26.9855 34.107 27.0688 34.1306L27.953 34.3812L27.7024 33.4969C27.6788 33.4137 27.1067 31.4405 25.5188 29.8527C24.7226 29.0565 23.8296 28.5158 23.1265 28.1714C23.2316 28.1228 23.341 28.0702 23.4543 28.0134C24.1761 27.7862 25.1061 27.5811 26.1139 27.5811C27.3409 27.5811 28.4535 27.885 29.2139 28.1627C28.4535 28.4405 27.3409 28.7444 26.1139 28.7444V29.7708ZM24.5609 24.4201C25.5147 23.4663 26.6206 22.8484 27.4075 22.4898C27.049 23.2769 26.4312 24.3827 25.4773 25.3366C24.6874 26.1265 23.7937 26.6854 23.0628 27.058C22.9444 27.0962 22.8313 27.1349 22.7241 27.1733C22.7626 27.0662 22.8012 26.9531 22.8394 26.8348C23.212 26.1037 23.7708 25.2101 24.5609 24.4201ZM21.7353 20.6815C22.0128 21.4399 22.3162 22.5511 22.3162 23.7835C22.3162 24.7909 22.1113 25.7209 21.8842 26.4424C21.8201 26.5704 21.7609 26.6939 21.7072 26.8112C21.4373 26.0553 21.1529 24.9768 21.1529 23.7835C21.153 22.5555 21.4575 21.4418 21.7353 20.6815ZM17.3553 28.7444C16.1283 28.7444 15.0157 28.4405 14.2553 28.1628C15.0157 27.8851 16.1283 27.5812 17.3553 27.5812C18.3628 27.5812 19.2927 27.7861 20.0142 28.0131C20.1278 28.07 20.2375 28.1228 20.3427 28.1714C20.2799 28.2022 20.2151 28.235 20.1493 28.2691C19.4106 28.5127 18.4267 28.7444 17.3553 28.7444ZM19.3189 31.2212C18.6159 31.9242 17.812 32.406 17.186 32.7113C17.4913 32.0853 17.9731 31.2815 18.6761 30.5784C19.2855 29.969 19.9705 29.5262 20.5499 29.2201C20.631 29.1927 20.7091 29.1652 20.7844 29.1379C20.4781 29.7564 20.0037 30.5364 19.3189 31.2212ZM26.2832 32.7113C25.6572 32.406 24.8534 31.9242 24.1503 31.2212C23.4472 30.5182 22.9654 29.7143 22.6601 29.0883C23.2862 29.3937 24.09 29.8754 24.793 30.5784C25.4961 31.2815 25.9779 32.0855 26.2832 32.7113Z" fill="white"/>
</g>
<defs>
<clipPath id="clip0_461_49941">
<rect width="35" height="35" fill="white" transform="translate(0.672363 0.277344)"/>
</clipPath>
</defs>
</svg>
