<svg width="36" height="36" viewBox="0 0 36 36" fill="none" xmlns="http://www.w3.org/2000/svg">
<path d="M10.1529 13.5375L8.61617 14.8538C7.95692 15.4184 7.42778 16.119 7.06517 16.9076C6.70256 17.6962 6.51508 18.5539 6.51563 19.4219V32.2188C6.51649 32.9437 6.80486 33.6387 7.31747 34.1513C7.83007 34.6639 8.52507 34.9523 9.25 34.9531H18C18.7249 34.9523 19.4199 34.6639 19.9325 34.1513C20.4451 33.6387 20.7335 32.9437 20.7344 32.2188V19.4219C20.735 18.554 20.5475 17.6963 20.1849 16.9078C19.8223 16.1193 19.2931 15.4188 18.6338 14.8544L17.0971 13.537C17.0373 13.4856 16.9892 13.4219 16.9563 13.3503C16.9233 13.2787 16.9063 13.2007 16.9063 13.1219V11.9844H17.4531C17.5982 11.9844 17.7373 11.9268 17.8398 11.8242C17.9424 11.7216 18 11.5825 18 11.4375V8.15625C18 8.01121 17.9424 7.87211 17.8398 7.76955C17.7373 7.66699 17.5982 7.60938 17.4531 7.60938H16.3594V3.78125C16.3594 3.05605 16.0713 2.36055 15.5585 1.84775C15.0457 1.33496 14.3502 1.04688 13.625 1.04688C12.8998 1.04688 12.2043 1.33496 11.6915 1.84775C11.1787 2.36055 10.8906 3.05605 10.8906 3.78125V7.60938H9.79688C9.65184 7.60938 9.51274 7.66699 9.41018 7.76955C9.30762 7.87211 9.25 8.01121 9.25 8.15625V11.4375C9.25 11.5825 9.30762 11.7216 9.41018 11.8242C9.51274 11.9268 9.65184 11.9844 9.79688 11.9844H10.3438V13.1219C10.3438 13.2008 10.3268 13.2789 10.2939 13.3506C10.2609 13.4223 10.2128 13.4861 10.1529 13.5375ZM11.9844 3.78125C11.9844 3.34613 12.1572 2.92883 12.4649 2.62115C12.7726 2.31348 13.1899 2.14063 13.625 2.14062C14.0601 2.14062 14.4774 2.31348 14.7851 2.62115C15.0928 2.92883 15.2656 3.34613 15.2656 3.78125V7.60938H11.9844V3.78125ZM10.3438 8.70312H16.9063V10.8906H10.3438V8.70312ZM15.8125 11.9844V13.1219C15.8125 13.3584 15.8637 13.5922 15.9625 13.8071C16.0614 14.0221 16.2055 14.2131 16.3851 14.3671L17.9218 15.6851C18.4612 16.1468 18.8942 16.7199 19.1909 17.365C19.4876 18.0101 19.6411 18.7118 19.6406 19.4219V32.2188C19.6406 32.6539 19.4678 33.0712 19.1601 33.3788C18.8524 33.6865 18.4351 33.8594 18 33.8594H9.25C8.81488 33.8594 8.39758 33.6865 8.0899 33.3788C7.78223 33.0712 7.60938 32.6539 7.60938 32.2188V19.4219C7.60897 18.7117 7.7624 18.01 8.05911 17.3648C8.35583 16.7196 8.78879 16.1464 9.3282 15.6845L10.8649 14.3677C11.0446 14.2136 11.1888 14.0225 11.2876 13.8074C11.3864 13.5924 11.4376 13.3585 11.4375 13.1219V11.9844H15.8125Z" fill="white"/>
<path d="M25.1094 1.04688C24.3844 1.04774 23.6894 1.33611 23.1768 1.84871C22.6642 2.36132 22.3759 3.05632 22.375 3.78125V7.60938H21.2812C21.1362 7.60938 20.9971 7.66699 20.8946 7.76955C20.792 7.87211 20.7344 8.01121 20.7344 8.15625V11.4375C20.7344 11.5825 20.792 11.7216 20.8946 11.8242C20.9971 11.9268 21.1362 11.9844 21.2812 11.9844H22.9219V21.8281C22.9218 21.8869 22.9312 21.9452 22.9498 22.0009L23.4688 23.5573V25.6562C23.4688 25.8013 23.5264 25.9404 23.6289 26.0429C23.7315 26.1455 23.8706 26.2031 24.0156 26.2031H26.2031C26.3482 26.2031 26.4873 26.1455 26.5898 26.0429C26.6924 25.9404 26.75 25.8013 26.75 25.6562V23.5573L27.269 22.0009C27.2875 21.9452 27.2969 21.8869 27.2969 21.8281V11.9844H28.9375C29.0825 11.9844 29.2216 11.9268 29.3242 11.8242C29.4268 11.7216 29.4844 11.5825 29.4844 11.4375V8.15625C29.4844 8.01121 29.4268 7.87211 29.3242 7.76955C29.2216 7.66699 29.0825 7.60938 28.9375 7.60938H27.8438V3.78125C27.8429 3.05632 27.5545 2.36132 27.0419 1.84871C26.5293 1.33611 25.8343 1.04774 25.1094 1.04688ZM23.4688 3.78125C23.4688 3.34613 23.6416 2.92883 23.9493 2.62115C24.257 2.31348 24.6743 2.14063 25.1094 2.14062C25.5445 2.14062 25.9618 2.31348 26.2695 2.62115C26.5771 2.92883 26.75 3.34613 26.75 3.78125V7.60938H23.4688V3.78125ZM26.2031 21.7395L25.6841 23.2959C25.6656 23.3517 25.6562 23.41 25.6562 23.4688V25.1094H24.5625V23.4688C24.5625 23.41 24.5531 23.3517 24.5346 23.2959L24.0156 21.7395V11.9844H26.2031V21.7395ZM28.3906 10.8906H21.8281V8.70312H28.3906V10.8906Z" fill="white"/>
<path d="M8.70312 19.6406V30.5781C8.70312 30.7232 8.76074 30.8623 8.8633 30.9648C8.96586 31.0674 9.10496 31.125 9.25 31.125H18C18.145 31.125 18.2841 31.0674 18.3867 30.9648C18.4893 30.8623 18.5469 30.7232 18.5469 30.5781V19.6406C18.5469 19.4956 18.4893 19.3565 18.3867 19.2539C18.2841 19.1514 18.145 19.0938 18 19.0938H9.25C9.10496 19.0938 8.96586 19.1514 8.8633 19.2539C8.76074 19.3565 8.70312 19.4956 8.70312 19.6406ZM9.79688 20.1875H17.4531V30.0312H9.79688V20.1875Z" fill="white"/>
<path d="M14.08 21.5246C14.0271 21.4539 13.9584 21.3965 13.8794 21.3569C13.8005 21.3173 13.7133 21.2968 13.625 21.2968C13.5367 21.2968 13.4495 21.3173 13.3706 21.3569C13.2916 21.3965 13.2229 21.4539 13.17 21.5246L11.589 23.8959C11.133 24.5789 10.89 25.3819 10.8906 26.2031C10.8906 26.9283 11.1787 27.6238 11.6915 28.1366C12.2043 28.6494 12.8998 28.9375 13.625 28.9375C14.3502 28.9375 15.0457 28.6494 15.5585 28.1366C16.0713 27.6238 16.3594 26.9283 16.3594 26.2031C16.36 25.3819 16.117 24.5789 15.661 23.8959L14.08 21.5246ZM13.625 27.8438C13.1899 27.8438 12.7726 27.6709 12.4649 27.3632C12.1572 27.0556 11.9844 26.6383 11.9844 26.2031C11.9839 25.598 12.163 25.0062 12.499 24.5029L13.625 22.8125L14.751 24.5013C15.0873 25.0051 15.2664 25.5974 15.2656 26.2031C15.2656 26.6383 15.0928 27.0556 14.7851 27.3632C14.4774 27.6709 14.0601 27.8438 13.625 27.8438Z" fill="white"/>
<path d="M25.5644 27.5402C25.5115 27.4695 25.4428 27.4121 25.3638 27.3725C25.2848 27.333 25.1977 27.3124 25.1094 27.3124C25.021 27.3124 24.9339 27.333 24.8549 27.3725C24.776 27.4121 24.7073 27.4695 24.6544 27.5402L23.0734 29.9115C22.6174 30.5945 22.3744 31.3975 22.375 32.2188C22.375 32.944 22.6631 33.6395 23.1759 34.1523C23.6887 34.665 24.3842 34.9531 25.1094 34.9531C25.8346 34.9531 26.5301 34.665 27.0429 34.1523C27.5557 33.6395 27.8438 32.944 27.8438 32.2188C27.8444 31.3975 27.6013 30.5945 27.1454 29.9115L25.5644 27.5402ZM25.1094 33.8594C24.6743 33.8594 24.257 33.6865 23.9493 33.3789C23.6416 33.0712 23.4688 32.6539 23.4688 32.2188C23.4683 31.6136 23.6474 31.0219 23.9834 30.5185L25.1094 28.8281L26.2354 30.5169C26.5717 31.0207 26.7508 31.613 26.75 32.2188C26.75 32.6539 26.5771 33.0712 26.2695 33.3789C25.9618 33.6865 25.5445 33.8594 25.1094 33.8594Z" fill="white"/>
</svg>
