<svg width="50" height="51" viewBox="0 0 50 51" fill="none" xmlns="http://www.w3.org/2000/svg">
<circle cx="25" cy="25.8359" r="25" fill="white"/>
<g clip-path="url(#clip0_461_42536)">
<path d="M25.7453 8.83789C27.5414 10.6356 29.1195 12.7319 29.8828 15.1885C30.8482 18.0114 30.3883 21.2125 28.8836 23.7608C28.047 25.3076 26.7901 26.5558 25.7592 27.9633C24.425 29.8426 23.4198 32.1359 23.6776 34.491C23.8005 36.1693 24.7303 37.734 26.0565 38.7414C27.4225 39.7825 29.1908 40.2563 30.8938 40.0851C32.0317 39.9517 33.1102 39.5178 34.0995 38.9484C33.017 40.1946 31.5262 41.0865 29.8986 41.3791C27.5652 41.7932 25.0435 41.4767 23.0055 40.2125C19.8851 38.389 18.085 34.7061 18.194 31.1266C18.1584 28.9985 18.7095 26.8943 19.5619 24.9572C17.9006 27.0953 16.9193 29.7908 17.0125 32.5182C17.1334 35.7831 18.6242 39.0161 21.144 41.1104C22.0024 41.8271 22.9897 42.3566 23.9968 42.8304C21.1717 42.5418 18.3863 41.3712 16.4138 39.2829C13.8564 36.6371 12.5836 32.8128 12.9781 29.1558C13.3132 26.1178 14.9705 23.3984 17.0402 21.2265C18.3804 19.7712 19.9803 18.5907 21.3402 17.1553C22.8271 15.5886 24.1831 13.8507 25.0158 11.84C25.4023 10.8824 25.777 9.88901 25.7453 8.83789Z" fill="#0B3311"/>
<path d="M32.0633 19.3799C32.2259 18.1198 31.9661 16.8656 31.9146 15.6094C34.0914 18.9459 36.0441 22.5472 36.7241 26.5248C37.2495 29.3278 37.3981 32.4513 35.8855 34.9876C34.4165 37.6214 31.0106 38.9074 28.1717 37.9578C26.5143 37.3845 25.3328 35.6864 25.3724 33.9265C25.2792 31.4142 26.8256 29.2502 28.3699 27.4246C30.3227 25.1731 31.8056 22.39 32.0633 19.3799Z" fill="#D1A132"/>
</g>
<defs>
<clipPath id="clip0_461_42536">
<rect width="34" height="34" fill="white" transform="translate(8 8.83594)"/>
</clipPath>
</defs>
</svg>
