<svg width="181" height="51" viewBox="0 0 181 51" fill="none" xmlns="http://www.w3.org/2000/svg">
<circle cx="25" cy="25.8359" r="25" fill="white"/>
<g clip-path="url(#clip0_461_42535)">
<path d="M25.7453 8.83789C27.5414 10.6356 29.1195 12.7319 29.8828 15.1885C30.8482 18.0114 30.3883 21.2125 28.8836 23.7608C28.047 25.3076 26.7901 26.5558 25.7592 27.9633C24.425 29.8426 23.4198 32.1359 23.6776 34.491C23.8005 36.1693 24.7303 37.734 26.0565 38.7414C27.4225 39.7825 29.1908 40.2563 30.8938 40.0851C32.0317 39.9517 33.1102 39.5178 34.0995 38.9484C33.017 40.1946 31.5262 41.0865 29.8986 41.3791C27.5652 41.7932 25.0435 41.4767 23.0055 40.2125C19.8851 38.389 18.085 34.7061 18.194 31.1266C18.1584 28.9985 18.7095 26.8943 19.5619 24.9572C17.9006 27.0953 16.9193 29.7908 17.0125 32.5182C17.1334 35.7831 18.6242 39.0161 21.144 41.1104C22.0024 41.8271 22.9897 42.3566 23.9968 42.8304C21.1717 42.5418 18.3863 41.3712 16.4138 39.2829C13.8564 36.6371 12.5836 32.8128 12.9781 29.1558C13.3132 26.1178 14.9705 23.3984 17.0402 21.2265C18.3804 19.7712 19.9803 18.5907 21.3402 17.1553C22.8271 15.5886 24.1831 13.8507 25.0158 11.84C25.4023 10.8824 25.777 9.88901 25.7453 8.83789Z" fill="#0B3311"/>
<path d="M32.0633 19.3799C32.2259 18.1198 31.9661 16.8656 31.9146 15.6094C34.0914 18.9459 36.0441 22.5472 36.7241 26.5248C37.2495 29.3278 37.3981 32.4513 35.8855 34.9876C34.4165 37.6214 31.0106 38.9074 28.1717 37.9578C26.5143 37.3845 25.3328 35.6864 25.3724 33.9265C25.2792 31.4142 26.8256 29.2502 28.3699 27.4246C30.3227 25.1731 31.8056 22.39 32.0633 19.3799Z" fill="#D1A132"/>
</g>
<path d="M71.816 37.1719C70.3227 37.1719 68.9413 36.9013 67.672 36.3599C66.4213 35.8186 65.32 35.0626 64.368 34.0919C63.4347 33.1213 62.7067 31.9826 62.184 30.6759C61.6613 29.3693 61.4 27.9413 61.4 26.3919C61.4 24.8426 61.652 23.4146 62.156 22.1079C62.6787 20.7826 63.4067 19.6439 64.34 18.6919C65.292 17.7213 66.4027 16.9746 67.672 16.4519C68.9413 15.9106 70.3227 15.6399 71.816 15.6399C73.3093 15.6399 74.644 15.8919 75.82 16.3959C77.0147 16.8999 78.0227 17.5719 78.844 18.4119C79.6653 19.2333 80.2533 20.1386 80.608 21.1279L77.192 22.7239C76.8 21.6786 76.1373 20.8199 75.204 20.1479C74.2707 19.4573 73.1413 19.1119 71.816 19.1119C70.5093 19.1119 69.352 19.4199 68.344 20.0359C67.3547 20.6519 66.58 21.5013 66.02 22.5839C65.4787 23.6666 65.208 24.9359 65.208 26.3919C65.208 27.8479 65.4787 29.1266 66.02 30.2279C66.58 31.3106 67.3547 32.1599 68.344 32.7759C69.352 33.3919 70.5093 33.6999 71.816 33.6999C73.1413 33.6999 74.2707 33.3639 75.204 32.6919C76.1373 32.0013 76.8 31.1333 77.192 30.0879L80.608 31.6839C80.2533 32.6733 79.6653 33.5879 78.844 34.4279C78.0227 35.2493 77.0147 35.9119 75.82 36.4159C74.644 36.9199 73.3093 37.1719 71.816 37.1719ZM83.6996 36.8359V15.9759H92.4916C93.8729 15.9759 95.0489 16.2186 96.0196 16.7039C97.0089 17.1706 97.7649 17.8426 98.2876 18.7199C98.8289 19.5786 99.0996 20.6239 99.0996 21.8559C99.0996 22.8079 98.8383 23.7039 98.3156 24.5439C97.8116 25.3653 96.9996 26.0466 95.8796 26.5879V24.8239C96.9063 25.2159 97.7183 25.7013 98.3156 26.2799C98.9129 26.8586 99.3329 27.5026 99.5756 28.2119C99.8183 28.9213 99.9396 29.6679 99.9396 30.4519C99.9396 32.4493 99.2769 34.0173 97.9516 35.1559C96.6449 36.2759 94.8249 36.8359 92.4916 36.8359H83.6996ZM87.5076 33.4759H92.8836C93.8729 33.4759 94.6569 33.2053 95.2356 32.6639C95.8329 32.1039 96.1316 31.3666 96.1316 30.4519C96.1316 29.5373 95.8329 28.7999 95.2356 28.2399C94.6569 27.6799 93.8729 27.3999 92.8836 27.3999H87.5076V33.4759ZM87.5076 24.0679H92.6876C93.4716 24.0679 94.0969 23.8439 94.5636 23.3959C95.0303 22.9293 95.2636 22.3319 95.2636 21.6039C95.2636 20.8759 95.0303 20.2973 94.5636 19.8679C94.0969 19.4386 93.4716 19.2239 92.6876 19.2239H87.5076V24.0679ZM103.059 36.8359V15.9759H109.863C112.066 15.9759 113.979 16.4239 115.603 17.3199C117.246 18.1973 118.515 19.4199 119.411 20.9879C120.307 22.5373 120.755 24.3386 120.755 26.3919C120.755 28.4266 120.307 30.2373 119.411 31.8239C118.515 33.3919 117.246 34.6239 115.603 35.5199C113.979 36.3973 112.066 36.8359 109.863 36.8359H103.059ZM106.867 33.4759H109.947C111.366 33.4759 112.588 33.1866 113.615 32.6079C114.66 32.0106 115.472 31.1893 116.051 30.1439C116.63 29.0799 116.919 27.8293 116.919 26.3919C116.919 24.9359 116.63 23.6853 116.051 22.6399C115.472 21.5946 114.66 20.7826 113.615 20.2039C112.588 19.6253 111.366 19.3359 109.947 19.3359H106.867V33.4759ZM138.31 16.7879C139.953 16.7879 141.362 17.0773 142.538 17.6559C143.714 18.2346 144.675 18.9999 145.422 19.9519C146.187 20.8853 146.747 21.9306 147.102 23.0879C147.457 24.2266 147.634 25.3653 147.634 26.5039C147.634 27.6986 147.419 28.9306 146.99 30.1999C146.579 31.4506 145.954 32.6173 145.114 33.6999C144.274 34.7639 143.21 35.6319 141.922 36.3039C140.653 36.9573 139.159 37.2839 137.442 37.2839C135.799 37.2839 134.39 37.0039 133.214 36.4439C132.038 35.8653 131.067 35.1093 130.302 34.1759C129.555 33.2426 129.005 32.2159 128.65 31.0959C128.295 29.9573 128.118 28.8186 128.118 27.6799C128.118 26.2426 128.351 24.8706 128.818 23.5639C129.303 22.2573 129.994 21.0999 130.89 20.0919C131.786 19.0653 132.859 18.2626 134.11 17.6839C135.361 17.0866 136.761 16.7879 138.31 16.7879ZM138.17 17.9079C136.994 17.9079 135.949 18.1786 135.034 18.7199C134.138 19.2613 133.373 19.9799 132.738 20.8759C132.122 21.7719 131.646 22.7613 131.31 23.8439C130.974 24.9079 130.806 25.9813 130.806 27.0639C130.787 28.0159 130.899 29.0239 131.142 30.0879C131.385 31.1333 131.767 32.1133 132.29 33.0279C132.831 33.9426 133.531 34.6893 134.39 35.2679C135.267 35.8466 136.331 36.1359 137.582 36.1359C138.795 36.1359 139.859 35.8653 140.774 35.3239C141.689 34.7826 142.454 34.0639 143.07 33.1679C143.686 32.2533 144.153 31.2546 144.47 30.1719C144.787 29.0893 144.946 28.0159 144.946 26.9519C144.946 25.8506 144.797 24.7679 144.498 23.7039C144.218 22.6213 143.789 21.6506 143.21 20.7919C142.65 19.9146 141.95 19.2146 141.11 18.6919C140.27 18.1693 139.29 17.9079 138.17 17.9079ZM152.537 22.5279C153.321 22.5279 153.909 22.7986 154.301 23.3399C154.693 23.8626 154.889 24.5626 154.889 25.4399C154.889 25.9999 154.833 26.6439 154.721 27.3719C154.627 28.0813 154.506 28.8466 154.357 29.6679C154.207 30.4893 154.077 31.3199 153.965 32.1599C153.871 32.9813 153.825 33.7839 153.825 34.5679C153.825 34.9413 153.89 35.2306 154.021 35.4359C154.17 35.6413 154.394 35.7439 154.693 35.7439C155.01 35.7439 155.355 35.5386 155.729 35.1279C156.121 34.7173 156.457 34.0173 156.737 33.0279L157.521 33.1959C157.446 33.5879 157.315 34.0173 157.129 34.4839C156.961 34.9319 156.737 35.3613 156.457 35.7719C156.177 36.1639 155.831 36.4906 155.421 36.7519C155.029 37.0133 154.571 37.1439 154.049 37.1439C153.19 37.1439 152.555 36.9199 152.145 36.4719C151.734 36.0239 151.529 35.3706 151.529 34.5119C151.529 33.6906 151.585 32.8973 151.697 32.1319C151.809 31.3479 151.93 30.5826 152.061 29.8359C152.21 29.0706 152.341 28.3053 152.453 27.5399C152.565 26.7746 152.621 25.9906 152.621 25.1879C152.621 24.9453 152.565 24.6746 152.453 24.3759C152.359 24.0773 152.154 23.9279 151.837 23.9279C151.538 23.9279 151.193 24.1333 150.801 24.5439C150.409 24.9546 150.073 25.6546 149.793 26.6439L149.009 26.4759C149.065 26.1399 149.177 25.7573 149.345 25.3279C149.513 24.8799 149.737 24.4413 150.017 24.0119C150.315 23.5826 150.67 23.2279 151.081 22.9479C151.491 22.6679 151.977 22.5279 152.537 22.5279ZM154.133 16.4799C154.562 16.4799 154.917 16.6293 155.197 16.9279C155.477 17.2079 155.617 17.5906 155.617 18.0759C155.617 18.5426 155.467 18.9253 155.169 19.2239C154.87 19.5039 154.515 19.6439 154.105 19.6439C153.694 19.6439 153.339 19.5039 153.041 19.2239C152.761 18.9253 152.621 18.5426 152.621 18.0759C152.621 17.5906 152.77 17.2079 153.069 16.9279C153.367 16.6293 153.722 16.4799 154.133 16.4799ZM163.883 15.6959C163.827 16.1626 163.743 16.6853 163.631 17.2639C163.537 17.8426 163.444 18.4119 163.351 18.9719C163.276 19.5319 163.211 20.0266 163.155 20.4559C163.043 21.2399 162.931 22.1359 162.819 23.1439C162.707 24.1333 162.595 25.1693 162.483 26.2519C162.371 27.3159 162.268 28.3613 162.175 29.3879C162.1 30.4146 162.035 31.3573 161.979 32.2159C161.923 33.0559 161.895 33.7466 161.895 34.2879C161.895 34.6426 161.932 34.9786 162.007 35.2959C162.081 35.5946 162.296 35.7439 162.651 35.7439C162.968 35.7439 163.313 35.5479 163.687 35.1559C164.079 34.7453 164.415 34.0359 164.695 33.0279L165.479 33.2239C165.423 33.5413 165.301 33.9239 165.115 34.3719C164.947 34.8199 164.713 35.2586 164.415 35.6879C164.116 36.0986 163.752 36.4439 163.323 36.7239C162.912 37.0039 162.427 37.1439 161.867 37.1439C161.101 37.1439 160.541 36.9573 160.187 36.5839C159.832 36.1919 159.645 35.6226 159.627 34.8759C159.608 34.4093 159.627 33.7186 159.683 32.8039C159.757 31.8893 159.841 30.8533 159.935 29.6959C160.047 28.5199 160.168 27.2973 160.299 26.0279C160.429 24.7399 160.569 23.4893 160.719 22.2759C160.868 21.0626 161.008 19.9613 161.139 18.9719C161.232 18.4679 161.288 18.1413 161.307 17.9919C161.344 17.8239 161.372 17.6466 161.391 17.4599C161.055 17.4786 160.719 17.4973 160.383 17.5159C160.065 17.5346 159.739 17.5533 159.403 17.5719L159.543 16.4519C160.364 16.4519 160.999 16.4146 161.447 16.3399C161.913 16.2653 162.268 16.1719 162.511 16.0599C162.753 15.9479 162.949 15.8266 163.099 15.6959H163.883Z" fill="white"/>
<defs>
<clipPath id="clip0_461_42535">
<rect width="34" height="34" fill="white" transform="translate(8 8.83594)"/>
</clipPath>
</defs>
</svg>
