<svg width="30" height="31" viewBox="0 0 30 31" fill="none" xmlns="http://www.w3.org/2000/svg">
<path d="M6.18748 18.5318C5.56875 20.088 4.59377 21.6255 3.29063 23.1068C2.87813 23.5756 2.82188 24.2505 3.15937 24.7755C3.4219 25.188 3.85312 25.413 4.32187 25.413C4.45312 25.413 4.58439 25.4037 4.71565 25.3568C7.47185 24.5505 13.9125 21.6912 14.0907 12.5224C14.1562 8.98805 11.5688 5.95056 8.20312 5.60369C6.33751 5.41618 4.48128 6.02551 3.10312 7.26302C1.72503 8.50992 0.9375 10.2912 0.9375 12.1474C0.9375 15.2412 3.13128 17.9506 6.18748 18.5318Z" fill="white"/>
<path d="M23.1657 5.60369C21.3094 5.41618 19.4532 6.02551 18.0751 7.26302C16.697 8.50992 15.9094 10.2912 15.9094 12.1474C15.9094 15.2412 18.1032 17.9505 21.1595 18.5318C20.5407 20.088 19.5657 21.6255 18.2626 23.1068C17.8501 23.5755 17.7938 24.2505 18.1314 24.7755C18.3938 25.188 18.8251 25.413 19.2938 25.413C19.425 25.413 19.5563 25.4037 19.6876 25.3568C22.4438 24.5505 28.8845 21.6912 29.0626 12.5224V12.3912C29.0626 8.91303 26.5032 5.95056 23.1657 5.60369Z" fill="white"/>
</svg>
